STARTFONT 2.1
COMMENT
COMMENT Converted from OpenType font "MultiTypeGamerChess-Regular.otf" by "otf2bdf 3.0".
COMMENT
FONT -FreeType-MultiType Gamer Chess-Medium-R-Normal--89-640-100-100-P-524-ISO10646-1
SIZE 64 100 100
FONTBOUNDINGBOX 231 156 -78 -27
STARTPROPERTIES 19
FOUNDRY "FreeType"
FAMILY_NAME "MultiType Gamer Chess"
WEIGHT_NAME "Medium"
SLANT "R"
SETWIDTH_NAME "Normal"
ADD_STYLE_NAME ""
PIXEL_SIZE 89
POINT_SIZE 640
RESOLUTION_X 100
RESOLUTION_Y 100
SPACING "P"
AVERAGE_WIDTH 524
CHARSET_REGISTRY "ISO10646"
CHARSET_ENCODING "1"
FONT_ASCENT 97
FONT_DESCENT 8
COPYRIGHT "-FreeType-MultiType Gamer Chess-Medium-R-Normal--89-640-100-100-P-524-ISO10646-1"
_OTF_FONTFILE "MultiTypeGamerChess-Regular.otf"
_OTF_PSNAME "MultiTypeGamer-Chess"
ENDPROPERTIES
CHARS 758
STARTCHAR 0020
ENCODING 32
SWIDTH 292 0
DWIDTH 26 0
BBX 0 0 0 0
BITMAP
ENDCHAR
STARTCHAR 0021
ENCODING 33
SWIDTH 292 0
DWIDTH 26 0
BBX 13 67 7 0
BITMAP
F078
F078
F078
F078
F078
0F80
0F80
0F80
0F80
F078
F078
F078
F078
F078
0F80
0F80
0F80
0F80
F078
F078
F078
F078
F078
0F80
0F80
0F80
0F80
F078
F078
F078
F078
0F80
0F80
0F80
0F80
0F80
F078
F078
F078
F078
0F80
0F80
0F80
0F80
0F80
0000
0000
0000
0000
0000
0000
0000
0000
0000
F078
F078
F078
F078
0F80
0F80
0F80
0F80
0F80
F078
F078
F078
F078
ENDCHAR
STARTCHAR 0022
ENCODING 34
SWIDTH 450 0
DWIDTH 40 0
BBX 36 23 2 53
BITMAP
F87C03E1F0
F87C03E1F0
F87C03E1F0
F87C03E1F0
F87C03E1F0
0780001E00
0780001E00
0780001E00
0780001E00
F87C03E1F0
F87C03E1F0
F87C03E1F0
F87C03E1F0
F87C03E1F0
0780001E00
0780001E00
0780001E00
0780001E00
F87C03E1F0
F87C03E1F0
F87C03E1F0
F87C03E1F0
F87C03E1F0
ENDCHAR
STARTCHAR 0023
ENCODING 35
SWIDTH 900 0
DWIDTH 80 0
BBX 66 85 7 -9
BITMAP
000783C000F0780000
000783C000F0780000
000783C000F0780000
000783C000F0780000
000783C000F0780000
00007C00000F800000
00007C00000F800000
00007C00000F800000
00007C00000F800000
000783C000F0780000
000783C000F0780000
000783C000F0780000
000783C000F0780000
000783C000F0780000
00007C00000F800000
00007C00000F800000
00007C00000F800000
00007C00000F800000
000783C000F0780000
000783C000F0780000
000783C000F0780000
000783C000F0780000
000783C000F0780000
F0787C3E1F0F8783C0
F0787C3E1F0F8783C0
F0787C3E1F0F8783C0
F0787C3E1F0F8783C0
0F8783C1E0F0787C00
0F8783C1E0F0787C00
0F8783C1E0F0787C00
0F8783C1E0F0787C00
0F8783C1E0F0787C00
F0787C3E1F0F8783C0
F0787C3E1F0F8783C0
F0787C3E1F0F8783C0
F0787C3E1F0F8783C0
000783C000F0780000
000783C000F0780000
000783C000F0780000
000783C000F0780000
00007C00000F800000
00007C00000F800000
00007C00000F800000
00007C00000F800000
00007C00000F800000
000783C000F0780000
000783C000F0780000
000783C000F0780000
000783C000F0780000
F0787C3E1F0F8783C0
F0787C3E1F0F8783C0
F0787C3E1F0F8783C0
F0787C3E1F0F8783C0
F0787C3E1F0F8783C0
0F8783C1E0F0787C00
0F8783C1E0F0787C00
0F8783C1E0F0787C00
0F8783C1E0F0787C00
F0787C3E1F0F8783C0
F0787C3E1F0F8783C0
F0787C3E1F0F8783C0
F0787C3E1F0F8783C0
F0787C3E1F0F8783C0
000783C000F0780000
000783C000F0780000
000783C000F0780000
000783C000F0780000
00007C00000F800000
00007C00000F800000
00007C00000F800000
00007C00000F800000
00007C00000F800000
000783C000F0780000
000783C000F0780000
000783C000F0780000
000783C000F0780000
00007C00000F800000
00007C00000F800000
00007C00000F800000
00007C00000F800000
000783C000F0780000
000783C000F0780000
000783C000F0780000
000783C000F0780000
000783C000F0780000
ENDCHAR
STARTCHAR 0024
ENCODING 36
SWIDTH 697 0
DWIDTH 62 0
BBX 49 85 7 -9
BITMAP
00007C3E000000
00007C3E000000
00007C3E000000
00007C3E000000
00007C3E000000
000003C0000000
000003C0000000
000003C0000000
000003C0000000
00787C3E1F0F80
00787C3E1F0F80
00787C3E1F0F80
00787C3E1F0F80
00787C3E1F0F80
0F8783C1E0F000
0F8783C1E0F000
0F8783C1E0F000
0F8783C1E0F000
F0787C3E1F0F80
F0787C3E1F0F80
F0787C3E1F0F80
F0787C3E1F0F80
F0787C3E1F0F80
0F800000000000
0F800000000000
0F800000000000
0F800000000000
F0780000000000
F0780000000000
F0780000000000
F0780000000000
F0780000000000
0F800000000000
0F800000000000
0F800000000000
0F800000000000
F0787C3E1F0000
F0787C3E1F0000
F0787C3E1F0000
F0787C3E1F0000
0F8783C1E0F000
0F8783C1E0F000
0F8783C1E0F000
0F8783C1E0F000
0F8783C1E0F000
00787C3E1F0F80
00787C3E1F0F80
00787C3E1F0F80
00787C3E1F0F80
0000000000F000
0000000000F000
0000000000F000
0000000000F000
0000000000F000
000000001F0F80
000000001F0F80
000000001F0F80
000000001F0F80
0000000000F000
0000000000F000
0000000000F000
0000000000F000
0000000000F000
F0787C3E1F0F80
F0787C3E1F0F80
F0787C3E1F0F80
F0787C3E1F0F80
0F8783C1E0F000
0F8783C1E0F000
0F8783C1E0F000
0F8783C1E0F000
0F8783C1E0F000
F0787C3E1F0000
F0787C3E1F0000
F0787C3E1F0000
F0787C3E1F0000
000003C0000000
000003C0000000
000003C0000000
000003C0000000
00007C3E000000
00007C3E000000
00007C3E000000
00007C3E000000
00007C3E000000
ENDCHAR
STARTCHAR 0025
ENCODING 37
SWIDTH 1293 0
DWIDTH 115 0
BBX 102 67 7 0
BITMAP
00787C3E00000783C000000000
00787C3E00000783C000000000
00787C3E00000783C000000000
00787C3E00000783C000000000
00787C3E00000783C000000000
0F8783C1E000007C0000000000
0F8783C1E000007C0000000000
0F8783C1E000007C0000000000
0F8783C1E000007C0000000000
F0787C3E1F000783C000000000
F0787C3E1F000783C000000000
F0787C3E1F000783C000000000
F0787C3E1F000783C000000000
F0787C3E1F000783C000000000
0F800001E000787C0000000000
0F800001E000787C0000000000
0F800001E000787C0000000000
0F800001E000787C0000000000
F078003E1F0007800000000000
F078003E1F0007800000000000
F078003E1F0007800000000000
F078003E1F0007800000000000
F078003E1F0007800000000000
0F800001E000787C0000000000
0F800001E000787C0000000000
0F800001E000787C0000000000
0F800001E000787C0000000000
F0787C3E1F0F878001E0F07800
F0787C3E1F0F878001E0F07800
F0787C3E1F0F878001E0F07800
F0787C3E1F0F878001E0F07800
0F8783C1E00078003E1F0F8780
0F8783C1E00078003E1F0F8780
0F8783C1E00078003E1F0F8780
0F8783C1E00078003E1F0F8780
0F8783C1E00078003E1F0F8780
00787C3E000F8783C1E0F0787C
00787C3E000F8783C1E0F0787C
00787C3E000F8783C1E0F0787C
00787C3E000F8783C1E0F0787C
0000000000F078003E00000780
0000000000F078003E00000780
0000000000F078003E00000780
0000000000F078003E00000780
0000000000F078003E00000780
00000000000F8003C1E000787C
00000000000F8003C1E000787C
00000000000F8003C1E000787C
00000000000F8003C1E000787C
0000000000F078003E00000780
0000000000F078003E00000780
0000000000F078003E00000780
0000000000F078003E00000780
0000000000F078003E00000780
000000001F0F8003C1E0F0787C
000000001F0F8003C1E0F0787C
000000001F0F8003C1E0F0787C
000000001F0F8003C1E0F0787C
0000000000F000003E1F0F8780
0000000000F000003E1F0F8780
0000000000F000003E1F0F8780
0000000000F000003E1F0F8780
0000000000F000003E1F0F8780
000000001F0F800001E0F07800
000000001F0F800001E0F07800
000000001F0F800001E0F07800
000000001F0F800001E0F07800
ENDCHAR
STARTCHAR 0026
ENCODING 38
SWIDTH 798 0
DWIDTH 71 0
BBX 57 67 7 0
BITMAP
00787C3E1F000000
00787C3E1F000000
00787C3E1F000000
00787C3E1F000000
00787C3E1F000000
0F8783C1E0000000
0F8783C1E0000000
0F8783C1E0000000
0F8783C1E0000000
F0787C3E1F000000
F0787C3E1F000000
F0787C3E1F000000
F0787C3E1F000000
F0787C3E1F000000
0F80000000000000
0F80000000000000
0F80000000000000
0F80000000000000
F07800001F0F8000
F07800001F0F8000
F07800001F0F8000
F07800001F0F8000
F07800001F0F8000
0F87800000F00000
0F87800000F00000
0F87800000F00000
0F87800000F00000
00787C3E1F0F8780
00787C3E1F0F8780
00787C3E1F0F8780
00787C3E1F0F8780
000783C1E0F07800
000783C1E0F07800
000783C1E0F07800
000783C1E0F07800
000783C1E0F07800
00787C3E1F0F8780
00787C3E1F0F8780
00787C3E1F0F8780
00787C3E1F0F8780
0F87800000F00000
0F87800000F00000
0F87800000F00000
0F87800000F00000
0F87800000F00000
F07800001F0F8000
F07800001F0F8000
F07800001F0F8000
F07800001F0F8000
0F80000000F00000
0F80000000F00000
0F80000000F00000
0F80000000F00000
0F80000000F00000
F0787C3E1F0F8780
F0787C3E1F0F8780
F0787C3E1F0F8780
F0787C3E1F0F8780
0F8783C1E0F07800
0F8783C1E0F07800
0F8783C1E0F07800
0F8783C1E0F07800
0F8783C1E0F07800
00787C3E1F0F8780
00787C3E1F0F8780
00787C3E1F0F8780
00787C3E1F0F8780
ENDCHAR
STARTCHAR 0027
ENCODING 39
SWIDTH 191 0
DWIDTH 17 0
BBX 14 23 2 53
BITMAP
F87C
F87C
F87C
F87C
F87C
0780
0780
0780
0780
F87C
F87C
F87C
F87C
F87C
0780
0780
0780
0780
F87C
F87C
F87C
F87C
F87C
ENDCHAR
STARTCHAR 0028
ENCODING 40
SWIDTH 292 0
DWIDTH 26 0
BBX 22 102 7 -18
BITMAP
00787C
00787C
00787C
00787C
0F8780
0F8780
0F8780
0F8780
F07800
F07800
F07800
F07800
F07800
0F8000
0F8000
0F8000
0F8000
F07800
F07800
F07800
F07800
F07800
0F8000
0F8000
0F8000
0F8000
F07800
F07800
F07800
F07800
F07800
0F8000
0F8000
0F8000
0F8000
F07800
F07800
F07800
F07800
F07800
0F8000
0F8000
0F8000
0F8000
F07800
F07800
F07800
F07800
0F8000
0F8000
0F8000
0F8000
0F8000
F07800
F07800
F07800
F07800
0F8000
0F8000
0F8000
0F8000
0F8000
F07800
F07800
F07800
F07800
0F8000
0F8000
0F8000
0F8000
0F8000
F07800
F07800
F07800
F07800
0F8000
0F8000
0F8000
0F8000
0F8000
F07800
F07800
F07800
F07800
0F8000
0F8000
0F8000
0F8000
F07800
F07800
F07800
F07800
F07800
0F8780
0F8780
0F8780
0F8780
00787C
00787C
00787C
00787C
00787C
ENDCHAR
STARTCHAR 0029
ENCODING 41
SWIDTH 292 0
DWIDTH 26 0
BBX 22 102 -2 -18
BITMAP
F07800
F07800
F07800
F07800
0F87C0
0F87C0
0F87C0
0F87C0
00783C
00783C
00783C
00783C
00783C
0007C0
0007C0
0007C0
0007C0
00783C
00783C
00783C
00783C
00783C
0007C0
0007C0
0007C0
0007C0
00783C
00783C
00783C
00783C
00783C
0007C0
0007C0
0007C0
0007C0
00783C
00783C
00783C
00783C
00783C
0007C0
0007C0
0007C0
0007C0
00783C
00783C
00783C
00783C
0007C0
0007C0
0007C0
0007C0
0007C0
00783C
00783C
00783C
00783C
0007C0
0007C0
0007C0
0007C0
0007C0
00783C
00783C
00783C
00783C
0007C0
0007C0
0007C0
0007C0
0007C0
00783C
00783C
00783C
00783C
0007C0
0007C0
0007C0
0007C0
0007C0
00783C
00783C
00783C
00783C
0007C0
0007C0
0007C0
0007C0
00783C
00783C
00783C
00783C
00783C
0F87C0
0F87C0
0F87C0
0F87C0
F07800
F07800
F07800
F07800
F07800
ENDCHAR
STARTCHAR 002A
ENCODING 42
SWIDTH 900 0
DWIDTH 80 0
BBX 66 58 7 18
BITMAP
F078003E1F000783C0
F078003E1F000783C0
F078003E1F000783C0
F078003E1F000783C0
F078003E1F000783C0
0F800001E000007C00
0F800001E000007C00
0F800001E000007C00
0F800001E000007C00
F078003E1F000783C0
F078003E1F000783C0
F078003E1F000783C0
F078003E1F000783C0
F078003E1F000783C0
0F878001E000787C00
0F878001E000787C00
0F878001E000787C00
0F878001E000787C00
00787C3E1F0F878000
00787C3E1F0F878000
00787C3E1F0F878000
00787C3E1F0F878000
00787C3E1F0F878000
000783C1E0F0780000
000783C1E0F0780000
000783C1E0F0780000
000783C1E0F0780000
00007C3E1F0F800000
00007C3E1F0F800000
00007C3E1F0F800000
00007C3E1F0F800000
00007C3E1F0F800000
000783C1E0F0780000
000783C1E0F0780000
000783C1E0F0780000
000783C1E0F0780000
00787C3E1F0F878000
00787C3E1F0F878000
00787C3E1F0F878000
00787C3E1F0F878000
0F878001E000787C00
0F878001E000787C00
0F878001E000787C00
0F878001E000787C00
0F878001E000787C00
F078003E1F000783C0
F078003E1F000783C0
F078003E1F000783C0
F078003E1F000783C0
0F800001E000007C00
0F800001E000007C00
0F800001E000007C00
0F800001E000007C00
0F800001E000007C00
F078003E1F000783C0
F078003E1F000783C0
F078003E1F000783C0
F078003E1F000783C0
ENDCHAR
STARTCHAR 002B
ENCODING 43
SWIDTH 697 0
DWIDTH 62 0
BBX 49 49 7 9
BITMAP
00007C3E000000
00007C3E000000
00007C3E000000
00007C3E000000
00007C3E000000
000003C0000000
000003C0000000
000003C0000000
000003C0000000
00007C3E000000
00007C3E000000
00007C3E000000
00007C3E000000
00007C3E000000
000003C0000000
000003C0000000
000003C0000000
000003C0000000
F0787C3E1F0F80
F0787C3E1F0F80
F0787C3E1F0F80
F0787C3E1F0F80
0F8783C1E0F000
0F8783C1E0F000
0F8783C1E0F000
0F8783C1E0F000
0F8783C1E0F000
F0787C3E1F0F80
F0787C3E1F0F80
F0787C3E1F0F80
F0787C3E1F0F80
000003C0000000
000003C0000000
000003C0000000
000003C0000000
000003C0000000
00007C3E000000
00007C3E000000
00007C3E000000
00007C3E000000
000003C0000000
000003C0000000
000003C0000000
000003C0000000
000003C0000000
00007C3E000000
00007C3E000000
00007C3E000000
00007C3E000000
ENDCHAR
STARTCHAR 002C
ENCODING 44
SWIDTH 191 0
DWIDTH 17 0
BBX 14 22 2 -9
BITMAP
F87C
F87C
F87C
F87C
0780
0780
0780
0780
0780
F87C
F87C
F87C
F87C
0780
0780
0780
0780
F800
F800
F800
F800
F800
ENDCHAR
STARTCHAR 002D
ENCODING 45
SWIDTH 495 0
DWIDTH 44 0
BBX 40 13 2 27
BITMAP
F87C3C1E0F
F87C3C1E0F
F87C3C1E0F
F87C3C1E0F
0783C3E1F0
0783C3E1F0
0783C3E1F0
0783C3E1F0
0783C3E1F0
F87C3C1E0F
F87C3C1E0F
F87C3C1E0F
F87C3C1E0F
ENDCHAR
STARTCHAR 002E
ENCODING 46
SWIDTH 191 0
DWIDTH 17 0
BBX 14 13 2 0
BITMAP
F87C
F87C
F87C
F87C
0780
0780
0780
0780
0780
F87C
F87C
F87C
F87C
ENDCHAR
STARTCHAR 002F
ENCODING 47
SWIDTH 393 0
DWIDTH 35 0
BBX 31 67 2 0
BITMAP
00003C1E
00003C1E
00003C1E
00003C1E
00003C1E
000003E0
000003E0
000003E0
000003E0
00003C1E
00003C1E
00003C1E
00003C1E
00003C1E
0003C3E0
0003C3E0
0003C3E0
0003C3E0
00003C00
00003C00
00003C00
00003C00
00003C00
0003C3E0
0003C3E0
0003C3E0
0003C3E0
007C3C00
007C3C00
007C3C00
007C3C00
0003C000
0003C000
0003C000
0003C000
0003C000
007C3C00
007C3C00
007C3C00
007C3C00
0783C000
0783C000
0783C000
0783C000
0783C000
007C0000
007C0000
007C0000
007C0000
0783C000
0783C000
0783C000
0783C000
0783C000
F87C0000
F87C0000
F87C0000
F87C0000
07800000
07800000
07800000
07800000
07800000
F87C0000
F87C0000
F87C0000
F87C0000
ENDCHAR
STARTCHAR 0030
ENCODING 48
SWIDTH 697 0
DWIDTH 62 0
BBX 49 67 7 0
BITMAP
00007C3E000000
00007C3E000000
00007C3E000000
00007C3E000000
00007C3E000000
000783C1E00000
000783C1E00000
000783C1E00000
000783C1E00000
00787C3E1F0000
00787C3E1F0000
00787C3E1F0000
00787C3E1F0000
00787C3E1F0000
0F878001E0F000
0F878001E0F000
0F878001E0F000
0F878001E0F000
F07800001F0F80
F07800001F0F80
F07800001F0F80
F07800001F0F80
F07800001F0F80
0F80000000F000
0F80000000F000
0F80000000F000
0F80000000F000
F07800001F0F80
F07800001F0F80
F07800001F0F80
F07800001F0F80
0F80000000F000
0F80000000F000
0F80000000F000
0F80000000F000
0F80000000F000
F07800001F0F80
F07800001F0F80
F07800001F0F80
F07800001F0F80
0F80000000F000
0F80000000F000
0F80000000F000
0F80000000F000
0F80000000F000
F07800001F0F80
F07800001F0F80
F07800001F0F80
F07800001F0F80
0F878001E0F000
0F878001E0F000
0F878001E0F000
0F878001E0F000
0F878001E0F000
00787C3E1F0000
00787C3E1F0000
00787C3E1F0000
00787C3E1F0000
000783C1E00000
000783C1E00000
000783C1E00000
000783C1E00000
000783C1E00000
00007C3E000000
00007C3E000000
00007C3E000000
00007C3E000000
ENDCHAR
STARTCHAR 0031
ENCODING 49
SWIDTH 393 0
DWIDTH 35 0
BBX 22 67 7 0
BITMAP
F0787C
F0787C
F0787C
F0787C
F0787C
0F8780
0F8780
0F8780
0F8780
F0787C
F0787C
F0787C
F0787C
F0787C
000780
000780
000780
000780
00787C
00787C
00787C
00787C
00787C
000780
000780
000780
000780
00787C
00787C
00787C
00787C
000780
000780
000780
000780
000780
00787C
00787C
00787C
00787C
000780
000780
000780
000780
000780
00787C
00787C
00787C
00787C
000780
000780
000780
000780
000780
00787C
00787C
00787C
00787C
000780
000780
000780
000780
000780
00787C
00787C
00787C
00787C
ENDCHAR
STARTCHAR 0032
ENCODING 50
SWIDTH 697 0
DWIDTH 62 0
BBX 49 67 7 0
BITMAP
00787C3E1F0000
00787C3E1F0000
00787C3E1F0000
00787C3E1F0000
00787C3E1F0000
0F8783C1E0F000
0F8783C1E0F000
0F8783C1E0F000
0F8783C1E0F000
F0787C3E1F0F80
F0787C3E1F0F80
F0787C3E1F0F80
F0787C3E1F0F80
F0787C3E1F0F80
0F80000000F000
0F80000000F000
0F80000000F000
0F80000000F000
F07800001F0F80
F07800001F0F80
F07800001F0F80
F07800001F0F80
F07800001F0F80
00000001E0F000
00000001E0F000
00000001E0F000
00000001E0F000
0000003E1F0000
0000003E1F0000
0000003E1F0000
0000003E1F0000
000003C1E00000
000003C1E00000
000003C1E00000
000003C1E00000
000003C1E00000
00007C3E000000
00007C3E000000
00007C3E000000
00007C3E000000
000783C0000000
000783C0000000
000783C0000000
000783C0000000
000783C0000000
00787C00000000
00787C00000000
00787C00000000
00787C00000000
0F878000000000
0F878000000000
0F878000000000
0F878000000000
0F878000000000
F0787C3E1F0F80
F0787C3E1F0F80
F0787C3E1F0F80
F0787C3E1F0F80
0F8783C1E0F000
0F8783C1E0F000
0F8783C1E0F000
0F8783C1E0F000
0F8783C1E0F000
F0787C3E1F0F80
F0787C3E1F0F80
F0787C3E1F0F80
F0787C3E1F0F80
ENDCHAR
STARTCHAR 0033
ENCODING 51
SWIDTH 697 0
DWIDTH 62 0
BBX 49 67 7 0
BITMAP
00787C3E1F0000
00787C3E1F0000
00787C3E1F0000
00787C3E1F0000
00787C3E1F0000
0F8783C1E0F000
0F8783C1E0F000
0F8783C1E0F000
0F8783C1E0F000
F0787C3E1F0F80
F0787C3E1F0F80
F0787C3E1F0F80
F0787C3E1F0F80
F0787C3E1F0F80
0F80000000F000
0F80000000F000
0F80000000F000
0F80000000F000
F07800001F0F80
F07800001F0F80
F07800001F0F80
F07800001F0F80
F07800001F0F80
00000001E0F000
00000001E0F000
00000001E0F000
00000001E0F000
00007C3E1F0000
00007C3E1F0000
00007C3E1F0000
00007C3E1F0000
000003C1E0F000
000003C1E0F000
000003C1E0F000
000003C1E0F000
000003C1E0F000
00007C3E1F0F80
00007C3E1F0F80
00007C3E1F0F80
00007C3E1F0F80
0000000000F000
0000000000F000
0000000000F000
0000000000F000
0000000000F000
F07800001F0F80
F07800001F0F80
F07800001F0F80
F07800001F0F80
0F80000000F000
0F80000000F000
0F80000000F000
0F80000000F000
0F80000000F000
F0787C3E1F0F80
F0787C3E1F0F80
F0787C3E1F0F80
F0787C3E1F0F80
0F8783C1E0F000
0F8783C1E0F000
0F8783C1E0F000
0F8783C1E0F000
0F8783C1E0F000
00787C3E1F0000
00787C3E1F0000
00787C3E1F0000
00787C3E1F0000
ENDCHAR
STARTCHAR 0034
ENCODING 52
SWIDTH 697 0
DWIDTH 62 0
BBX 49 67 7 0
BITMAP
0000003E1F0000
0000003E1F0000
0000003E1F0000
0000003E1F0000
0000003E1F0000
000003C1E00000
000003C1E00000
000003C1E00000
000003C1E00000
00007C3E1F0000
00007C3E1F0000
00007C3E1F0000
00007C3E1F0000
00007C3E1F0000
000783C1E00000
000783C1E00000
000783C1E00000
000783C1E00000
00787C3E1F0000
00787C3E1F0000
00787C3E1F0000
00787C3E1F0000
00787C3E1F0000
0F878001E00000
0F878001E00000
0F878001E00000
0F878001E00000
F078003E1F0000
F078003E1F0000
F078003E1F0000
F078003E1F0000
0F800001E00000
0F800001E00000
0F800001E00000
0F800001E00000
0F800001E00000
F0787C3E1F0F80
F0787C3E1F0F80
F0787C3E1F0F80
F0787C3E1F0F80
0F8783C1E0F000
0F8783C1E0F000
0F8783C1E0F000
0F8783C1E0F000
0F8783C1E0F000
F0787C3E1F0F80
F0787C3E1F0F80
F0787C3E1F0F80
F0787C3E1F0F80
00000001E00000
00000001E00000
00000001E00000
00000001E00000
00000001E00000
0000003E1F0000
0000003E1F0000
0000003E1F0000
0000003E1F0000
00000001E00000
00000001E00000
00000001E00000
00000001E00000
00000001E00000
0000003E1F0000
0000003E1F0000
0000003E1F0000
0000003E1F0000
ENDCHAR
STARTCHAR 0035
ENCODING 53
SWIDTH 697 0
DWIDTH 62 0
BBX 49 67 7 0
BITMAP
F0787C3E1F0F80
F0787C3E1F0F80
F0787C3E1F0F80
F0787C3E1F0F80
F0787C3E1F0F80
0F8783C1E0F000
0F8783C1E0F000
0F8783C1E0F000
0F8783C1E0F000
F0787C3E1F0F80
F0787C3E1F0F80
F0787C3E1F0F80
F0787C3E1F0F80
F0787C3E1F0F80
0F800000000000
0F800000000000
0F800000000000
0F800000000000
F0780000000000
F0780000000000
F0780000000000
F0780000000000
F0780000000000
0F800000000000
0F800000000000
0F800000000000
0F800000000000
F0787C3E1F0000
F0787C3E1F0000
F0787C3E1F0000
F0787C3E1F0000
0F8783C1E0F000
0F8783C1E0F000
0F8783C1E0F000
0F8783C1E0F000
0F8783C1E0F000
F0787C3E1F0F80
F0787C3E1F0F80
F0787C3E1F0F80
F0787C3E1F0F80
0000000000F000
0000000000F000
0000000000F000
0000000000F000
0000000000F000
000000001F0F80
000000001F0F80
000000001F0F80
000000001F0F80
0000000000F000
0000000000F000
0000000000F000
0000000000F000
0000000000F000
F0787C3E1F0F80
F0787C3E1F0F80
F0787C3E1F0F80
F0787C3E1F0F80
0F8783C1E0F000
0F8783C1E0F000
0F8783C1E0F000
0F8783C1E0F000
0F8783C1E0F000
F0787C3E1F0000
F0787C3E1F0000
F0787C3E1F0000
F0787C3E1F0000
ENDCHAR
STARTCHAR 0036
ENCODING 54
SWIDTH 697 0
DWIDTH 62 0
BBX 49 67 7 0
BITMAP
00007C3E1F0F80
00007C3E1F0F80
00007C3E1F0F80
00007C3E1F0F80
00007C3E1F0F80
000783C1E0F000
000783C1E0F000
000783C1E0F000
000783C1E0F000
00787C3E1F0F80
00787C3E1F0F80
00787C3E1F0F80
00787C3E1F0F80
00787C3E1F0F80
0F878000000000
0F878000000000
0F878000000000
0F878000000000
F0780000000000
F0780000000000
F0780000000000
F0780000000000
F0780000000000
0F800000000000
0F800000000000
0F800000000000
0F800000000000
F0787C3E1F0000
F0787C3E1F0000
F0787C3E1F0000
F0787C3E1F0000
0F8783C1E0F000
0F8783C1E0F000
0F8783C1E0F000
0F8783C1E0F000
0F8783C1E0F000
F0787C3E1F0F80
F0787C3E1F0F80
F0787C3E1F0F80
F0787C3E1F0F80
0F80000000F000
0F80000000F000
0F80000000F000
0F80000000F000
0F80000000F000
F07800001F0F80
F07800001F0F80
F07800001F0F80
F07800001F0F80
0F80000000F000
0F80000000F000
0F80000000F000
0F80000000F000
0F80000000F000
F0787C3E1F0F80
F0787C3E1F0F80
F0787C3E1F0F80
F0787C3E1F0F80
0F8783C1E0F000
0F8783C1E0F000
0F8783C1E0F000
0F8783C1E0F000
0F8783C1E0F000
00787C3E1F0000
00787C3E1F0000
00787C3E1F0000
00787C3E1F0000
ENDCHAR
STARTCHAR 0037
ENCODING 55
SWIDTH 697 0
DWIDTH 62 0
BBX 49 67 7 0
BITMAP
F0787C3E1F0F80
F0787C3E1F0F80
F0787C3E1F0F80
F0787C3E1F0F80
F0787C3E1F0F80
0F8783C1E0F000
0F8783C1E0F000
0F8783C1E0F000
0F8783C1E0F000
F0787C3E1F0F80
F0787C3E1F0F80
F0787C3E1F0F80
F0787C3E1F0F80
F0787C3E1F0F80
0000000000F000
0000000000F000
0000000000F000
0000000000F000
000000001F0F80
000000001F0F80
000000001F0F80
000000001F0F80
000000001F0F80
00000001E0F000
00000001E0F000
00000001E0F000
00000001E0F000
0000003E1F0000
0000003E1F0000
0000003E1F0000
0000003E1F0000
000003C1E00000
000003C1E00000
000003C1E00000
000003C1E00000
000003C1E00000
00007C3E000000
00007C3E000000
00007C3E000000
00007C3E000000
000783C0000000
000783C0000000
000783C0000000
000783C0000000
000783C0000000
00787C00000000
00787C00000000
00787C00000000
00787C00000000
00078000000000
00078000000000
00078000000000
00078000000000
00078000000000
00787C00000000
00787C00000000
00787C00000000
00787C00000000
00078000000000
00078000000000
00078000000000
00078000000000
00078000000000
00787C00000000
00787C00000000
00787C00000000
00787C00000000
ENDCHAR
STARTCHAR 0038
ENCODING 56
SWIDTH 697 0
DWIDTH 62 0
BBX 49 67 7 0
BITMAP
00787C3E1F0000
00787C3E1F0000
00787C3E1F0000
00787C3E1F0000
00787C3E1F0000
0F8783C1E0F000
0F8783C1E0F000
0F8783C1E0F000
0F8783C1E0F000
F0787C3E1F0F80
F0787C3E1F0F80
F0787C3E1F0F80
F0787C3E1F0F80
F0787C3E1F0F80
0F80000000F000
0F80000000F000
0F80000000F000
0F80000000F000
F07800001F0F80
F07800001F0F80
F07800001F0F80
F07800001F0F80
F07800001F0F80
0F878001E0F000
0F878001E0F000
0F878001E0F000
0F878001E0F000
00787C3E1F0000
00787C3E1F0000
00787C3E1F0000
00787C3E1F0000
000783C1E00000
000783C1E00000
000783C1E00000
000783C1E00000
000783C1E00000
00787C3E1F0000
00787C3E1F0000
00787C3E1F0000
00787C3E1F0000
0F878001E0F000
0F878001E0F000
0F878001E0F000
0F878001E0F000
0F878001E0F000
F07800001F0F80
F07800001F0F80
F07800001F0F80
F07800001F0F80
0F80000000F000
0F80000000F000
0F80000000F000
0F80000000F000
0F80000000F000
F0787C3E1F0F80
F0787C3E1F0F80
F0787C3E1F0F80
F0787C3E1F0F80
0F8783C1E0F000
0F8783C1E0F000
0F8783C1E0F000
0F8783C1E0F000
0F8783C1E0F000
00787C3E1F0000
00787C3E1F0000
00787C3E1F0000
00787C3E1F0000
ENDCHAR
STARTCHAR 0039
ENCODING 57
SWIDTH 697 0
DWIDTH 62 0
BBX 49 67 7 0
BITMAP
00787C3E1F0000
00787C3E1F0000
00787C3E1F0000
00787C3E1F0000
00787C3E1F0000
0F8783C1E0F000
0F8783C1E0F000
0F8783C1E0F000
0F8783C1E0F000
F0787C3E1F0F80
F0787C3E1F0F80
F0787C3E1F0F80
F0787C3E1F0F80
F0787C3E1F0F80
0F80000000F000
0F80000000F000
0F80000000F000
0F80000000F000
F07800001F0F80
F07800001F0F80
F07800001F0F80
F07800001F0F80
F07800001F0F80
0F80000000F000
0F80000000F000
0F80000000F000
0F80000000F000
F0787C3E1F0F80
F0787C3E1F0F80
F0787C3E1F0F80
F0787C3E1F0F80
0F8783C1E0F000
0F8783C1E0F000
0F8783C1E0F000
0F8783C1E0F000
0F8783C1E0F000
00787C3E1F0F80
00787C3E1F0F80
00787C3E1F0F80
00787C3E1F0F80
0000000000F000
0000000000F000
0000000000F000
0000000000F000
0000000000F000
000000001F0F80
000000001F0F80
000000001F0F80
000000001F0F80
00000001E0F000
00000001E0F000
00000001E0F000
00000001E0F000
00000001E0F000
F0787C3E1F0000
F0787C3E1F0000
F0787C3E1F0000
F0787C3E1F0000
0F8783C1E00000
0F8783C1E00000
0F8783C1E00000
0F8783C1E00000
0F8783C1E00000
F0787C3E000000
F0787C3E000000
F0787C3E000000
F0787C3E000000
ENDCHAR
STARTCHAR 003A
ENCODING 58
SWIDTH 191 0
DWIDTH 17 0
BBX 14 40 2 13
BITMAP
F87C
F87C
F87C
F87C
0780
0780
0780
0780
0780
F87C
F87C
F87C
F87C
0000
0000
0000
0000
0000
0000
0000
0000
0000
0000
0000
0000
0000
F87C
F87C
F87C
F87C
F87C
0780
0780
0780
0780
F87C
F87C
F87C
F87C
F87C
ENDCHAR
STARTCHAR 003B
ENCODING 59
SWIDTH 191 0
DWIDTH 17 0
BBX 14 49 2 -9
BITMAP
F87C
F87C
F87C
F87C
0780
0780
0780
0780
0780
F87C
F87C
F87C
F87C
0000
0000
0000
0000
0000
0000
0000
0000
0000
0000
0000
0000
0000
0000
F87C
F87C
F87C
F87C
0780
0780
0780
0780
0780
F87C
F87C
F87C
F87C
0780
0780
0780
0780
F800
F800
F800
F800
F800
ENDCHAR
STARTCHAR 003C
ENCODING 60
SWIDTH 641 0
DWIDTH 57 0
BBX 45 67 2 0
BITMAP
00000001F0F8
00000001F0F8
00000001F0F8
00000001F0F8
00000001F0F8
0000001E0F00
0000001E0F00
0000001E0F00
0000001E0F00
000003E1F000
000003E1F000
000003E1F000
000003E1F000
000003E1F000
00003C1E0000
00003C1E0000
00003C1E0000
00003C1E0000
0003C3E00000
0003C3E00000
0003C3E00000
0003C3E00000
0003C3E00000
007C3C000000
007C3C000000
007C3C000000
007C3C000000
0783C0000000
0783C0000000
0783C0000000
0783C0000000
F87C00000000
F87C00000000
F87C00000000
F87C00000000
F87C00000000
0783C0000000
0783C0000000
0783C0000000
0783C0000000
007C3C000000
007C3C000000
007C3C000000
007C3C000000
007C3C000000
0003C3E00000
0003C3E00000
0003C3E00000
0003C3E00000
00003C1E0000
00003C1E0000
00003C1E0000
00003C1E0000
00003C1E0000
000003E1F000
000003E1F000
000003E1F000
000003E1F000
0000001E0F00
0000001E0F00
0000001E0F00
0000001E0F00
0000001E0F00
00000001F0F8
00000001F0F8
00000001F0F8
00000001F0F8
ENDCHAR
STARTCHAR 003D
ENCODING 61
SWIDTH 697 0
DWIDTH 62 0
BBX 49 40 7 9
BITMAP
F0787C3E1F0F80
F0787C3E1F0F80
F0787C3E1F0F80
F0787C3E1F0F80
F0787C3E1F0F80
0F8783C1E0F000
0F8783C1E0F000
0F8783C1E0F000
0F8783C1E0F000
F0787C3E1F0F80
F0787C3E1F0F80
F0787C3E1F0F80
F0787C3E1F0F80
00000000000000
00000000000000
00000000000000
00000000000000
00000000000000
00000000000000
00000000000000
00000000000000
00000000000000
00000000000000
00000000000000
00000000000000
00000000000000
00000000000000
F0787C3E1F0F80
F0787C3E1F0F80
F0787C3E1F0F80
F0787C3E1F0F80
0F8783C1E0F000
0F8783C1E0F000
0F8783C1E0F000
0F8783C1E0F000
0F8783C1E0F000
F0787C3E1F0F80
F0787C3E1F0F80
F0787C3E1F0F80
F0787C3E1F0F80
ENDCHAR
STARTCHAR 003E
ENCODING 62
SWIDTH 641 0
DWIDTH 57 0
BBX 45 67 11 0
BITMAP
F87800000000
F87800000000
F87800000000
F87800000000
F87800000000
0787C0000000
0787C0000000
0787C0000000
0787C0000000
00783C000000
00783C000000
00783C000000
00783C000000
00783C000000
0007C3E00000
0007C3E00000
0007C3E00000
0007C3E00000
00003C1E0000
00003C1E0000
00003C1E0000
00003C1E0000
00003C1E0000
000003E1F000
000003E1F000
000003E1F000
000003E1F000
0000001E0F00
0000001E0F00
0000001E0F00
0000001E0F00
00000001F0F8
00000001F0F8
00000001F0F8
00000001F0F8
00000001F0F8
0000001E0F00
0000001E0F00
0000001E0F00
0000001E0F00
000003E1F000
000003E1F000
000003E1F000
000003E1F000
000003E1F000
00003C1E0000
00003C1E0000
00003C1E0000
00003C1E0000
0007C3E00000
0007C3E00000
0007C3E00000
0007C3E00000
0007C3E00000
00783C000000
00783C000000
00783C000000
00783C000000
0787C0000000
0787C0000000
0787C0000000
0787C0000000
0787C0000000
F87800000000
F87800000000
F87800000000
F87800000000
ENDCHAR
STARTCHAR 003F
ENCODING 63
SWIDTH 697 0
DWIDTH 62 0
BBX 49 67 7 0
BITMAP
00787C3E1F0000
00787C3E1F0000
00787C3E1F0000
00787C3E1F0000
00787C3E1F0000
0F8783C1E0F000
0F8783C1E0F000
0F8783C1E0F000
0F8783C1E0F000
F0787C3E1F0F80
F0787C3E1F0F80
F0787C3E1F0F80
F0787C3E1F0F80
F0787C3E1F0F80
0F80000000F000
0F80000000F000
0F80000000F000
0F80000000F000
F07800001F0F80
F07800001F0F80
F07800001F0F80
F07800001F0F80
F07800001F0F80
0000000000F000
0000000000F000
0000000000F000
0000000000F000
0000003E1F0F80
0000003E1F0F80
0000003E1F0F80
0000003E1F0F80
000003C1E0F000
000003C1E0F000
000003C1E0F000
000003C1E0F000
000003C1E0F000
00007C3E1F0000
00007C3E1F0000
00007C3E1F0000
00007C3E1F0000
000003C0000000
000003C0000000
000003C0000000
000003C0000000
000003C0000000
00007C3E000000
00007C3E000000
00007C3E000000
00007C3E000000
00000000000000
00000000000000
00000000000000
00000000000000
00000000000000
00007C3E000000
00007C3E000000
00007C3E000000
00007C3E000000
000003C0000000
000003C0000000
000003C0000000
000003C0000000
000003C0000000
00007C3E000000
00007C3E000000
00007C3E000000
00007C3E000000
ENDCHAR
STARTCHAR 0040
ENCODING 64
SWIDTH 1192 0
DWIDTH 106 0
BBX 93 93 7 -9
BITMAP
00007C3E1F0F8783C1E00000
00007C3E1F0F8783C1E00000
00007C3E1F0F8783C1E00000
00007C3E1F0F8783C1E00000
000783C1E0F0787C3E1F0000
000783C1E0F0787C3E1F0000
000783C1E0F0787C3E1F0000
000783C1E0F0787C3E1F0000
00787C3E1F0F8783C1E0F000
00787C3E1F0F8783C1E0F000
00787C3E1F0F8783C1E0F000
00787C3E1F0F8783C1E0F000
00787C3E1F0F8783C1E0F000
0F87800000000000001F0F80
0F87800000000000001F0F80
0F87800000000000001F0F80
0F87800000000000001F0F80
F0780000000000000000F078
F0780000000000000000F078
F0780000000000000000F078
F0780000000000000000F078
F0780000000000000000F078
0F8000000000000000000F80
0F8000000000000000000F80
0F8000000000000000000F80
0F8000000000000000000F80
F07800001F0F8783C000F078
F07800001F0F8783C000F078
F07800001F0F8783C000F078
F07800001F0F8783C000F078
F07800001F0F8783C000F078
0F800001E0F0787C00000F80
0F800001E0F0787C00000F80
0F800001E0F0787C00000F80
0F800001E0F0787C00000F80
F078003E1F0F8783C000F078
F078003E1F0F8783C000F078
F078003E1F0F8783C000F078
F078003E1F0F8783C000F078
F078003E1F0F8783C000F078
0F800001E000007C00000F80
0F800001E000007C00000F80
0F800001E000007C00000F80
0F800001E000007C00000F80
F078003E1F000783C000F078
F078003E1F000783C000F078
F078003E1F000783C000F078
F078003E1F000783C000F078
0F800001E000007C00000F80
0F800001E000007C00000F80
0F800001E000007C00000F80
0F800001E000007C00000F80
0F800001E000007C00000F80
F078003E1F0F8783C1E0F078
F078003E1F0F8783C1E0F078
F078003E1F0F8783C1E0F078
F078003E1F0F8783C1E0F078
0F800001E0F0787C3E1F0F80
0F800001E0F0787C3E1F0F80
0F800001E0F0787C3E1F0F80
0F800001E0F0787C3E1F0F80
0F800001E0F0787C3E1F0F80
F07800001F0F8783C1E0F000
F07800001F0F8783C1E0F000
F07800001F0F8783C1E0F000
F07800001F0F8783C1E0F000
0F8000000000000000000000
0F8000000000000000000000
0F8000000000000000000000
0F8000000000000000000000
0F8000000000000000000000
F07800000000000000000000
F07800000000000000000000
F07800000000000000000000
F07800000000000000000000
0F8780000000000000000000
0F8780000000000000000000
0F8780000000000000000000
0F8780000000000000000000
0F8780000000000000000000
00787C3E1F0F8783C1E0F078
00787C3E1F0F8783C1E0F078
00787C3E1F0F8783C1E0F078
00787C3E1F0F8783C1E0F078
000783C1E0F0787C3E1F0F80
000783C1E0F0787C3E1F0F80
000783C1E0F0787C3E1F0F80
000783C1E0F0787C3E1F0F80
00007C3E1F0F8783C1E0F078
00007C3E1F0F8783C1E0F078
00007C3E1F0F8783C1E0F078
00007C3E1F0F8783C1E0F078
00007C3E1F0F8783C1E0F078
ENDCHAR
STARTCHAR 0041
ENCODING 65
SWIDTH 697 0
DWIDTH 62 0
BBX 49 67 7 0
BITMAP
00007C3E000000
00007C3E000000
00007C3E000000
00007C3E000000
00007C3E000000
000783C1E00000
000783C1E00000
000783C1E00000
000783C1E00000
00787C3E1F0000
00787C3E1F0000
00787C3E1F0000
00787C3E1F0000
00787C3E1F0000
0F878001E0F000
0F878001E0F000
0F878001E0F000
0F878001E0F000
F07800001F0F80
F07800001F0F80
F07800001F0F80
F07800001F0F80
F07800001F0F80
0F80000000F000
0F80000000F000
0F80000000F000
0F80000000F000
F07800001F0F80
F07800001F0F80
F07800001F0F80
F07800001F0F80
0F80000000F000
0F80000000F000
0F80000000F000
0F80000000F000
0F80000000F000
F0787C3E1F0F80
F0787C3E1F0F80
F0787C3E1F0F80
F0787C3E1F0F80
0F8783C1E0F000
0F8783C1E0F000
0F8783C1E0F000
0F8783C1E0F000
0F8783C1E0F000
F0787C3E1F0F80
F0787C3E1F0F80
F0787C3E1F0F80
F0787C3E1F0F80
0F80000000F000
0F80000000F000
0F80000000F000
0F80000000F000
0F80000000F000
F07800001F0F80
F07800001F0F80
F07800001F0F80
F07800001F0F80
0F80000000F000
0F80000000F000
0F80000000F000
0F80000000F000
0F80000000F000
F07800001F0F80
F07800001F0F80
F07800001F0F80
F07800001F0F80
ENDCHAR
STARTCHAR 0042
ENCODING 66
SWIDTH 697 0
DWIDTH 62 0
BBX 49 67 7 0
BITMAP
F0787C3E1F0000
F0787C3E1F0000
F0787C3E1F0000
F0787C3E1F0000
F0787C3E1F0000
0F8783C1E0F000
0F8783C1E0F000
0F8783C1E0F000
0F8783C1E0F000
F0787C3E1F0F80
F0787C3E1F0F80
F0787C3E1F0F80
F0787C3E1F0F80
F0787C3E1F0F80
0F80000000F000
0F80000000F000
0F80000000F000
0F80000000F000
F07800001F0F80
F07800001F0F80
F07800001F0F80
F07800001F0F80
F07800001F0F80
0F800001E0F000
0F800001E0F000
0F800001E0F000
0F800001E0F000
F0787C3E1F0000
F0787C3E1F0000
F0787C3E1F0000
F0787C3E1F0000
0F8783C1E0F000
0F8783C1E0F000
0F8783C1E0F000
0F8783C1E0F000
0F8783C1E0F000
F0787C3E1F0F80
F0787C3E1F0F80
F0787C3E1F0F80
F0787C3E1F0F80
0F80000000F000
0F80000000F000
0F80000000F000
0F80000000F000
0F80000000F000
F07800001F0F80
F07800001F0F80
F07800001F0F80
F07800001F0F80
0F80000000F000
0F80000000F000
0F80000000F000
0F80000000F000
0F80000000F000
F0787C3E1F0F80
F0787C3E1F0F80
F0787C3E1F0F80
F0787C3E1F0F80
0F8783C1E0F000
0F8783C1E0F000
0F8783C1E0F000
0F8783C1E0F000
0F8783C1E0F000
F0787C3E1F0000
F0787C3E1F0000
F0787C3E1F0000
F0787C3E1F0000
ENDCHAR
STARTCHAR 0043
ENCODING 67
SWIDTH 798 0
DWIDTH 71 0
BBX 57 67 7 0
BITMAP
00007C3E1F000000
00007C3E1F000000
00007C3E1F000000
00007C3E1F000000
00007C3E1F000000
000783C1E0F00000
000783C1E0F00000
000783C1E0F00000
000783C1E0F00000
00787C3E1F0F8000
00787C3E1F0F8000
00787C3E1F0F8000
00787C3E1F0F8000
00787C3E1F0F8000
0F87800000F07800
0F87800000F07800
0F87800000F07800
0F87800000F07800
F0780000000F8780
F0780000000F8780
F0780000000F8780
F0780000000F8780
F0780000000F8780
0F80000000007800
0F80000000007800
0F80000000007800
0F80000000007800
F0780000000F8780
F0780000000F8780
F0780000000F8780
F0780000000F8780
0F80000000000000
0F80000000000000
0F80000000000000
0F80000000000000
0F80000000000000
F078000000000000
F078000000000000
F078000000000000
F078000000000000
0F80000000000000
0F80000000000000
0F80000000000000
0F80000000000000
0F80000000000000
F0780000000F8780
F0780000000F8780
F0780000000F8780
F0780000000F8780
0F87800000F07800
0F87800000F07800
0F87800000F07800
0F87800000F07800
0F87800000F07800
00787C3E1F0F8000
00787C3E1F0F8000
00787C3E1F0F8000
00787C3E1F0F8000
000783C1E0F00000
000783C1E0F00000
000783C1E0F00000
000783C1E0F00000
000783C1E0F00000
00007C3E1F000000
00007C3E1F000000
00007C3E1F000000
00007C3E1F000000
ENDCHAR
STARTCHAR 0044
ENCODING 68
SWIDTH 798 0
DWIDTH 71 0
BBX 57 67 7 0
BITMAP
F0787C3E1F000000
F0787C3E1F000000
F0787C3E1F000000
F0787C3E1F000000
F0787C3E1F000000
0F8783C1E0F00000
0F8783C1E0F00000
0F8783C1E0F00000
0F8783C1E0F00000
F0787C3E1F0F8000
F0787C3E1F0F8000
F0787C3E1F0F8000
F0787C3E1F0F8000
F0787C3E1F0F8000
0F80000000F07800
0F80000000F07800
0F80000000F07800
0F80000000F07800
F0780000000F8780
F0780000000F8780
F0780000000F8780
F0780000000F8780
F0780000000F8780
0F80000000007800
0F80000000007800
0F80000000007800
0F80000000007800
F0780000000F8780
F0780000000F8780
F0780000000F8780
F0780000000F8780
0F80000000007800
0F80000000007800
0F80000000007800
0F80000000007800
0F80000000007800
F0780000000F8780
F0780000000F8780
F0780000000F8780
F0780000000F8780
0F80000000007800
0F80000000007800
0F80000000007800
0F80000000007800
0F80000000007800
F0780000000F8780
F0780000000F8780
F0780000000F8780
F0780000000F8780
0F80000000F07800
0F80000000F07800
0F80000000F07800
0F80000000F07800
0F80000000F07800
F0787C3E1F0F8000
F0787C3E1F0F8000
F0787C3E1F0F8000
F0787C3E1F0F8000
0F8783C1E0F00000
0F8783C1E0F00000
0F8783C1E0F00000
0F8783C1E0F00000
0F8783C1E0F00000
F0787C3E1F000000
F0787C3E1F000000
F0787C3E1F000000
F0787C3E1F000000
ENDCHAR
STARTCHAR 0045
ENCODING 69
SWIDTH 697 0
DWIDTH 62 0
BBX 49 67 7 0
BITMAP
00007C3E1F0F80
00007C3E1F0F80
00007C3E1F0F80
00007C3E1F0F80
00007C3E1F0F80
000783C1E0F000
000783C1E0F000
000783C1E0F000
000783C1E0F000
00787C3E1F0F80
00787C3E1F0F80
00787C3E1F0F80
00787C3E1F0F80
00787C3E1F0F80
0F878000000000
0F878000000000
0F878000000000
0F878000000000
F0780000000000
F0780000000000
F0780000000000
F0780000000000
F0780000000000
0F800000000000
0F800000000000
0F800000000000
0F800000000000
F0787C3E1F0000
F0787C3E1F0000
F0787C3E1F0000
F0787C3E1F0000
0F8783C1E00000
0F8783C1E00000
0F8783C1E00000
0F8783C1E00000
0F8783C1E00000
F0787C3E1F0000
F0787C3E1F0000
F0787C3E1F0000
F0787C3E1F0000
0F800000000000
0F800000000000
0F800000000000
0F800000000000
0F800000000000
F0780000000000
F0780000000000
F0780000000000
F0780000000000
0F878000000000
0F878000000000
0F878000000000
0F878000000000
0F878000000000
00787C3E1F0F80
00787C3E1F0F80
00787C3E1F0F80
00787C3E1F0F80
000783C1E0F000
000783C1E0F000
000783C1E0F000
000783C1E0F000
000783C1E0F000
00007C3E1F0F80
00007C3E1F0F80
00007C3E1F0F80
00007C3E1F0F80
ENDCHAR
STARTCHAR 0046
ENCODING 70
SWIDTH 697 0
DWIDTH 62 0
BBX 49 67 7 0
BITMAP
00007C3E1F0F80
00007C3E1F0F80
00007C3E1F0F80
00007C3E1F0F80
00007C3E1F0F80
000783C1E0F000
000783C1E0F000
000783C1E0F000
000783C1E0F000
00787C3E1F0F80
00787C3E1F0F80
00787C3E1F0F80
00787C3E1F0F80
00787C3E1F0F80
0F878000000000
0F878000000000
0F878000000000
0F878000000000
F0780000000000
F0780000000000
F0780000000000
F0780000000000
F0780000000000
0F800000000000
0F800000000000
0F800000000000
0F800000000000
F0787C3E1F0000
F0787C3E1F0000
F0787C3E1F0000
F0787C3E1F0000
0F8783C1E00000
0F8783C1E00000
0F8783C1E00000
0F8783C1E00000
0F8783C1E00000
F0787C3E1F0000
F0787C3E1F0000
F0787C3E1F0000
F0787C3E1F0000
0F800000000000
0F800000000000
0F800000000000
0F800000000000
0F800000000000
F0780000000000
F0780000000000
F0780000000000
F0780000000000
0F800000000000
0F800000000000
0F800000000000
0F800000000000
0F800000000000
F0780000000000
F0780000000000
F0780000000000
F0780000000000
0F800000000000
0F800000000000
0F800000000000
0F800000000000
0F800000000000
F0780000000000
F0780000000000
F0780000000000
F0780000000000
ENDCHAR
STARTCHAR 0047
ENCODING 71
SWIDTH 798 0
DWIDTH 71 0
BBX 57 67 7 0
BITMAP
00007C3E1F0F8780
00007C3E1F0F8780
00007C3E1F0F8780
00007C3E1F0F8780
00007C3E1F0F8780
000783C1E0F07800
000783C1E0F07800
000783C1E0F07800
000783C1E0F07800
00787C3E1F0F8780
00787C3E1F0F8780
00787C3E1F0F8780
00787C3E1F0F8780
00787C3E1F0F8780
0F87800000000000
0F87800000000000
0F87800000000000
0F87800000000000
F078000000000000
F078000000000000
F078000000000000
F078000000000000
F078000000000000
0F80000000000000
0F80000000000000
0F80000000000000
0F80000000000000
F078003E1F0F8780
F078003E1F0F8780
F078003E1F0F8780
F078003E1F0F8780
0F800001E0F07800
0F800001E0F07800
0F800001E0F07800
0F800001E0F07800
0F800001E0F07800
F078003E1F0F8780
F078003E1F0F8780
F078003E1F0F8780
F078003E1F0F8780
0F80000000007800
0F80000000007800
0F80000000007800
0F80000000007800
0F80000000007800
F0780000000F8780
F0780000000F8780
F0780000000F8780
F0780000000F8780
0F87800000007800
0F87800000007800
0F87800000007800
0F87800000007800
0F87800000007800
00787C3E1F0F8780
00787C3E1F0F8780
00787C3E1F0F8780
00787C3E1F0F8780
000783C1E0F07800
000783C1E0F07800
000783C1E0F07800
000783C1E0F07800
000783C1E0F07800
00007C3E1F0F8780
00007C3E1F0F8780
00007C3E1F0F8780
00007C3E1F0F8780
ENDCHAR
STARTCHAR 0048
ENCODING 72
SWIDTH 798 0
DWIDTH 71 0
BBX 57 67 7 0
BITMAP
F0780000000F8780
F0780000000F8780
F0780000000F8780
F0780000000F8780
F0780000000F8780
0F80000000007800
0F80000000007800
0F80000000007800
0F80000000007800
F0780000000F8780
F0780000000F8780
F0780000000F8780
F0780000000F8780
F0780000000F8780
0F80000000007800
0F80000000007800
0F80000000007800
0F80000000007800
F0780000000F8780
F0780000000F8780
F0780000000F8780
F0780000000F8780
F0780000000F8780
0F80000000007800
0F80000000007800
0F80000000007800
0F80000000007800
F0787C3E1F0F8780
F0787C3E1F0F8780
F0787C3E1F0F8780
F0787C3E1F0F8780
0F8783C1E0F07800
0F8783C1E0F07800
0F8783C1E0F07800
0F8783C1E0F07800
0F8783C1E0F07800
F0787C3E1F0F8780
F0787C3E1F0F8780
F0787C3E1F0F8780
F0787C3E1F0F8780
0F80000000007800
0F80000000007800
0F80000000007800
0F80000000007800
0F80000000007800
F0780000000F8780
F0780000000F8780
F0780000000F8780
F0780000000F8780
0F80000000007800
0F80000000007800
0F80000000007800
0F80000000007800
0F80000000007800
F0780000000F8780
F0780000000F8780
F0780000000F8780
F0780000000F8780
0F80000000007800
0F80000000007800
0F80000000007800
0F80000000007800
0F80000000007800
F0780000000F8780
F0780000000F8780
F0780000000F8780
F0780000000F8780
ENDCHAR
STARTCHAR 0049
ENCODING 73
SWIDTH 495 0
DWIDTH 44 0
BBX 31 67 7 0
BITMAP
F0787C3E
F0787C3E
F0787C3E
F0787C3E
F0787C3E
0F8783C0
0F8783C0
0F8783C0
0F8783C0
F0787C3E
F0787C3E
F0787C3E
F0787C3E
F0787C3E
00078000
00078000
00078000
00078000
00787C00
00787C00
00787C00
00787C00
00787C00
00078000
00078000
00078000
00078000
00787C00
00787C00
00787C00
00787C00
00078000
00078000
00078000
00078000
00078000
00787C00
00787C00
00787C00
00787C00
00078000
00078000
00078000
00078000
00078000
00787C00
00787C00
00787C00
00787C00
00078000
00078000
00078000
00078000
00078000
F0787C3E
F0787C3E
F0787C3E
F0787C3E
0F8783C0
0F8783C0
0F8783C0
0F8783C0
0F8783C0
F0787C3E
F0787C3E
F0787C3E
F0787C3E
ENDCHAR
STARTCHAR 004A
ENCODING 74
SWIDTH 596 0
DWIDTH 53 0
BBX 40 67 7 0
BITMAP
F0787C3E1F
F0787C3E1F
F0787C3E1F
F0787C3E1F
F0787C3E1F
0F8783C1E0
0F8783C1E0
0F8783C1E0
0F8783C1E0
F0787C3E1F
F0787C3E1F
F0787C3E1F
F0787C3E1F
F0787C3E1F
00000001E0
00000001E0
00000001E0
00000001E0
0000003E1F
0000003E1F
0000003E1F
0000003E1F
0000003E1F
00000001E0
00000001E0
00000001E0
00000001E0
0000003E1F
0000003E1F
0000003E1F
0000003E1F
00000001E0
00000001E0
00000001E0
00000001E0
00000001E0
0000003E1F
0000003E1F
0000003E1F
0000003E1F
00000001E0
00000001E0
00000001E0
00000001E0
00000001E0
0000003E1F
0000003E1F
0000003E1F
0000003E1F
000003C1E0
000003C1E0
000003C1E0
000003C1E0
000003C1E0
F0787C3E00
F0787C3E00
F0787C3E00
F0787C3E00
0F8783C000
0F8783C000
0F8783C000
0F8783C000
0F8783C000
F0787C0000
F0787C0000
F0787C0000
F0787C0000
ENDCHAR
STARTCHAR 004B
ENCODING 75
SWIDTH 697 0
DWIDTH 62 0
BBX 49 67 7 0
BITMAP
F07800001F0F80
F07800001F0F80
F07800001F0F80
F07800001F0F80
F07800001F0F80
0F80000000F000
0F80000000F000
0F80000000F000
0F80000000F000
F07800001F0F80
F07800001F0F80
F07800001F0F80
F07800001F0F80
F07800001F0F80
0F800001E0F000
0F800001E0F000
0F800001E0F000
0F800001E0F000
F078003E1F0000
F078003E1F0000
F078003E1F0000
F078003E1F0000
F078003E1F0000
0F8003C1E00000
0F8003C1E00000
0F8003C1E00000
0F8003C1E00000
F0787C3E000000
F0787C3E000000
F0787C3E000000
F0787C3E000000
0F8783C0000000
0F8783C0000000
0F8783C0000000
0F8783C0000000
0F8783C0000000
F0787C3E000000
F0787C3E000000
F0787C3E000000
F0787C3E000000
0F8003C1E00000
0F8003C1E00000
0F8003C1E00000
0F8003C1E00000
0F8003C1E00000
F078003E1F0000
F078003E1F0000
F078003E1F0000
F078003E1F0000
0F800001E0F000
0F800001E0F000
0F800001E0F000
0F800001E0F000
0F800001E0F000
F07800001F0F80
F07800001F0F80
F07800001F0F80
F07800001F0F80
0F80000000F000
0F80000000F000
0F80000000F000
0F80000000F000
0F80000000F000
F07800001F0F80
F07800001F0F80
F07800001F0F80
F07800001F0F80
ENDCHAR
STARTCHAR 004C
ENCODING 76
SWIDTH 697 0
DWIDTH 62 0
BBX 49 67 7 0
BITMAP
F0780000000000
F0780000000000
F0780000000000
F0780000000000
F0780000000000
0F800000000000
0F800000000000
0F800000000000
0F800000000000
F0780000000000
F0780000000000
F0780000000000
F0780000000000
F0780000000000
0F800000000000
0F800000000000
0F800000000000
0F800000000000
F0780000000000
F0780000000000
F0780000000000
F0780000000000
F0780000000000
0F800000000000
0F800000000000
0F800000000000
0F800000000000
F0780000000000
F0780000000000
F0780000000000
F0780000000000
0F800000000000
0F800000000000
0F800000000000
0F800000000000
0F800000000000
F0780000000000
F0780000000000
F0780000000000
F0780000000000
0F800000000000
0F800000000000
0F800000000000
0F800000000000
0F800000000000
F0780000000000
F0780000000000
F0780000000000
F0780000000000
0F800000000000
0F800000000000
0F800000000000
0F800000000000
0F800000000000
F0787C3E1F0F80
F0787C3E1F0F80
F0787C3E1F0F80
F0787C3E1F0F80
0F8783C1E0F000
0F8783C1E0F000
0F8783C1E0F000
0F8783C1E0F000
0F8783C1E0F000
00787C3E1F0F80
00787C3E1F0F80
00787C3E1F0F80
00787C3E1F0F80
ENDCHAR
STARTCHAR 004D
ENCODING 77
SWIDTH 990 0
DWIDTH 88 0
BBX 75 67 7 0
BITMAP
F078000000000003C1E0
F078000000000003C1E0
F078000000000003C1E0
F078000000000003C1E0
F078000000000003C1E0
0F8780000000007C3E00
0F8780000000007C3E00
0F8780000000007C3E00
0F8780000000007C3E00
F0787C0000000783C1E0
F0787C0000000783C1E0
F0787C0000000783C1E0
F0787C0000000783C1E0
F0787C0000000783C1E0
0F8783C00000787C3E00
0F8783C00000787C3E00
0F8783C00000787C3E00
0F8783C00000787C3E00
F0787C3E000F8783C1E0
F0787C3E000F8783C1E0
F0787C3E000F8783C1E0
F0787C3E000F8783C1E0
F0787C3E000F8783C1E0
0F8003C1E0F078003E00
0F8003C1E0F078003E00
0F8003C1E0F078003E00
0F8003C1E0F078003E00
F078003E1F0F8003C1E0
F078003E1F0F8003C1E0
F078003E1F0F8003C1E0
F078003E1F0F8003C1E0
0F800001E0F000003E00
0F800001E0F000003E00
0F800001E0F000003E00
0F800001E0F000003E00
0F800001E0F000003E00
F07800001F000003C1E0
F07800001F000003C1E0
F07800001F000003C1E0
F07800001F000003C1E0
0F800000000000003E00
0F800000000000003E00
0F800000000000003E00
0F800000000000003E00
0F800000000000003E00
F078000000000003C1E0
F078000000000003C1E0
F078000000000003C1E0
F078000000000003C1E0
0F800000000000003E00
0F800000000000003E00
0F800000000000003E00
0F800000000000003E00
0F800000000000003E00
F078000000000003C1E0
F078000000000003C1E0
F078000000000003C1E0
F078000000000003C1E0
0F800000000000003E00
0F800000000000003E00
0F800000000000003E00
0F800000000000003E00
0F800000000000003E00
F078000000000003C1E0
F078000000000003C1E0
F078000000000003C1E0
F078000000000003C1E0
ENDCHAR
STARTCHAR 004E
ENCODING 78
SWIDTH 798 0
DWIDTH 71 0
BBX 57 67 7 0
BITMAP
F0780000000F8780
F0780000000F8780
F0780000000F8780
F0780000000F8780
F0780000000F8780
0F87800000007800
0F87800000007800
0F87800000007800
0F87800000007800
F0787C00000F8780
F0787C00000F8780
F0787C00000F8780
F0787C00000F8780
F0787C00000F8780
0F8783C000007800
0F8783C000007800
0F8783C000007800
0F8783C000007800
F0787C3E000F8780
F0787C3E000F8780
F0787C3E000F8780
F0787C3E000F8780
F0787C3E000F8780
0F8003C1E0007800
0F8003C1E0007800
0F8003C1E0007800
0F8003C1E0007800
F078003E1F0F8780
F078003E1F0F8780
F078003E1F0F8780
F078003E1F0F8780
0F800001E0F07800
0F800001E0F07800
0F800001E0F07800
0F800001E0F07800
0F800001E0F07800
F07800001F0F8780
F07800001F0F8780
F07800001F0F8780
F07800001F0F8780
0F80000000F07800
0F80000000F07800
0F80000000F07800
0F80000000F07800
0F80000000F07800
F0780000000F8780
F0780000000F8780
F0780000000F8780
F0780000000F8780
0F80000000007800
0F80000000007800
0F80000000007800
0F80000000007800
0F80000000007800
F0780000000F8780
F0780000000F8780
F0780000000F8780
F0780000000F8780
0F80000000007800
0F80000000007800
0F80000000007800
0F80000000007800
0F80000000007800
F0780000000F8780
F0780000000F8780
F0780000000F8780
F0780000000F8780
ENDCHAR
STARTCHAR 004F
ENCODING 79
SWIDTH 798 0
DWIDTH 71 0
BBX 57 67 7 0
BITMAP
00007C3E1F000000
00007C3E1F000000
00007C3E1F000000
00007C3E1F000000
00007C3E1F000000
000783C1E0F00000
000783C1E0F00000
000783C1E0F00000
000783C1E0F00000
00787C3E1F0F8000
00787C3E1F0F8000
00787C3E1F0F8000
00787C3E1F0F8000
00787C3E1F0F8000
0F87800000F07800
0F87800000F07800
0F87800000F07800
0F87800000F07800
F0780000000F8780
F0780000000F8780
F0780000000F8780
F0780000000F8780
F0780000000F8780
0F80000000007800
0F80000000007800
0F80000000007800
0F80000000007800
F0780000000F8780
F0780000000F8780
F0780000000F8780
F0780000000F8780
0F80000000007800
0F80000000007800
0F80000000007800
0F80000000007800
0F80000000007800
F0780000000F8780
F0780000000F8780
F0780000000F8780
F0780000000F8780
0F80000000007800
0F80000000007800
0F80000000007800
0F80000000007800
0F80000000007800
F0780000000F8780
F0780000000F8780
F0780000000F8780
F0780000000F8780
0F87800000F07800
0F87800000F07800
0F87800000F07800
0F87800000F07800
0F87800000F07800
00787C3E1F0F8000
00787C3E1F0F8000
00787C3E1F0F8000
00787C3E1F0F8000
000783C1E0F00000
000783C1E0F00000
000783C1E0F00000
000783C1E0F00000
000783C1E0F00000
00007C3E1F000000
00007C3E1F000000
00007C3E1F000000
00007C3E1F000000
ENDCHAR
STARTCHAR 0050
ENCODING 80
SWIDTH 697 0
DWIDTH 62 0
BBX 49 67 7 0
BITMAP
F0787C3E000000
F0787C3E000000
F0787C3E000000
F0787C3E000000
F0787C3E000000
0F8783C1E00000
0F8783C1E00000
0F8783C1E00000
0F8783C1E00000
F0787C3E1F0000
F0787C3E1F0000
F0787C3E1F0000
F0787C3E1F0000
F0787C3E1F0000
0F800001E0F000
0F800001E0F000
0F800001E0F000
0F800001E0F000
F07800001F0F80
F07800001F0F80
F07800001F0F80
F07800001F0F80
F07800001F0F80
0F80000000F000
0F80000000F000
0F80000000F000
0F80000000F000
F07800001F0F80
F07800001F0F80
F07800001F0F80
F07800001F0F80
0F80000000F000
0F80000000F000
0F80000000F000
0F80000000F000
0F80000000F000
F07800001F0F80
F07800001F0F80
F07800001F0F80
F07800001F0F80
0F800001E0F000
0F800001E0F000
0F800001E0F000
0F800001E0F000
0F800001E0F000
F0787C3E1F0000
F0787C3E1F0000
F0787C3E1F0000
F0787C3E1F0000
0F8783C1E00000
0F8783C1E00000
0F8783C1E00000
0F8783C1E00000
0F8783C1E00000
F0787C3E000000
F0787C3E000000
F0787C3E000000
F0787C3E000000
0F800000000000
0F800000000000
0F800000000000
0F800000000000
0F800000000000
F0780000000000
F0780000000000
F0780000000000
F0780000000000
ENDCHAR
STARTCHAR 0051
ENCODING 81
SWIDTH 798 0
DWIDTH 71 0
BBX 57 76 7 -9
BITMAP
00007C3E1F000000
00007C3E1F000000
00007C3E1F000000
00007C3E1F000000
00007C3E1F000000
000783C1E0F00000
000783C1E0F00000
000783C1E0F00000
000783C1E0F00000
00787C3E1F0F8000
00787C3E1F0F8000
00787C3E1F0F8000
00787C3E1F0F8000
00787C3E1F0F8000
0F87800000F07800
0F87800000F07800
0F87800000F07800
0F87800000F07800
F0780000000F8780
F0780000000F8780
F0780000000F8780
F0780000000F8780
F0780000000F8780
0F80000000007800
0F80000000007800
0F80000000007800
0F80000000007800
F0780000000F8780
F0780000000F8780
F0780000000F8780
F0780000000F8780
0F80000000007800
0F80000000007800
0F80000000007800
0F80000000007800
0F80000000007800
F0780000000F8780
F0780000000F8780
F0780000000F8780
F0780000000F8780
0F80000000007800
0F80000000007800
0F80000000007800
0F80000000007800
0F80000000007800
F0780000000F8780
F0780000000F8780
F0780000000F8780
F0780000000F8780
0F87800000F07800
0F87800000F07800
0F87800000F07800
0F87800000F07800
0F87800000F07800
00787C3E1F0F8000
00787C3E1F0F8000
00787C3E1F0F8000
00787C3E1F0F8000
000783C1E0F00000
000783C1E0F00000
000783C1E0F00000
000783C1E0F00000
000783C1E0F00000
00007C3E1F000000
00007C3E1F000000
00007C3E1F000000
00007C3E1F000000
00000001E0F00000
00000001E0F00000
00000001E0F00000
00000001E0F00000
000000001F0F8000
000000001F0F8000
000000001F0F8000
000000001F0F8000
000000001F0F8000
ENDCHAR
STARTCHAR 0052
ENCODING 82
SWIDTH 697 0
DWIDTH 62 0
BBX 49 67 7 0
BITMAP
F0787C3E000000
F0787C3E000000
F0787C3E000000
F0787C3E000000
F0787C3E000000
0F8783C1E00000
0F8783C1E00000
0F8783C1E00000
0F8783C1E00000
F0787C3E1F0000
F0787C3E1F0000
F0787C3E1F0000
F0787C3E1F0000
F0787C3E1F0000
0F800001E0F000
0F800001E0F000
0F800001E0F000
0F800001E0F000
F07800001F0F80
F07800001F0F80
F07800001F0F80
F07800001F0F80
F07800001F0F80
0F80000000F000
0F80000000F000
0F80000000F000
0F80000000F000
F07800001F0F80
F07800001F0F80
F07800001F0F80
F07800001F0F80
0F80000000F000
0F80000000F000
0F80000000F000
0F80000000F000
0F80000000F000
F07800001F0F80
F07800001F0F80
F07800001F0F80
F07800001F0F80
0F800001E0F000
0F800001E0F000
0F800001E0F000
0F800001E0F000
0F800001E0F000
F0787C3E1F0000
F0787C3E1F0000
F0787C3E1F0000
F0787C3E1F0000
0F8783C1E00000
0F8783C1E00000
0F8783C1E00000
0F8783C1E00000
0F8783C1E00000
F0787C3E1F0000
F0787C3E1F0000
F0787C3E1F0000
F0787C3E1F0000
0F800001E0F000
0F800001E0F000
0F800001E0F000
0F800001E0F000
0F800001E0F000
F07800001F0F80
F07800001F0F80
F07800001F0F80
F07800001F0F80
ENDCHAR
STARTCHAR 0053
ENCODING 83
SWIDTH 697 0
DWIDTH 62 0
BBX 49 67 7 0
BITMAP
00787C3E1F0000
00787C3E1F0000
00787C3E1F0000
00787C3E1F0000
00787C3E1F0000
0F8783C1E0F000
0F8783C1E0F000
0F8783C1E0F000
0F8783C1E0F000
F0787C3E1F0F80
F0787C3E1F0F80
F0787C3E1F0F80
F0787C3E1F0F80
F0787C3E1F0F80
0F80000000F000
0F80000000F000
0F80000000F000
0F80000000F000
F07800001F0F80
F07800001F0F80
F07800001F0F80
F07800001F0F80
F07800001F0F80
0F800000000000
0F800000000000
0F800000000000
0F800000000000
F0787C3E1F0000
F0787C3E1F0000
F0787C3E1F0000
F0787C3E1F0000
0F8783C1E0F000
0F8783C1E0F000
0F8783C1E0F000
0F8783C1E0F000
0F8783C1E0F000
00787C3E1F0F80
00787C3E1F0F80
00787C3E1F0F80
00787C3E1F0F80
0000000000F000
0000000000F000
0000000000F000
0000000000F000
0000000000F000
F07800001F0F80
F07800001F0F80
F07800001F0F80
F07800001F0F80
0F80000000F000
0F80000000F000
0F80000000F000
0F80000000F000
0F80000000F000
F0787C3E1F0F80
F0787C3E1F0F80
F0787C3E1F0F80
F0787C3E1F0F80
0F8783C1E0F000
0F8783C1E0F000
0F8783C1E0F000
0F8783C1E0F000
0F8783C1E0F000
00787C3E1F0000
00787C3E1F0000
00787C3E1F0000
00787C3E1F0000
ENDCHAR
STARTCHAR 0054
ENCODING 84
SWIDTH 697 0
DWIDTH 62 0
BBX 49 67 7 0
BITMAP
F0787C3E1F0F80
F0787C3E1F0F80
F0787C3E1F0F80
F0787C3E1F0F80
F0787C3E1F0F80
0F8783C1E0F000
0F8783C1E0F000
0F8783C1E0F000
0F8783C1E0F000
F0787C3E1F0F80
F0787C3E1F0F80
F0787C3E1F0F80
F0787C3E1F0F80
F0787C3E1F0F80
000003C0000000
000003C0000000
000003C0000000
000003C0000000
00007C3E000000
00007C3E000000
00007C3E000000
00007C3E000000
00007C3E000000
000003C0000000
000003C0000000
000003C0000000
000003C0000000
00007C3E000000
00007C3E000000
00007C3E000000
00007C3E000000
000003C0000000
000003C0000000
000003C0000000
000003C0000000
000003C0000000
00007C3E000000
00007C3E000000
00007C3E000000
00007C3E000000
000003C0000000
000003C0000000
000003C0000000
000003C0000000
000003C0000000
00007C3E000000
00007C3E000000
00007C3E000000
00007C3E000000
000003C0000000
000003C0000000
000003C0000000
000003C0000000
000003C0000000
00007C3E000000
00007C3E000000
00007C3E000000
00007C3E000000
000003C0000000
000003C0000000
000003C0000000
000003C0000000
000003C0000000
00007C3E000000
00007C3E000000
00007C3E000000
00007C3E000000
ENDCHAR
STARTCHAR 0055
ENCODING 85
SWIDTH 798 0
DWIDTH 71 0
BBX 57 67 7 0
BITMAP
F0780000000F8780
F0780000000F8780
F0780000000F8780
F0780000000F8780
F0780000000F8780
0F80000000007800
0F80000000007800
0F80000000007800
0F80000000007800
F0780000000F8780
F0780000000F8780
F0780000000F8780
F0780000000F8780
F0780000000F8780
0F80000000007800
0F80000000007800
0F80000000007800
0F80000000007800
F0780000000F8780
F0780000000F8780
F0780000000F8780
F0780000000F8780
F0780000000F8780
0F80000000007800
0F80000000007800
0F80000000007800
0F80000000007800
F0780000000F8780
F0780000000F8780
F0780000000F8780
F0780000000F8780
0F80000000007800
0F80000000007800
0F80000000007800
0F80000000007800
0F80000000007800
F0780000000F8780
F0780000000F8780
F0780000000F8780
F0780000000F8780
0F80000000007800
0F80000000007800
0F80000000007800
0F80000000007800
0F80000000007800
F0780000000F8780
F0780000000F8780
F0780000000F8780
F0780000000F8780
0F87800000F07800
0F87800000F07800
0F87800000F07800
0F87800000F07800
0F87800000F07800
00787C3E1F0F8000
00787C3E1F0F8000
00787C3E1F0F8000
00787C3E1F0F8000
000783C1E0F00000
000783C1E0F00000
000783C1E0F00000
000783C1E0F00000
000783C1E0F00000
00007C3E1F000000
00007C3E1F000000
00007C3E1F000000
00007C3E1F000000
ENDCHAR
STARTCHAR 0056
ENCODING 86
SWIDTH 697 0
DWIDTH 62 0
BBX 49 67 7 0
BITMAP
F07800001F0F80
F07800001F0F80
F07800001F0F80
F07800001F0F80
F07800001F0F80
0F80000000F000
0F80000000F000
0F80000000F000
0F80000000F000
F07800001F0F80
F07800001F0F80
F07800001F0F80
F07800001F0F80
F07800001F0F80
0F80000000F000
0F80000000F000
0F80000000F000
0F80000000F000
F07800001F0F80
F07800001F0F80
F07800001F0F80
F07800001F0F80
F07800001F0F80
0F80000000F000
0F80000000F000
0F80000000F000
0F80000000F000
F07800001F0F80
F07800001F0F80
F07800001F0F80
F07800001F0F80
0F80000000F000
0F80000000F000
0F80000000F000
0F80000000F000
0F80000000F000
F07800001F0F80
F07800001F0F80
F07800001F0F80
F07800001F0F80
0F80000000F000
0F80000000F000
0F80000000F000
0F80000000F000
0F80000000F000
F07800001F0F80
F07800001F0F80
F07800001F0F80
F07800001F0F80
0F878001E0F000
0F878001E0F000
0F878001E0F000
0F878001E0F000
0F878001E0F000
00787C3E1F0000
00787C3E1F0000
00787C3E1F0000
00787C3E1F0000
000783C1E00000
000783C1E00000
000783C1E00000
000783C1E00000
000783C1E00000
00007C3E000000
00007C3E000000
00007C3E000000
00007C3E000000
ENDCHAR
STARTCHAR 0057
ENCODING 87
SWIDTH 1091 0
DWIDTH 97 0
BBX 84 67 7 0
BITMAP
F07800001F0F800001E0F0
F07800001F0F800001E0F0
F07800001F0F800001E0F0
F07800001F0F800001E0F0
F07800001F0F800001E0F0
0F80000000F00000001F00
0F80000000F00000001F00
0F80000000F00000001F00
0F80000000F00000001F00
F07800001F0F800001E0F0
F07800001F0F800001E0F0
F07800001F0F800001E0F0
F07800001F0F800001E0F0
F07800001F0F800001E0F0
0F80000000F00000001F00
0F80000000F00000001F00
0F80000000F00000001F00
0F80000000F00000001F00
F07800001F0F800001E0F0
F07800001F0F800001E0F0
F07800001F0F800001E0F0
F07800001F0F800001E0F0
F07800001F0F800001E0F0
0F80000000F00000001F00
0F80000000F00000001F00
0F80000000F00000001F00
0F80000000F00000001F00
F07800001F0F800001E0F0
F07800001F0F800001E0F0
F07800001F0F800001E0F0
F07800001F0F800001E0F0
0F80000000F00000001F00
0F80000000F00000001F00
0F80000000F00000001F00
0F80000000F00000001F00
0F80000000F00000001F00
F07800001F0F800001E0F0
F07800001F0F800001E0F0
F07800001F0F800001E0F0
F07800001F0F800001E0F0
0F80000000F00000001F00
0F80000000F00000001F00
0F80000000F00000001F00
0F80000000F00000001F00
0F80000000F00000001F00
F07800001F0F800001E0F0
F07800001F0F800001E0F0
F07800001F0F800001E0F0
F07800001F0F800001E0F0
0F878001E0F078003E1F00
0F878001E0F078003E1F00
0F878001E0F078003E1F00
0F878001E0F078003E1F00
0F878001E0F078003E1F00
00787C3E1F0F8783C1E000
00787C3E1F0F8783C1E000
00787C3E1F0F8783C1E000
00787C3E1F0F8783C1E000
000783C1E000787C3E0000
000783C1E000787C3E0000
000783C1E000787C3E0000
000783C1E000787C3E0000
000783C1E000787C3E0000
00007C3E00000783C00000
00007C3E00000783C00000
00007C3E00000783C00000
00007C3E00000783C00000
ENDCHAR
STARTCHAR 0058
ENCODING 88
SWIDTH 798 0
DWIDTH 71 0
BBX 57 67 7 0
BITMAP
F0780000000F8780
F0780000000F8780
F0780000000F8780
F0780000000F8780
F0780000000F8780
0F80000000007800
0F80000000007800
0F80000000007800
0F80000000007800
F0780000000F8780
F0780000000F8780
F0780000000F8780
F0780000000F8780
F0780000000F8780
0F80000000007800
0F80000000007800
0F80000000007800
0F80000000007800
F0780000000F8780
F0780000000F8780
F0780000000F8780
F0780000000F8780
F0780000000F8780
0F87800000F07800
0F87800000F07800
0F87800000F07800
0F87800000F07800
00787C3E1F0F8000
00787C3E1F0F8000
00787C3E1F0F8000
00787C3E1F0F8000
000783C1E0F00000
000783C1E0F00000
000783C1E0F00000
000783C1E0F00000
000783C1E0F00000
00787C3E1F0F8000
00787C3E1F0F8000
00787C3E1F0F8000
00787C3E1F0F8000
0F87800000F07800
0F87800000F07800
0F87800000F07800
0F87800000F07800
0F87800000F07800
F0780000000F8780
F0780000000F8780
F0780000000F8780
F0780000000F8780
0F80000000007800
0F80000000007800
0F80000000007800
0F80000000007800
0F80000000007800
F0780000000F8780
F0780000000F8780
F0780000000F8780
F0780000000F8780
0F80000000007800
0F80000000007800
0F80000000007800
0F80000000007800
0F80000000007800
F0780000000F8780
F0780000000F8780
F0780000000F8780
F0780000000F8780
ENDCHAR
STARTCHAR 0059
ENCODING 89
SWIDTH 697 0
DWIDTH 62 0
BBX 49 67 7 0
BITMAP
F07800001F0F80
F07800001F0F80
F07800001F0F80
F07800001F0F80
F07800001F0F80
0F80000000F000
0F80000000F000
0F80000000F000
0F80000000F000
F07800001F0F80
F07800001F0F80
F07800001F0F80
F07800001F0F80
F07800001F0F80
0F80000000F000
0F80000000F000
0F80000000F000
0F80000000F000
F07800001F0F80
F07800001F0F80
F07800001F0F80
F07800001F0F80
F07800001F0F80
0F80000000F000
0F80000000F000
0F80000000F000
0F80000000F000
F07800001F0F80
F07800001F0F80
F07800001F0F80
F07800001F0F80
0F878001E0F000
0F878001E0F000
0F878001E0F000
0F878001E0F000
0F878001E0F000
00787C3E1F0000
00787C3E1F0000
00787C3E1F0000
00787C3E1F0000
000783C1E00000
000783C1E00000
000783C1E00000
000783C1E00000
000783C1E00000
00007C3E000000
00007C3E000000
00007C3E000000
00007C3E000000
000003C0000000
000003C0000000
000003C0000000
000003C0000000
000003C0000000
00007C3E000000
00007C3E000000
00007C3E000000
00007C3E000000
000003C0000000
000003C0000000
000003C0000000
000003C0000000
000003C0000000
00007C3E000000
00007C3E000000
00007C3E000000
00007C3E000000
ENDCHAR
STARTCHAR 005A
ENCODING 90
SWIDTH 697 0
DWIDTH 62 0
BBX 49 67 7 0
BITMAP
F0787C3E1F0F80
F0787C3E1F0F80
F0787C3E1F0F80
F0787C3E1F0F80
F0787C3E1F0F80
0F8783C1E0F000
0F8783C1E0F000
0F8783C1E0F000
0F8783C1E0F000
F0787C3E1F0F80
F0787C3E1F0F80
F0787C3E1F0F80
F0787C3E1F0F80
F0787C3E1F0F80
00000001E0F000
00000001E0F000
00000001E0F000
00000001E0F000
0000003E1F0000
0000003E1F0000
0000003E1F0000
0000003E1F0000
0000003E1F0000
000003C1E00000
000003C1E00000
000003C1E00000
000003C1E00000
00007C3E000000
00007C3E000000
00007C3E000000
00007C3E000000
000783C0000000
000783C0000000
000783C0000000
000783C0000000
000783C0000000
00787C00000000
00787C00000000
00787C00000000
00787C00000000
0F878000000000
0F878000000000
0F878000000000
0F878000000000
0F878000000000
F0780000000000
F0780000000000
F0780000000000
F0780000000000
0F800000000000
0F800000000000
0F800000000000
0F800000000000
0F800000000000
F0787C3E1F0F80
F0787C3E1F0F80
F0787C3E1F0F80
F0787C3E1F0F80
0F8783C1E0F000
0F8783C1E0F000
0F8783C1E0F000
0F8783C1E0F000
0F8783C1E0F000
F0787C3E1F0F80
F0787C3E1F0F80
F0787C3E1F0F80
F0787C3E1F0F80
ENDCHAR
STARTCHAR 005B
ENCODING 91
SWIDTH 348 0
DWIDTH 31 0
BBX 22 102 7 -18
BITMAP
F0787C
F0787C
F0787C
F0787C
0F8780
0F8780
0F8780
0F8780
F0787C
F0787C
F0787C
F0787C
F0787C
0F8000
0F8000
0F8000
0F8000
F07800
F07800
F07800
F07800
F07800
0F8000
0F8000
0F8000
0F8000
F07800
F07800
F07800
F07800
F07800
0F8000
0F8000
0F8000
0F8000
F07800
F07800
F07800
F07800
F07800
0F8000
0F8000
0F8000
0F8000
F07800
F07800
F07800
F07800
0F8000
0F8000
0F8000
0F8000
0F8000
F07800
F07800
F07800
F07800
0F8000
0F8000
0F8000
0F8000
0F8000
F07800
F07800
F07800
F07800
0F8000
0F8000
0F8000
0F8000
0F8000
F07800
F07800
F07800
F07800
0F8000
0F8000
0F8000
0F8000
0F8000
F07800
F07800
F07800
F07800
0F8000
0F8000
0F8000
0F8000
F0787C
F0787C
F0787C
F0787C
F0787C
0F8780
0F8780
0F8780
0F8780
F0787C
F0787C
F0787C
F0787C
F0787C
ENDCHAR
STARTCHAR 005C
ENCODING 92
SWIDTH 393 0
DWIDTH 35 0
BBX 31 67 2 0
BITMAP
F87C0000
F87C0000
F87C0000
F87C0000
F87C0000
07800000
07800000
07800000
07800000
F87C0000
F87C0000
F87C0000
F87C0000
F87C0000
0783C000
0783C000
0783C000
0783C000
007C0000
007C0000
007C0000
007C0000
007C0000
0783C000
0783C000
0783C000
0783C000
007C3C00
007C3C00
007C3C00
007C3C00
0003C000
0003C000
0003C000
0003C000
0003C000
007C3C00
007C3C00
007C3C00
007C3C00
0003C3E0
0003C3E0
0003C3E0
0003C3E0
0003C3E0
00003C00
00003C00
00003C00
00003C00
0003C3E0
0003C3E0
0003C3E0
0003C3E0
0003C3E0
00003C1E
00003C1E
00003C1E
00003C1E
000003E0
000003E0
000003E0
000003E0
000003E0
00003C1E
00003C1E
00003C1E
00003C1E
ENDCHAR
STARTCHAR 005D
ENCODING 93
SWIDTH 348 0
DWIDTH 31 0
BBX 22 102 2 -18
BITMAP
F87C3C
F87C3C
F87C3C
F87C3C
0783C0
0783C0
0783C0
0783C0
F87C3C
F87C3C
F87C3C
F87C3C
F87C3C
0003C0
0003C0
0003C0
0003C0
007C3C
007C3C
007C3C
007C3C
007C3C
0003C0
0003C0
0003C0
0003C0
007C3C
007C3C
007C3C
007C3C
007C3C
0003C0
0003C0
0003C0
0003C0
007C3C
007C3C
007C3C
007C3C
007C3C
0003C0
0003C0
0003C0
0003C0
007C3C
007C3C
007C3C
007C3C
0003C0
0003C0
0003C0
0003C0
0003C0
007C3C
007C3C
007C3C
007C3C
0003C0
0003C0
0003C0
0003C0
0003C0
007C3C
007C3C
007C3C
007C3C
0003C0
0003C0
0003C0
0003C0
0003C0
007C3C
007C3C
007C3C
007C3C
0003C0
0003C0
0003C0
0003C0
0003C0
007C3C
007C3C
007C3C
007C3C
0003C0
0003C0
0003C0
0003C0
F87C3C
F87C3C
F87C3C
F87C3C
F87C3C
0783C0
0783C0
0783C0
0783C0
F87C3C
F87C3C
F87C3C
F87C3C
F87C3C
ENDCHAR
STARTCHAR 005F
ENCODING 95
SWIDTH 798 0
DWIDTH 71 0
BBX 67 13 2 -9
BITMAP
F87C3C1E0F0783C3E0
F87C3C1E0F0783C3E0
F87C3C1E0F0783C3E0
F87C3C1E0F0783C3E0
0783C3E1F0F87C3C00
0783C3E1F0F87C3C00
0783C3E1F0F87C3C00
0783C3E1F0F87C3C00
F87C3C1E0F0783C3E0
F87C3C1E0F0783C3E0
F87C3C1E0F0783C3E0
F87C3C1E0F0783C3E0
F87C3C1E0F0783C3E0
ENDCHAR
STARTCHAR 0060
ENCODING 96
SWIDTH 348 0
DWIDTH 31 0
BBX 31 22 -7 71
BITMAP
F87C0000
F87C0000
F87C0000
F87C0000
0783C000
0783C000
0783C000
0783C000
0783C000
007C3E00
007C3E00
007C3E00
007C3E00
0003C1E0
0003C1E0
0003C1E0
0003C1E0
00003E1E
00003E1E
00003E1E
00003E1E
00003E1E
ENDCHAR
STARTCHAR 0061
ENCODING 97
SWIDTH 697 0
DWIDTH 62 0
BBX 49 67 7 0
BITMAP
00787C3E1F0000
00787C3E1F0000
00787C3E1F0000
00787C3E1F0000
00787C3E1F0000
0F8783C1E0F000
0F8783C1E0F000
0F8783C1E0F000
0F8783C1E0F000
F0787C3E1F0F80
F0787C3E1F0F80
F0787C3E1F0F80
F0787C3E1F0F80
F0787C3E1F0F80
0F80000000F000
0F80000000F000
0F80000000F000
0F80000000F000
F07800001F0F80
F07800001F0F80
F07800001F0F80
F07800001F0F80
F07800001F0F80
0F80000000F000
0F80000000F000
0F80000000F000
0F80000000F000
F07800001F0F80
F07800001F0F80
F07800001F0F80
F07800001F0F80
0F80000000F000
0F80000000F000
0F80000000F000
0F80000000F000
0F80000000F000
F0787C3E1F0F80
F0787C3E1F0F80
F0787C3E1F0F80
F0787C3E1F0F80
0F8783C1E0F000
0F8783C1E0F000
0F8783C1E0F000
0F8783C1E0F000
0F8783C1E0F000
F0787C3E1F0F80
F0787C3E1F0F80
F0787C3E1F0F80
F0787C3E1F0F80
0F80000000F000
0F80000000F000
0F80000000F000
0F80000000F000
0F80000000F000
F07800001F0F80
F07800001F0F80
F07800001F0F80
F07800001F0F80
0F80000000F000
0F80000000F000
0F80000000F000
0F80000000F000
0F80000000F000
F07800001F0F80
F07800001F0F80
F07800001F0F80
F07800001F0F80
ENDCHAR
STARTCHAR 0062
ENCODING 98
SWIDTH 697 0
DWIDTH 62 0
BBX 49 67 7 0
BITMAP
F0787C3E1F0000
F0787C3E1F0000
F0787C3E1F0000
F0787C3E1F0000
F0787C3E1F0000
0F8783C1E0F000
0F8783C1E0F000
0F8783C1E0F000
0F8783C1E0F000
F0787C3E1F0F80
F0787C3E1F0F80
F0787C3E1F0F80
F0787C3E1F0F80
F0787C3E1F0F80
0F80000000F000
0F80000000F000
0F80000000F000
0F80000000F000
F07800001F0F80
F07800001F0F80
F07800001F0F80
F07800001F0F80
F07800001F0F80
0F800001E0F000
0F800001E0F000
0F800001E0F000
0F800001E0F000
F0787C3E1F0000
F0787C3E1F0000
F0787C3E1F0000
F0787C3E1F0000
0F8783C1E00000
0F8783C1E00000
0F8783C1E00000
0F8783C1E00000
0F8783C1E00000
F0787C3E1F0000
F0787C3E1F0000
F0787C3E1F0000
F0787C3E1F0000
0F800001E0F000
0F800001E0F000
0F800001E0F000
0F800001E0F000
0F800001E0F000
F07800001F0F80
F07800001F0F80
F07800001F0F80
F07800001F0F80
0F80000000F000
0F80000000F000
0F80000000F000
0F80000000F000
0F80000000F000
F0787C3E1F0F80
F0787C3E1F0F80
F0787C3E1F0F80
F0787C3E1F0F80
0F8783C1E0F000
0F8783C1E0F000
0F8783C1E0F000
0F8783C1E0F000
0F8783C1E0F000
F0787C3E1F0000
F0787C3E1F0000
F0787C3E1F0000
F0787C3E1F0000
ENDCHAR
STARTCHAR 0063
ENCODING 99
SWIDTH 697 0
DWIDTH 62 0
BBX 49 67 7 0
BITMAP
00787C3E1F0000
00787C3E1F0000
00787C3E1F0000
00787C3E1F0000
00787C3E1F0000
0F8783C1E0F000
0F8783C1E0F000
0F8783C1E0F000
0F8783C1E0F000
F0787C3E1F0F80
F0787C3E1F0F80
F0787C3E1F0F80
F0787C3E1F0F80
F0787C3E1F0F80
0F80000000F000
0F80000000F000
0F80000000F000
0F80000000F000
F07800001F0F80
F07800001F0F80
F07800001F0F80
F07800001F0F80
F07800001F0F80
0F80000000F000
0F80000000F000
0F80000000F000
0F80000000F000
F07800001F0F80
F07800001F0F80
F07800001F0F80
F07800001F0F80
0F800000000000
0F800000000000
0F800000000000
0F800000000000
0F800000000000
F0780000000000
F0780000000000
F0780000000000
F0780000000000
0F800000000000
0F800000000000
0F800000000000
0F800000000000
0F800000000000
F07800001F0F80
F07800001F0F80
F07800001F0F80
F07800001F0F80
0F80000000F000
0F80000000F000
0F80000000F000
0F80000000F000
0F80000000F000
F0787C3E1F0F80
F0787C3E1F0F80
F0787C3E1F0F80
F0787C3E1F0F80
0F8783C1E0F000
0F8783C1E0F000
0F8783C1E0F000
0F8783C1E0F000
0F8783C1E0F000
00787C3E1F0000
00787C3E1F0000
00787C3E1F0000
00787C3E1F0000
ENDCHAR
STARTCHAR 0064
ENCODING 100
SWIDTH 697 0
DWIDTH 62 0
BBX 49 67 7 0
BITMAP
F0787C3E1F0000
F0787C3E1F0000
F0787C3E1F0000
F0787C3E1F0000
F0787C3E1F0000
0F8783C1E0F000
0F8783C1E0F000
0F8783C1E0F000
0F8783C1E0F000
F0787C3E1F0F80
F0787C3E1F0F80
F0787C3E1F0F80
F0787C3E1F0F80
F0787C3E1F0F80
0F80000000F000
0F80000000F000
0F80000000F000
0F80000000F000
F07800001F0F80
F07800001F0F80
F07800001F0F80
F07800001F0F80
F07800001F0F80
0F80000000F000
0F80000000F000
0F80000000F000
0F80000000F000
F07800001F0F80
F07800001F0F80
F07800001F0F80
F07800001F0F80
0F80000000F000
0F80000000F000
0F80000000F000
0F80000000F000
0F80000000F000
F07800001F0F80
F07800001F0F80
F07800001F0F80
F07800001F0F80
0F80000000F000
0F80000000F000
0F80000000F000
0F80000000F000
0F80000000F000
F07800001F0F80
F07800001F0F80
F07800001F0F80
F07800001F0F80
0F80000000F000
0F80000000F000
0F80000000F000
0F80000000F000
0F80000000F000
F0787C3E1F0F80
F0787C3E1F0F80
F0787C3E1F0F80
F0787C3E1F0F80
0F8783C1E0F000
0F8783C1E0F000
0F8783C1E0F000
0F8783C1E0F000
0F8783C1E0F000
F0787C3E1F0000
F0787C3E1F0000
F0787C3E1F0000
F0787C3E1F0000
ENDCHAR
STARTCHAR 0065
ENCODING 101
SWIDTH 697 0
DWIDTH 62 0
BBX 49 67 7 0
BITMAP
00787C3E1F0F80
00787C3E1F0F80
00787C3E1F0F80
00787C3E1F0F80
00787C3E1F0F80
0F8783C1E0F000
0F8783C1E0F000
0F8783C1E0F000
0F8783C1E0F000
F0787C3E1F0F80
F0787C3E1F0F80
F0787C3E1F0F80
F0787C3E1F0F80
F0787C3E1F0F80
0F800000000000
0F800000000000
0F800000000000
0F800000000000
F0780000000000
F0780000000000
F0780000000000
F0780000000000
F0780000000000
0F800000000000
0F800000000000
0F800000000000
0F800000000000
F0787C3E1F0000
F0787C3E1F0000
F0787C3E1F0000
F0787C3E1F0000
0F8783C1E00000
0F8783C1E00000
0F8783C1E00000
0F8783C1E00000
0F8783C1E00000
F0787C3E1F0000
F0787C3E1F0000
F0787C3E1F0000
F0787C3E1F0000
0F800000000000
0F800000000000
0F800000000000
0F800000000000
0F800000000000
F0780000000000
F0780000000000
F0780000000000
F0780000000000
0F800000000000
0F800000000000
0F800000000000
0F800000000000
0F800000000000
F0787C3E1F0F80
F0787C3E1F0F80
F0787C3E1F0F80
F0787C3E1F0F80
0F8783C1E0F000
0F8783C1E0F000
0F8783C1E0F000
0F8783C1E0F000
0F8783C1E0F000
00787C3E1F0F80
00787C3E1F0F80
00787C3E1F0F80
00787C3E1F0F80
ENDCHAR
STARTCHAR 0066
ENCODING 102
SWIDTH 697 0
DWIDTH 62 0
BBX 49 67 7 0
BITMAP
00787C3E1F0F80
00787C3E1F0F80
00787C3E1F0F80
00787C3E1F0F80
00787C3E1F0F80
0F8783C1E0F000
0F8783C1E0F000
0F8783C1E0F000
0F8783C1E0F000
F0787C3E1F0F80
F0787C3E1F0F80
F0787C3E1F0F80
F0787C3E1F0F80
F0787C3E1F0F80
0F800000000000
0F800000000000
0F800000000000
0F800000000000
F0780000000000
F0780000000000
F0780000000000
F0780000000000
F0780000000000
0F800000000000
0F800000000000
0F800000000000
0F800000000000
F0787C3E1F0000
F0787C3E1F0000
F0787C3E1F0000
F0787C3E1F0000
0F8783C1E00000
0F8783C1E00000
0F8783C1E00000
0F8783C1E00000
0F8783C1E00000
F0787C3E1F0000
F0787C3E1F0000
F0787C3E1F0000
F0787C3E1F0000
0F800000000000
0F800000000000
0F800000000000
0F800000000000
0F800000000000
F0780000000000
F0780000000000
F0780000000000
F0780000000000
0F800000000000
0F800000000000
0F800000000000
0F800000000000
0F800000000000
F0780000000000
F0780000000000
F0780000000000
F0780000000000
0F800000000000
0F800000000000
0F800000000000
0F800000000000
0F800000000000
F0780000000000
F0780000000000
F0780000000000
F0780000000000
ENDCHAR
STARTCHAR 0067
ENCODING 103
SWIDTH 697 0
DWIDTH 62 0
BBX 49 67 7 0
BITMAP
00787C3E1F0F80
00787C3E1F0F80
00787C3E1F0F80
00787C3E1F0F80
00787C3E1F0F80
0F8783C1E0F000
0F8783C1E0F000
0F8783C1E0F000
0F8783C1E0F000
F0787C3E1F0F80
F0787C3E1F0F80
F0787C3E1F0F80
F0787C3E1F0F80
F0787C3E1F0F80
0F800000000000
0F800000000000
0F800000000000
0F800000000000
F0780000000000
F0780000000000
F0780000000000
F0780000000000
F0780000000000
0F800000000000
0F800000000000
0F800000000000
0F800000000000
F078003E1F0F80
F078003E1F0F80
F078003E1F0F80
F078003E1F0F80
0F800001E0F000
0F800001E0F000
0F800001E0F000
0F800001E0F000
0F800001E0F000
F078003E1F0F80
F078003E1F0F80
F078003E1F0F80
F078003E1F0F80
0F80000000F000
0F80000000F000
0F80000000F000
0F80000000F000
0F80000000F000
F07800001F0F80
F07800001F0F80
F07800001F0F80
F07800001F0F80
0F80000000F000
0F80000000F000
0F80000000F000
0F80000000F000
0F80000000F000
F0787C3E1F0F80
F0787C3E1F0F80
F0787C3E1F0F80
F0787C3E1F0F80
0F8783C1E0F000
0F8783C1E0F000
0F8783C1E0F000
0F8783C1E0F000
0F8783C1E0F000
00787C3E1F0000
00787C3E1F0000
00787C3E1F0000
00787C3E1F0000
ENDCHAR
STARTCHAR 0068
ENCODING 104
SWIDTH 697 0
DWIDTH 62 0
BBX 49 67 7 0
BITMAP
F07800001F0F80
F07800001F0F80
F07800001F0F80
F07800001F0F80
F07800001F0F80
0F80000000F000
0F80000000F000
0F80000000F000
0F80000000F000
F07800001F0F80
F07800001F0F80
F07800001F0F80
F07800001F0F80
F07800001F0F80
0F80000000F000
0F80000000F000
0F80000000F000
0F80000000F000
F07800001F0F80
F07800001F0F80
F07800001F0F80
F07800001F0F80
F07800001F0F80
0F80000000F000
0F80000000F000
0F80000000F000
0F80000000F000
F0787C3E1F0F80
F0787C3E1F0F80
F0787C3E1F0F80
F0787C3E1F0F80
0F8783C1E0F000
0F8783C1E0F000
0F8783C1E0F000
0F8783C1E0F000
0F8783C1E0F000
F0787C3E1F0F80
F0787C3E1F0F80
F0787C3E1F0F80
F0787C3E1F0F80
0F80000000F000
0F80000000F000
0F80000000F000
0F80000000F000
0F80000000F000
F07800001F0F80
F07800001F0F80
F07800001F0F80
F07800001F0F80
0F80000000F000
0F80000000F000
0F80000000F000
0F80000000F000
0F80000000F000
F07800001F0F80
F07800001F0F80
F07800001F0F80
F07800001F0F80
0F80000000F000
0F80000000F000
0F80000000F000
0F80000000F000
0F80000000F000
F07800001F0F80
F07800001F0F80
F07800001F0F80
F07800001F0F80
ENDCHAR
STARTCHAR 0069
ENCODING 105
SWIDTH 292 0
DWIDTH 26 0
BBX 13 67 7 0
BITMAP
F078
F078
F078
F078
F078
0F80
0F80
0F80
0F80
F078
F078
F078
F078
F078
0F80
0F80
0F80
0F80
F078
F078
F078
F078
F078
0F80
0F80
0F80
0F80
F078
F078
F078
F078
0F80
0F80
0F80
0F80
0F80
F078
F078
F078
F078
0F80
0F80
0F80
0F80
0F80
F078
F078
F078
F078
0F80
0F80
0F80
0F80
0F80
F078
F078
F078
F078
0F80
0F80
0F80
0F80
0F80
F078
F078
F078
F078
ENDCHAR
STARTCHAR 006A
ENCODING 106
SWIDTH 495 0
DWIDTH 44 0
BBX 31 67 7 0
BITMAP
00007C3E
00007C3E
00007C3E
00007C3E
00007C3E
000003C0
000003C0
000003C0
000003C0
00007C3E
00007C3E
00007C3E
00007C3E
00007C3E
000003C0
000003C0
000003C0
000003C0
00007C3E
00007C3E
00007C3E
00007C3E
00007C3E
000003C0
000003C0
000003C0
000003C0
00007C3E
00007C3E
00007C3E
00007C3E
000003C0
000003C0
000003C0
000003C0
000003C0
00007C3E
00007C3E
00007C3E
00007C3E
000003C0
000003C0
000003C0
000003C0
000003C0
00007C3E
00007C3E
00007C3E
00007C3E
000003C0
000003C0
000003C0
000003C0
000003C0
F0787C3E
F0787C3E
F0787C3E
F0787C3E
0F8783C0
0F8783C0
0F8783C0
0F8783C0
0F8783C0
F0787C00
F0787C00
F0787C00
F0787C00
ENDCHAR
STARTCHAR 006B
ENCODING 107
SWIDTH 697 0
DWIDTH 62 0
BBX 49 67 7 0
BITMAP
F07800001F0F80
F07800001F0F80
F07800001F0F80
F07800001F0F80
F07800001F0F80
0F80000000F000
0F80000000F000
0F80000000F000
0F80000000F000
F07800001F0F80
F07800001F0F80
F07800001F0F80
F07800001F0F80
F07800001F0F80
0F80000000F000
0F80000000F000
0F80000000F000
0F80000000F000
F07800001F0F80
F07800001F0F80
F07800001F0F80
F07800001F0F80
F07800001F0F80
0F800001E0F000
0F800001E0F000
0F800001E0F000
0F800001E0F000
F0787C3E1F0000
F0787C3E1F0000
F0787C3E1F0000
F0787C3E1F0000
0F8783C1E00000
0F8783C1E00000
0F8783C1E00000
0F8783C1E00000
0F8783C1E00000
F0787C3E1F0000
F0787C3E1F0000
F0787C3E1F0000
F0787C3E1F0000
0F800001E0F000
0F800001E0F000
0F800001E0F000
0F800001E0F000
0F800001E0F000
F07800001F0F80
F07800001F0F80
F07800001F0F80
F07800001F0F80
0F80000000F000
0F80000000F000
0F80000000F000
0F80000000F000
0F80000000F000
F07800001F0F80
F07800001F0F80
F07800001F0F80
F07800001F0F80
0F80000000F000
0F80000000F000
0F80000000F000
0F80000000F000
0F80000000F000
F07800001F0F80
F07800001F0F80
F07800001F0F80
F07800001F0F80
ENDCHAR
STARTCHAR 006C
ENCODING 108
SWIDTH 596 0
DWIDTH 53 0
BBX 40 67 7 0
BITMAP
F078000000
F078000000
F078000000
F078000000
F078000000
0F80000000
0F80000000
0F80000000
0F80000000
F078000000
F078000000
F078000000
F078000000
F078000000
0F80000000
0F80000000
0F80000000
0F80000000
F078000000
F078000000
F078000000
F078000000
F078000000
0F80000000
0F80000000
0F80000000
0F80000000
F078000000
F078000000
F078000000
F078000000
0F80000000
0F80000000
0F80000000
0F80000000
0F80000000
F078000000
F078000000
F078000000
F078000000
0F80000000
0F80000000
0F80000000
0F80000000
0F80000000
F078000000
F078000000
F078000000
F078000000
0F80000000
0F80000000
0F80000000
0F80000000
0F80000000
F0787C3E1F
F0787C3E1F
F0787C3E1F
F0787C3E1F
0F8783C1E0
0F8783C1E0
0F8783C1E0
0F8783C1E0
0F8783C1E0
00787C3E1F
00787C3E1F
00787C3E1F
00787C3E1F
ENDCHAR
STARTCHAR 006D
ENCODING 109
SWIDTH 900 0
DWIDTH 80 0
BBX 66 67 7 0
BITMAP
F078000000000783C0
F078000000000783C0
F078000000000783C0
F078000000000783C0
F078000000000783C0
0F8780000000787C00
0F8780000000787C00
0F8780000000787C00
0F8780000000787C00
F0787C00000F8783C0
F0787C00000F8783C0
F0787C00000F8783C0
F0787C00000F8783C0
F0787C00000F8783C0
0F8783C000F0787C00
0F8783C000F0787C00
0F8783C000F0787C00
0F8783C000F0787C00
F0787C3E1F0F8783C0
F0787C3E1F0F8783C0
F0787C3E1F0F8783C0
F0787C3E1F0F8783C0
F0787C3E1F0F8783C0
0F8003C1E0F0007C00
0F8003C1E0F0007C00
0F8003C1E0F0007C00
0F8003C1E0F0007C00
F078003E1F000783C0
F078003E1F000783C0
F078003E1F000783C0
F078003E1F000783C0
0F800001E000007C00
0F800001E000007C00
0F800001E000007C00
0F800001E000007C00
0F800001E000007C00
F078000000000783C0
F078000000000783C0
F078000000000783C0
F078000000000783C0
0F8000000000007C00
0F8000000000007C00
0F8000000000007C00
0F8000000000007C00
0F8000000000007C00
F078000000000783C0
F078000000000783C0
F078000000000783C0
F078000000000783C0
0F8000000000007C00
0F8000000000007C00
0F8000000000007C00
0F8000000000007C00
0F8000000000007C00
F078000000000783C0
F078000000000783C0
F078000000000783C0
F078000000000783C0
0F8000000000007C00
0F8000000000007C00
0F8000000000007C00
0F8000000000007C00
0F8000000000007C00
F078000000000783C0
F078000000000783C0
F078000000000783C0
F078000000000783C0
ENDCHAR
STARTCHAR 006E
ENCODING 110
SWIDTH 697 0
DWIDTH 62 0
BBX 49 67 7 0
BITMAP
F07800001F0F80
F07800001F0F80
F07800001F0F80
F07800001F0F80
F07800001F0F80
0F87800000F000
0F87800000F000
0F87800000F000
0F87800000F000
F0787C001F0F80
F0787C001F0F80
F0787C001F0F80
F0787C001F0F80
F0787C001F0F80
0F8783C000F000
0F8783C000F000
0F8783C000F000
0F8783C000F000
F0787C3E1F0F80
F0787C3E1F0F80
F0787C3E1F0F80
F0787C3E1F0F80
F0787C3E1F0F80
0F8003C1E0F000
0F8003C1E0F000
0F8003C1E0F000
0F8003C1E0F000
F078003E1F0F80
F078003E1F0F80
F078003E1F0F80
F078003E1F0F80
0F800001E0F000
0F800001E0F000
0F800001E0F000
0F800001E0F000
0F800001E0F000
F07800001F0F80
F07800001F0F80
F07800001F0F80
F07800001F0F80
0F80000000F000
0F80000000F000
0F80000000F000
0F80000000F000
0F80000000F000
F07800001F0F80
F07800001F0F80
F07800001F0F80
F07800001F0F80
0F80000000F000
0F80000000F000
0F80000000F000
0F80000000F000
0F80000000F000
F07800001F0F80
F07800001F0F80
F07800001F0F80
F07800001F0F80
0F80000000F000
0F80000000F000
0F80000000F000
0F80000000F000
0F80000000F000
F07800001F0F80
F07800001F0F80
F07800001F0F80
F07800001F0F80
ENDCHAR
STARTCHAR 006F
ENCODING 111
SWIDTH 697 0
DWIDTH 62 0
BBX 49 67 7 0
BITMAP
00787C3E1F0000
00787C3E1F0000
00787C3E1F0000
00787C3E1F0000
00787C3E1F0000
0F8783C1E0F000
0F8783C1E0F000
0F8783C1E0F000
0F8783C1E0F000
F0787C3E1F0F80
F0787C3E1F0F80
F0787C3E1F0F80
F0787C3E1F0F80
F0787C3E1F0F80
0F80000000F000
0F80000000F000
0F80000000F000
0F80000000F000
F07800001F0F80
F07800001F0F80
F07800001F0F80
F07800001F0F80
F07800001F0F80
0F80000000F000
0F80000000F000
0F80000000F000
0F80000000F000
F07800001F0F80
F07800001F0F80
F07800001F0F80
F07800001F0F80
0F80000000F000
0F80000000F000
0F80000000F000
0F80000000F000
0F80000000F000
F07800001F0F80
F07800001F0F80
F07800001F0F80
F07800001F0F80
0F80000000F000
0F80000000F000
0F80000000F000
0F80000000F000
0F80000000F000
F07800001F0F80
F07800001F0F80
F07800001F0F80
F07800001F0F80
0F80000000F000
0F80000000F000
0F80000000F000
0F80000000F000
0F80000000F000
F0787C3E1F0F80
F0787C3E1F0F80
F0787C3E1F0F80
F0787C3E1F0F80
0F8783C1E0F000
0F8783C1E0F000
0F8783C1E0F000
0F8783C1E0F000
0F8783C1E0F000
00787C3E1F0000
00787C3E1F0000
00787C3E1F0000
00787C3E1F0000
ENDCHAR
STARTCHAR 0070
ENCODING 112
SWIDTH 697 0
DWIDTH 62 0
BBX 49 67 7 0
BITMAP
F0787C3E1F0000
F0787C3E1F0000
F0787C3E1F0000
F0787C3E1F0000
F0787C3E1F0000
0F8783C1E0F000
0F8783C1E0F000
0F8783C1E0F000
0F8783C1E0F000
F0787C3E1F0F80
F0787C3E1F0F80
F0787C3E1F0F80
F0787C3E1F0F80
F0787C3E1F0F80
0F80000000F000
0F80000000F000
0F80000000F000
0F80000000F000
F07800001F0F80
F07800001F0F80
F07800001F0F80
F07800001F0F80
F07800001F0F80
0F80000000F000
0F80000000F000
0F80000000F000
0F80000000F000
F07800001F0F80
F07800001F0F80
F07800001F0F80
F07800001F0F80
0F80000000F000
0F80000000F000
0F80000000F000
0F80000000F000
0F80000000F000
F0787C3E1F0F80
F0787C3E1F0F80
F0787C3E1F0F80
F0787C3E1F0F80
0F8783C1E0F000
0F8783C1E0F000
0F8783C1E0F000
0F8783C1E0F000
0F8783C1E0F000
F0787C3E1F0000
F0787C3E1F0000
F0787C3E1F0000
F0787C3E1F0000
0F800000000000
0F800000000000
0F800000000000
0F800000000000
0F800000000000
F0780000000000
F0780000000000
F0780000000000
F0780000000000
0F800000000000
0F800000000000
0F800000000000
0F800000000000
0F800000000000
F0780000000000
F0780000000000
F0780000000000
F0780000000000
ENDCHAR
STARTCHAR 0071
ENCODING 113
SWIDTH 697 0
DWIDTH 62 0
BBX 49 76 7 -9
BITMAP
00787C3E1F0000
00787C3E1F0000
00787C3E1F0000
00787C3E1F0000
00787C3E1F0000
0F8783C1E0F000
0F8783C1E0F000
0F8783C1E0F000
0F8783C1E0F000
F0787C3E1F0F80
F0787C3E1F0F80
F0787C3E1F0F80
F0787C3E1F0F80
F0787C3E1F0F80
0F80000000F000
0F80000000F000
0F80000000F000
0F80000000F000
F07800001F0F80
F07800001F0F80
F07800001F0F80
F07800001F0F80
F07800001F0F80
0F80000000F000
0F80000000F000
0F80000000F000
0F80000000F000
F07800001F0F80
F07800001F0F80
F07800001F0F80
F07800001F0F80
0F80000000F000
0F80000000F000
0F80000000F000
0F80000000F000
0F80000000F000
F07800001F0F80
F07800001F0F80
F07800001F0F80
F07800001F0F80
0F80000000F000
0F80000000F000
0F80000000F000
0F80000000F000
0F80000000F000
F07800001F0F80
F07800001F0F80
F07800001F0F80
F07800001F0F80
0F80000000F000
0F80000000F000
0F80000000F000
0F80000000F000
0F80000000F000
F0787C3E1F0F80
F0787C3E1F0F80
F0787C3E1F0F80
F0787C3E1F0F80
0F8783C1E0F000
0F8783C1E0F000
0F8783C1E0F000
0F8783C1E0F000
0F8783C1E0F000
00787C3E1F0000
00787C3E1F0000
00787C3E1F0000
00787C3E1F0000
00000001E0F000
00000001E0F000
00000001E0F000
00000001E0F000
000000001F0F80
000000001F0F80
000000001F0F80
000000001F0F80
000000001F0F80
ENDCHAR
STARTCHAR 0072
ENCODING 114
SWIDTH 697 0
DWIDTH 62 0
BBX 49 67 7 0
BITMAP
F0787C3E1F0000
F0787C3E1F0000
F0787C3E1F0000
F0787C3E1F0000
F0787C3E1F0000
0F8783C1E0F000
0F8783C1E0F000
0F8783C1E0F000
0F8783C1E0F000
F0787C3E1F0F80
F0787C3E1F0F80
F0787C3E1F0F80
F0787C3E1F0F80
F0787C3E1F0F80
0F80000000F000
0F80000000F000
0F80000000F000
0F80000000F000
F07800001F0F80
F07800001F0F80
F07800001F0F80
F07800001F0F80
F07800001F0F80
0F80000000F000
0F80000000F000
0F80000000F000
0F80000000F000
F07800001F0F80
F07800001F0F80
F07800001F0F80
F07800001F0F80
0F80000000F000
0F80000000F000
0F80000000F000
0F80000000F000
0F80000000F000
F0787C3E1F0F80
F0787C3E1F0F80
F0787C3E1F0F80
F0787C3E1F0F80
0F8783C1E0F000
0F8783C1E0F000
0F8783C1E0F000
0F8783C1E0F000
0F8783C1E0F000
F0787C3E1F0000
F0787C3E1F0000
F0787C3E1F0000
F0787C3E1F0000
0F800001E0F000
0F800001E0F000
0F800001E0F000
0F800001E0F000
0F800001E0F000
F07800001F0F80
F07800001F0F80
F07800001F0F80
F07800001F0F80
0F80000000F000
0F80000000F000
0F80000000F000
0F80000000F000
0F80000000F000
F07800001F0F80
F07800001F0F80
F07800001F0F80
F07800001F0F80
ENDCHAR
STARTCHAR 0073
ENCODING 115
SWIDTH 697 0
DWIDTH 62 0
BBX 49 67 7 0
BITMAP
00787C3E1F0000
00787C3E1F0000
00787C3E1F0000
00787C3E1F0000
00787C3E1F0000
0F8783C1E0F000
0F8783C1E0F000
0F8783C1E0F000
0F8783C1E0F000
F0787C3E1F0F80
F0787C3E1F0F80
F0787C3E1F0F80
F0787C3E1F0F80
F0787C3E1F0F80
0F80000000F000
0F80000000F000
0F80000000F000
0F80000000F000
F07800001F0F80
F07800001F0F80
F07800001F0F80
F07800001F0F80
F07800001F0F80
0F800000000000
0F800000000000
0F800000000000
0F800000000000
F0787C3E1F0000
F0787C3E1F0000
F0787C3E1F0000
F0787C3E1F0000
0F8783C1E0F000
0F8783C1E0F000
0F8783C1E0F000
0F8783C1E0F000
0F8783C1E0F000
00787C3E1F0F80
00787C3E1F0F80
00787C3E1F0F80
00787C3E1F0F80
0000000000F000
0000000000F000
0000000000F000
0000000000F000
0000000000F000
F07800001F0F80
F07800001F0F80
F07800001F0F80
F07800001F0F80
0F80000000F000
0F80000000F000
0F80000000F000
0F80000000F000
0F80000000F000
F0787C3E1F0F80
F0787C3E1F0F80
F0787C3E1F0F80
F0787C3E1F0F80
0F8783C1E0F000
0F8783C1E0F000
0F8783C1E0F000
0F8783C1E0F000
0F8783C1E0F000
00787C3E1F0000
00787C3E1F0000
00787C3E1F0000
00787C3E1F0000
ENDCHAR
STARTCHAR 0074
ENCODING 116
SWIDTH 697 0
DWIDTH 62 0
BBX 49 67 7 0
BITMAP
F0787C3E1F0F80
F0787C3E1F0F80
F0787C3E1F0F80
F0787C3E1F0F80
F0787C3E1F0F80
0F8783C1E0F000
0F8783C1E0F000
0F8783C1E0F000
0F8783C1E0F000
F0787C3E1F0F80
F0787C3E1F0F80
F0787C3E1F0F80
F0787C3E1F0F80
F0787C3E1F0F80
000003C0000000
000003C0000000
000003C0000000
000003C0000000
00007C3E000000
00007C3E000000
00007C3E000000
00007C3E000000
00007C3E000000
000003C0000000
000003C0000000
000003C0000000
000003C0000000
00007C3E000000
00007C3E000000
00007C3E000000
00007C3E000000
000003C0000000
000003C0000000
000003C0000000
000003C0000000
000003C0000000
00007C3E000000
00007C3E000000
00007C3E000000
00007C3E000000
000003C0000000
000003C0000000
000003C0000000
000003C0000000
000003C0000000
00007C3E000000
00007C3E000000
00007C3E000000
00007C3E000000
000003C0000000
000003C0000000
000003C0000000
000003C0000000
000003C0000000
00007C3E000000
00007C3E000000
00007C3E000000
00007C3E000000
000003C0000000
000003C0000000
000003C0000000
000003C0000000
000003C0000000
00007C3E000000
00007C3E000000
00007C3E000000
00007C3E000000
ENDCHAR
STARTCHAR 0075
ENCODING 117
SWIDTH 697 0
DWIDTH 62 0
BBX 49 67 7 0
BITMAP
F07800001F0F80
F07800001F0F80
F07800001F0F80
F07800001F0F80
F07800001F0F80
0F80000000F000
0F80000000F000
0F80000000F000
0F80000000F000
F07800001F0F80
F07800001F0F80
F07800001F0F80
F07800001F0F80
F07800001F0F80
0F80000000F000
0F80000000F000
0F80000000F000
0F80000000F000
F07800001F0F80
F07800001F0F80
F07800001F0F80
F07800001F0F80
F07800001F0F80
0F80000000F000
0F80000000F000
0F80000000F000
0F80000000F000
F07800001F0F80
F07800001F0F80
F07800001F0F80
F07800001F0F80
0F80000000F000
0F80000000F000
0F80000000F000
0F80000000F000
0F80000000F000
F07800001F0F80
F07800001F0F80
F07800001F0F80
F07800001F0F80
0F80000000F000
0F80000000F000
0F80000000F000
0F80000000F000
0F80000000F000
F07800001F0F80
F07800001F0F80
F07800001F0F80
F07800001F0F80
0F80000000F000
0F80000000F000
0F80000000F000
0F80000000F000
0F80000000F000
F0787C3E1F0F80
F0787C3E1F0F80
F0787C3E1F0F80
F0787C3E1F0F80
0F8783C1E0F000
0F8783C1E0F000
0F8783C1E0F000
0F8783C1E0F000
0F8783C1E0F000
00787C3E1F0000
00787C3E1F0000
00787C3E1F0000
00787C3E1F0000
ENDCHAR
STARTCHAR 0076
ENCODING 118
SWIDTH 697 0
DWIDTH 62 0
BBX 49 67 7 0
BITMAP
F07800001F0F80
F07800001F0F80
F07800001F0F80
F07800001F0F80
F07800001F0F80
0F80000000F000
0F80000000F000
0F80000000F000
0F80000000F000
F07800001F0F80
F07800001F0F80
F07800001F0F80
F07800001F0F80
F07800001F0F80
0F80000000F000
0F80000000F000
0F80000000F000
0F80000000F000
F07800001F0F80
F07800001F0F80
F07800001F0F80
F07800001F0F80
F07800001F0F80
0F80000000F000
0F80000000F000
0F80000000F000
0F80000000F000
F07800001F0F80
F07800001F0F80
F07800001F0F80
F07800001F0F80
0F80000000F000
0F80000000F000
0F80000000F000
0F80000000F000
0F80000000F000
F07800001F0F80
F07800001F0F80
F07800001F0F80
F07800001F0F80
0F80000000F000
0F80000000F000
0F80000000F000
0F80000000F000
0F80000000F000
F07800001F0F80
F07800001F0F80
F07800001F0F80
F07800001F0F80
0F878001E0F000
0F878001E0F000
0F878001E0F000
0F878001E0F000
0F878001E0F000
00787C3E1F0000
00787C3E1F0000
00787C3E1F0000
00787C3E1F0000
000783C1E00000
000783C1E00000
000783C1E00000
000783C1E00000
000783C1E00000
00007C3E000000
00007C3E000000
00007C3E000000
00007C3E000000
ENDCHAR
STARTCHAR 0077
ENCODING 119
SWIDTH 1091 0
DWIDTH 97 0
BBX 84 67 7 0
BITMAP
F07800001F0F800001E0F0
F07800001F0F800001E0F0
F07800001F0F800001E0F0
F07800001F0F800001E0F0
F07800001F0F800001E0F0
0F80000000F00000001F00
0F80000000F00000001F00
0F80000000F00000001F00
0F80000000F00000001F00
F07800001F0F800001E0F0
F07800001F0F800001E0F0
F07800001F0F800001E0F0
F07800001F0F800001E0F0
F07800001F0F800001E0F0
0F80000000F00000001F00
0F80000000F00000001F00
0F80000000F00000001F00
0F80000000F00000001F00
F07800001F0F800001E0F0
F07800001F0F800001E0F0
F07800001F0F800001E0F0
F07800001F0F800001E0F0
F07800001F0F800001E0F0
0F80000000F00000001F00
0F80000000F00000001F00
0F80000000F00000001F00
0F80000000F00000001F00
F07800001F0F800001E0F0
F07800001F0F800001E0F0
F07800001F0F800001E0F0
F07800001F0F800001E0F0
0F80000000F00000001F00
0F80000000F00000001F00
0F80000000F00000001F00
0F80000000F00000001F00
0F80000000F00000001F00
F07800001F0F800001E0F0
F07800001F0F800001E0F0
F07800001F0F800001E0F0
F07800001F0F800001E0F0
0F80000000F00000001F00
0F80000000F00000001F00
0F80000000F00000001F00
0F80000000F00000001F00
0F80000000F00000001F00
F07800001F0F800001E0F0
F07800001F0F800001E0F0
F07800001F0F800001E0F0
F07800001F0F800001E0F0
0F800001E0F07800001F00
0F800001E0F07800001F00
0F800001E0F07800001F00
0F800001E0F07800001F00
0F800001E0F07800001F00
F0787C3E1F0F8783C1E0F0
F0787C3E1F0F8783C1E0F0
F0787C3E1F0F8783C1E0F0
F0787C3E1F0F8783C1E0F0
0F8783C1E000787C3E1F00
0F8783C1E000787C3E1F00
0F8783C1E000787C3E1F00
0F8783C1E000787C3E1F00
0F8783C1E000787C3E1F00
00787C3E00000783C1E000
00787C3E00000783C1E000
00787C3E00000783C1E000
00787C3E00000783C1E000
ENDCHAR
STARTCHAR 0078
ENCODING 120
SWIDTH 697 0
DWIDTH 62 0
BBX 49 67 7 0
BITMAP
F07800001F0F80
F07800001F0F80
F07800001F0F80
F07800001F0F80
F07800001F0F80
0F80000000F000
0F80000000F000
0F80000000F000
0F80000000F000
F07800001F0F80
F07800001F0F80
F07800001F0F80
F07800001F0F80
F07800001F0F80
0F80000000F000
0F80000000F000
0F80000000F000
0F80000000F000
F07800001F0F80
F07800001F0F80
F07800001F0F80
F07800001F0F80
F07800001F0F80
0F878001E0F000
0F878001E0F000
0F878001E0F000
0F878001E0F000
00787C3E1F0000
00787C3E1F0000
00787C3E1F0000
00787C3E1F0000
000783C1E00000
000783C1E00000
000783C1E00000
000783C1E00000
000783C1E00000
00787C3E1F0000
00787C3E1F0000
00787C3E1F0000
00787C3E1F0000
0F878001E0F000
0F878001E0F000
0F878001E0F000
0F878001E0F000
0F878001E0F000
F07800001F0F80
F07800001F0F80
F07800001F0F80
F07800001F0F80
0F80000000F000
0F80000000F000
0F80000000F000
0F80000000F000
0F80000000F000
F07800001F0F80
F07800001F0F80
F07800001F0F80
F07800001F0F80
0F80000000F000
0F80000000F000
0F80000000F000
0F80000000F000
0F80000000F000
F07800001F0F80
F07800001F0F80
F07800001F0F80
F07800001F0F80
ENDCHAR
STARTCHAR 0079
ENCODING 121
SWIDTH 697 0
DWIDTH 62 0
BBX 49 67 7 0
BITMAP
F07800001F0F80
F07800001F0F80
F07800001F0F80
F07800001F0F80
F07800001F0F80
0F80000000F000
0F80000000F000
0F80000000F000
0F80000000F000
F07800001F0F80
F07800001F0F80
F07800001F0F80
F07800001F0F80
F07800001F0F80
0F80000000F000
0F80000000F000
0F80000000F000
0F80000000F000
F07800001F0F80
F07800001F0F80
F07800001F0F80
F07800001F0F80
F07800001F0F80
0F80000000F000
0F80000000F000
0F80000000F000
0F80000000F000
F07800001F0F80
F07800001F0F80
F07800001F0F80
F07800001F0F80
0F80000000F000
0F80000000F000
0F80000000F000
0F80000000F000
0F80000000F000
F0787C3E1F0F80
F0787C3E1F0F80
F0787C3E1F0F80
F0787C3E1F0F80
0F8783C1E0F000
0F8783C1E0F000
0F8783C1E0F000
0F8783C1E0F000
0F8783C1E0F000
00787C3E1F0000
00787C3E1F0000
00787C3E1F0000
00787C3E1F0000
000003C0000000
000003C0000000
000003C0000000
000003C0000000
000003C0000000
00007C3E000000
00007C3E000000
00007C3E000000
00007C3E000000
000003C0000000
000003C0000000
000003C0000000
000003C0000000
000003C0000000
00007C3E000000
00007C3E000000
00007C3E000000
00007C3E000000
ENDCHAR
STARTCHAR 007A
ENCODING 122
SWIDTH 697 0
DWIDTH 62 0
BBX 49 67 7 0
BITMAP
F0787C3E1F0F80
F0787C3E1F0F80
F0787C3E1F0F80
F0787C3E1F0F80
F0787C3E1F0F80
0F8783C1E0F000
0F8783C1E0F000
0F8783C1E0F000
0F8783C1E0F000
F0787C3E1F0F80
F0787C3E1F0F80
F0787C3E1F0F80
F0787C3E1F0F80
F0787C3E1F0F80
0000000000F000
0000000000F000
0000000000F000
0000000000F000
000000001F0F80
000000001F0F80
000000001F0F80
000000001F0F80
000000001F0F80
0000000000F000
0000000000F000
0000000000F000
0000000000F000
00787C3E1F0F80
00787C3E1F0F80
00787C3E1F0F80
00787C3E1F0F80
0F8783C1E0F000
0F8783C1E0F000
0F8783C1E0F000
0F8783C1E0F000
0F8783C1E0F000
F0787C3E1F0000
F0787C3E1F0000
F0787C3E1F0000
F0787C3E1F0000
0F800000000000
0F800000000000
0F800000000000
0F800000000000
0F800000000000
F0780000000000
F0780000000000
F0780000000000
F0780000000000
0F800000000000
0F800000000000
0F800000000000
0F800000000000
0F800000000000
F0787C3E1F0F80
F0787C3E1F0F80
F0787C3E1F0F80
F0787C3E1F0F80
0F8783C1E0F000
0F8783C1E0F000
0F8783C1E0F000
0F8783C1E0F000
0F8783C1E0F000
F0787C3E1F0F80
F0787C3E1F0F80
F0787C3E1F0F80
F0787C3E1F0F80
ENDCHAR
STARTCHAR 007B
ENCODING 123
SWIDTH 393 0
DWIDTH 35 0
BBX 36 102 2 -18
BITMAP
000003E1F0
000003E1F0
000003E1F0
000003E1F0
00003C1E00
00003C1E00
00003C1E00
00003C1E00
0003C3E000
0003C3E000
0003C3E000
0003C3E000
0003C3E000
00003C0000
00003C0000
00003C0000
00003C0000
0003C3E000
0003C3E000
0003C3E000
0003C3E000
0003C3E000
00003C0000
00003C0000
00003C0000
00003C0000
0003C3E000
0003C3E000
0003C3E000
0003C3E000
0003C3E000
00003C0000
00003C0000
00003C0000
00003C0000
0003C3E000
0003C3E000
0003C3E000
0003C3E000
0003C3E000
007C3C0000
007C3C0000
007C3C0000
007C3C0000
0783C00000
0783C00000
0783C00000
0783C00000
F87C000000
F87C000000
F87C000000
F87C000000
F87C000000
0783C00000
0783C00000
0783C00000
0783C00000
007C3C0000
007C3C0000
007C3C0000
007C3C0000
007C3C0000
0003C3E000
0003C3E000
0003C3E000
0003C3E000
00003C0000
00003C0000
00003C0000
00003C0000
00003C0000
0003C3E000
0003C3E000
0003C3E000
0003C3E000
00003C0000
00003C0000
00003C0000
00003C0000
00003C0000
0003C3E000
0003C3E000
0003C3E000
0003C3E000
00003C0000
00003C0000
00003C0000
00003C0000
0003C3E000
0003C3E000
0003C3E000
0003C3E000
0003C3E000
00003C1E00
00003C1E00
00003C1E00
00003C1E00
000003E1F0
000003E1F0
000003E1F0
000003E1F0
000003E1F0
ENDCHAR
STARTCHAR 007C
ENCODING 124
SWIDTH 292 0
DWIDTH 26 0
BBX 13 85 7 -9
BITMAP
F078
F078
F078
F078
F078
0F80
0F80
0F80
0F80
F078
F078
F078
F078
F078
0F80
0F80
0F80
0F80
F078
F078
F078
F078
F078
0F80
0F80
0F80
0F80
F078
F078
F078
F078
F078
0F80
0F80
0F80
0F80
F078
F078
F078
F078
0F80
0F80
0F80
0F80
0F80
F078
F078
F078
F078
0F80
0F80
0F80
0F80
0F80
F078
F078
F078
F078
0F80
0F80
0F80
0F80
0F80
F078
F078
F078
F078
0F80
0F80
0F80
0F80
0F80
F078
F078
F078
F078
0F80
0F80
0F80
0F80
F078
F078
F078
F078
F078
ENDCHAR
STARTCHAR 007D
ENCODING 125
SWIDTH 393 0
DWIDTH 35 0
BBX 35 102 -2 -18
BITMAP
F078000000
F078000000
F078000000
F078000000
0F87C00000
0F87C00000
0F87C00000
0F87C00000
00783C0000
00783C0000
00783C0000
00783C0000
00783C0000
0007C00000
0007C00000
0007C00000
0007C00000
00783C0000
00783C0000
00783C0000
00783C0000
00783C0000
0007C00000
0007C00000
0007C00000
0007C00000
00783C0000
00783C0000
00783C0000
00783C0000
00783C0000
0007C00000
0007C00000
0007C00000
0007C00000
00783C0000
00783C0000
00783C0000
00783C0000
00783C0000
0007C3C000
0007C3C000
0007C3C000
0007C3C000
00003C3E00
00003C3E00
00003C3E00
00003C3E00
000003C1E0
000003C1E0
000003C1E0
000003C1E0
000003C1E0
00003C3E00
00003C3E00
00003C3E00
00003C3E00
0007C3C000
0007C3C000
0007C3C000
0007C3C000
0007C3C000
00783C0000
00783C0000
00783C0000
00783C0000
0007C00000
0007C00000
0007C00000
0007C00000
0007C00000
00783C0000
00783C0000
00783C0000
00783C0000
0007C00000
0007C00000
0007C00000
0007C00000
0007C00000
00783C0000
00783C0000
00783C0000
00783C0000
0007C00000
0007C00000
0007C00000
0007C00000
00783C0000
00783C0000
00783C0000
00783C0000
00783C0000
0F87C00000
0F87C00000
0F87C00000
0F87C00000
F078000000
F078000000
F078000000
F078000000
F078000000
ENDCHAR
STARTCHAR 00A1
ENCODING 161
SWIDTH 292 0
DWIDTH 26 0
BBX 13 67 7 0
BITMAP
F078
F078
F078
F078
F078
0F80
0F80
0F80
0F80
F078
F078
F078
F078
F078
0000
0000
0000
0000
0000
0000
0000
0000
0000
0F80
0F80
0F80
0F80
F078
F078
F078
F078
0F80
0F80
0F80
0F80
0F80
F078
F078
F078
F078
0F80
0F80
0F80
0F80
0F80
F078
F078
F078
F078
0F80
0F80
0F80
0F80
0F80
F078
F078
F078
F078
0F80
0F80
0F80
0F80
0F80
F078
F078
F078
F078
ENDCHAR
STARTCHAR 00A2
ENCODING 162
SWIDTH 697 0
DWIDTH 62 0
BBX 49 85 7 -9
BITMAP
00007C3E000000
00007C3E000000
00007C3E000000
00007C3E000000
00007C3E000000
000003C0000000
000003C0000000
000003C0000000
000003C0000000
00787C3E1F0000
00787C3E1F0000
00787C3E1F0000
00787C3E1F0000
00787C3E1F0000
0F8783C1E0F000
0F8783C1E0F000
0F8783C1E0F000
0F8783C1E0F000
F0787C3E1F0F80
F0787C3E1F0F80
F0787C3E1F0F80
F0787C3E1F0F80
F0787C3E1F0F80
0F80000000F000
0F80000000F000
0F80000000F000
0F80000000F000
F07800001F0F80
F07800001F0F80
F07800001F0F80
F07800001F0F80
F07800001F0F80
0F80000000F000
0F80000000F000
0F80000000F000
0F80000000F000
F07800001F0F80
F07800001F0F80
F07800001F0F80
F07800001F0F80
0F800000000000
0F800000000000
0F800000000000
0F800000000000
0F800000000000
F0780000000000
F0780000000000
F0780000000000
F0780000000000
0F800000000000
0F800000000000
0F800000000000
0F800000000000
0F800000000000
F07800001F0F80
F07800001F0F80
F07800001F0F80
F07800001F0F80
0F80000000F000
0F80000000F000
0F80000000F000
0F80000000F000
0F80000000F000
F0787C3E1F0F80
F0787C3E1F0F80
F0787C3E1F0F80
F0787C3E1F0F80
0F8783C1E0F000
0F8783C1E0F000
0F8783C1E0F000
0F8783C1E0F000
0F8783C1E0F000
00787C3E1F0000
00787C3E1F0000
00787C3E1F0000
00787C3E1F0000
000003C0000000
000003C0000000
000003C0000000
000003C0000000
00007C3E000000
00007C3E000000
00007C3E000000
00007C3E000000
00007C3E000000
ENDCHAR
STARTCHAR 00A3
ENCODING 163
SWIDTH 697 0
DWIDTH 62 0
BBX 49 76 7 0
BITMAP
00007C3E1F0000
00007C3E1F0000
00007C3E1F0000
00007C3E1F0000
00007C3E1F0000
000783C1E0F000
000783C1E0F000
000783C1E0F000
000783C1E0F000
00787C3E1F0F80
00787C3E1F0F80
00787C3E1F0F80
00787C3E1F0F80
00787C3E1F0F80
0007800000F000
0007800000F000
0007800000F000
0007800000F000
00787C001F0F80
00787C001F0F80
00787C001F0F80
00787C001F0F80
00787C001F0F80
00078000000000
00078000000000
00078000000000
00078000000000
00787C00000000
00787C00000000
00787C00000000
00787C00000000
00787C00000000
00078000000000
00078000000000
00078000000000
00078000000000
F0787C3E1F0000
F0787C3E1F0000
F0787C3E1F0000
F0787C3E1F0000
0F8783C1E00000
0F8783C1E00000
0F8783C1E00000
0F8783C1E00000
0F8783C1E00000
F0787C3E1F0000
F0787C3E1F0000
F0787C3E1F0000
F0787C3E1F0000
00078000000000
00078000000000
00078000000000
00078000000000
00078000000000
00787C00000000
00787C00000000
00787C00000000
00787C00000000
00078000000000
00078000000000
00078000000000
00078000000000
00078000000000
F0787C3E1F0F80
F0787C3E1F0F80
F0787C3E1F0F80
F0787C3E1F0F80
0F8783C1E0F000
0F8783C1E0F000
0F8783C1E0F000
0F8783C1E0F000
0F8783C1E0F000
F0787C3E1F0F80
F0787C3E1F0F80
F0787C3E1F0F80
F0787C3E1F0F80
ENDCHAR
STARTCHAR 00A4
ENCODING 164
SWIDTH 798 0
DWIDTH 71 0
BBX 57 58 7 18
BITMAP
00787C0000000000
00787C0000000000
00787C0000000000
00787C0000000000
00787C0000000000
0007800000000000
0007800000000000
0007800000000000
0007800000000000
00787C3E1F0F8780
00787C3E1F0F8780
00787C3E1F0F8780
00787C3E1F0F8780
00787C3E1F0F8780
000783C1E0F07800
000783C1E0F07800
000783C1E0F07800
000783C1E0F07800
00787C3E1F0F8780
00787C3E1F0F8780
00787C3E1F0F8780
00787C3E1F0F8780
00787C3E1F0F8780
0007800000F00000
0007800000F00000
0007800000F00000
0007800000F00000
00787C001F0F8000
00787C001F0F8000
00787C001F0F8000
00787C001F0F8000
00787C001F0F8000
0007800000F00000
0007800000F00000
0007800000F00000
0007800000F00000
F0787C3E1F0F8000
F0787C3E1F0F8000
F0787C3E1F0F8000
F0787C3E1F0F8000
0F8783C1E0F00000
0F8783C1E0F00000
0F8783C1E0F00000
0F8783C1E0F00000
0F8783C1E0F00000
F0787C3E1F0F8000
F0787C3E1F0F8000
F0787C3E1F0F8000
F0787C3E1F0F8000
0000000000F00000
0000000000F00000
0000000000F00000
0000000000F00000
0000000000F00000
000000001F0F8000
000000001F0F8000
000000001F0F8000
000000001F0F8000
ENDCHAR
STARTCHAR 00A5
ENCODING 165
SWIDTH 697 0
DWIDTH 62 0
BBX 49 93 7 -9
BITMAP
F07800001F0F80
F07800001F0F80
F07800001F0F80
F07800001F0F80
0F80000000F000
0F80000000F000
0F80000000F000
0F80000000F000
F07800001F0F80
F07800001F0F80
F07800001F0F80
F07800001F0F80
F07800001F0F80
0F80000000F000
0F80000000F000
0F80000000F000
0F80000000F000
F07800001F0F80
F07800001F0F80
F07800001F0F80
F07800001F0F80
F07800001F0F80
0F878001E0F000
0F878001E0F000
0F878001E0F000
0F878001E0F000
00787C3E1F0000
00787C3E1F0000
00787C3E1F0000
00787C3E1F0000
00787C3E1F0000
000783C1E00000
000783C1E00000
000783C1E00000
000783C1E00000
00007C3E000000
00007C3E000000
00007C3E000000
00007C3E000000
00007C3E000000
000003C0000000
000003C0000000
000003C0000000
000003C0000000
F0787C3E1F0F80
F0787C3E1F0F80
F0787C3E1F0F80
F0787C3E1F0F80
0F8783C1E0F000
0F8783C1E0F000
0F8783C1E0F000
0F8783C1E0F000
0F8783C1E0F000
F0787C3E1F0F80
F0787C3E1F0F80
F0787C3E1F0F80
F0787C3E1F0F80
000003C0000000
000003C0000000
000003C0000000
000003C0000000
000003C0000000
00007C3E000000
00007C3E000000
00007C3E000000
00007C3E000000
000003C0000000
000003C0000000
000003C0000000
000003C0000000
000003C0000000
F0787C3E1F0F80
F0787C3E1F0F80
F0787C3E1F0F80
F0787C3E1F0F80
0F8783C1E0F000
0F8783C1E0F000
0F8783C1E0F000
0F8783C1E0F000
0F8783C1E0F000
F0787C3E1F0F80
F0787C3E1F0F80
F0787C3E1F0F80
F0787C3E1F0F80
000003C0000000
000003C0000000
000003C0000000
000003C0000000
00007C3E000000
00007C3E000000
00007C3E000000
00007C3E000000
00007C3E000000
ENDCHAR
STARTCHAR 00A6
ENCODING 166
SWIDTH 292 0
DWIDTH 26 0
BBX 13 85 7 -9
BITMAP
F078
F078
F078
F078
F078
0F80
0F80
0F80
0F80
F078
F078
F078
F078
F078
0F80
0F80
0F80
0F80
F078
F078
F078
F078
F078
0F80
0F80
0F80
0F80
F078
F078
F078
F078
F078
0000
0000
0000
0000
0000
0000
0000
0000
0000
0000
0000
0000
0000
0000
0000
0000
0000
0000
0000
0000
0000
0000
F078
F078
F078
F078
0F80
0F80
0F80
0F80
0F80
F078
F078
F078
F078
0F80
0F80
0F80
0F80
0F80
F078
F078
F078
F078
0F80
0F80
0F80
0F80
F078
F078
F078
F078
F078
ENDCHAR
STARTCHAR 00A7
ENCODING 167
SWIDTH 697 0
DWIDTH 62 0
BBX 49 102 7 -18
BITMAP
00007C3E1F0F80
00007C3E1F0F80
00007C3E1F0F80
00007C3E1F0F80
000783C1E0F000
000783C1E0F000
000783C1E0F000
000783C1E0F000
00787C3E1F0F80
00787C3E1F0F80
00787C3E1F0F80
00787C3E1F0F80
00787C3E1F0F80
0F878000000000
0F878000000000
0F878000000000
0F878000000000
F0780000000000
F0780000000000
F0780000000000
F0780000000000
F0780000000000
0F800000000000
0F800000000000
0F800000000000
0F800000000000
F0787C3E000000
F0787C3E000000
F0787C3E000000
F0787C3E000000
F0787C3E000000
0F8783C1E00000
0F8783C1E00000
0F8783C1E00000
0F8783C1E00000
F0787C3E1F0000
F0787C3E1F0000
F0787C3E1F0000
F0787C3E1F0000
F0787C3E1F0000
0F800001E0F000
0F800001E0F000
0F800001E0F000
0F800001E0F000
F07800001F0F80
F07800001F0F80
F07800001F0F80
F07800001F0F80
0F80000000F000
0F80000000F000
0F80000000F000
0F80000000F000
0F80000000F000
F07800001F0F80
F07800001F0F80
F07800001F0F80
F07800001F0F80
0F87800000F000
0F87800000F000
0F87800000F000
0F87800000F000
0F87800000F000
00787C3E1F0F80
00787C3E1F0F80
00787C3E1F0F80
00787C3E1F0F80
000783C1E0F000
000783C1E0F000
000783C1E0F000
000783C1E0F000
000783C1E0F000
00007C3E1F0F80
00007C3E1F0F80
00007C3E1F0F80
00007C3E1F0F80
0000000000F000
0000000000F000
0000000000F000
0000000000F000
0000000000F000
000000001F0F80
000000001F0F80
000000001F0F80
000000001F0F80
00000001E0F000
00000001E0F000
00000001E0F000
00000001E0F000
F0787C3E1F0000
F0787C3E1F0000
F0787C3E1F0000
F0787C3E1F0000
F0787C3E1F0000
0F8783C1E00000
0F8783C1E00000
0F8783C1E00000
0F8783C1E00000
F0787C3E000000
F0787C3E000000
F0787C3E000000
F0787C3E000000
F0787C3E000000
ENDCHAR
STARTCHAR 00A8
ENCODING 168
SWIDTH 393 0
DWIDTH 35 0
BBX 31 13 2 71
BITMAP
F87C3C1E
F87C3C1E
F87C3C1E
F87C3C1E
078003E0
078003E0
078003E0
078003E0
F87C3C1E
F87C3C1E
F87C3C1E
F87C3C1E
F87C3C1E
ENDCHAR
STARTCHAR 00AB
ENCODING 171
SWIDTH 843 0
DWIDTH 75 0
BBX 62 49 2 9
BITMAP
000003E1F0007C3C
000003E1F0007C3C
000003E1F0007C3C
000003E1F0007C3C
000003E1F0007C3C
00003C1E000783C0
00003C1E000783C0
00003C1E000783C0
00003C1E000783C0
0003C3E000F87C00
0003C3E000F87C00
0003C3E000F87C00
0003C3E000F87C00
0003C3E000F87C00
007C3C000F078000
007C3C000F078000
007C3C000F078000
007C3C000F078000
0783C001F0F80000
0783C001F0F80000
0783C001F0F80000
0783C001F0F80000
F87C001E0F000000
F87C001E0F000000
F87C001E0F000000
F87C001E0F000000
F87C001E0F000000
0783C001F0F80000
0783C001F0F80000
0783C001F0F80000
0783C001F0F80000
007C3C000F078000
007C3C000F078000
007C3C000F078000
007C3C000F078000
007C3C000F078000
0003C3E000F87C00
0003C3E000F87C00
0003C3E000F87C00
0003C3E000F87C00
00003C1E000783C0
00003C1E000783C0
00003C1E000783C0
00003C1E000783C0
00003C1E000783C0
000003E1F0007C3C
000003E1F0007C3C
000003E1F0007C3C
000003E1F0007C3C
ENDCHAR
STARTCHAR 00AD
ENCODING 173
SWIDTH 495 0
DWIDTH 44 0
BBX 40 13 2 27
BITMAP
F87C3C1E0F
F87C3C1E0F
F87C3C1E0F
F87C3C1E0F
0783C3E1F0
0783C3E1F0
0783C3E1F0
0783C3E1F0
0783C3E1F0
F87C3C1E0F
F87C3C1E0F
F87C3C1E0F
F87C3C1E0F
ENDCHAR
STARTCHAR 00AF
ENCODING 175
SWIDTH 393 0
DWIDTH 35 0
BBX 31 13 2 71
BITMAP
F87C3C1E
F87C3C1E
F87C3C1E
F87C3C1E
0783C3E0
0783C3E0
0783C3E0
0783C3E0
F87C3C1E
F87C3C1E
F87C3C1E
F87C3C1E
F87C3C1E
ENDCHAR
STARTCHAR 00B0
ENCODING 176
SWIDTH 495 0
DWIDTH 44 0
BBX 40 40 2 36
BITMAP
007C3C1E00
007C3C1E00
007C3C1E00
007C3C1E00
007C3C1E00
0783C3E1F0
0783C3E1F0
0783C3E1F0
0783C3E1F0
F87C3C1E0F
F87C3C1E0F
F87C3C1E0F
F87C3C1E0F
F87C3C1E0F
07800001F0
07800001F0
07800001F0
07800001F0
F87C001E0F
F87C001E0F
F87C001E0F
F87C001E0F
F87C001E0F
07800001F0
07800001F0
07800001F0
07800001F0
F87C3C1E0F
F87C3C1E0F
F87C3C1E0F
F87C3C1E0F
F87C3C1E0F
0783C3E1F0
0783C3E1F0
0783C3E1F0
0783C3E1F0
007C3C1E00
007C3C1E00
007C3C1E00
007C3C1E00
ENDCHAR
STARTCHAR 00B4
ENCODING 180
SWIDTH 348 0
DWIDTH 31 0
BBX 31 22 2 71
BITMAP
00003C1E
00003C1E
00003C1E
00003C1E
0003C3E0
0003C3E0
0003C3E0
0003C3E0
0003C3E0
007C3C00
007C3C00
007C3C00
007C3C00
0783C000
0783C000
0783C000
0783C000
F87C0000
F87C0000
F87C0000
F87C0000
F87C0000
ENDCHAR
STARTCHAR 00B6
ENCODING 182
SWIDTH 697 0
DWIDTH 62 0
BBX 49 67 7 0
BITMAP
00787C3E1F0F80
00787C3E1F0F80
00787C3E1F0F80
00787C3E1F0F80
00787C3E1F0F80
0F8783C000F000
0F8783C000F000
0F8783C000F000
0F8783C000F000
F0787C3E1F0F80
F0787C3E1F0F80
F0787C3E1F0F80
F0787C3E1F0F80
F0787C3E1F0F80
0F8783C000F000
0F8783C000F000
0F8783C000F000
0F8783C000F000
F0787C3E1F0F80
F0787C3E1F0F80
F0787C3E1F0F80
F0787C3E1F0F80
F0787C3E1F0F80
0F8783C000F000
0F8783C000F000
0F8783C000F000
0F8783C000F000
F0787C3E1F0F80
F0787C3E1F0F80
F0787C3E1F0F80
F0787C3E1F0F80
0F8783C000F000
0F8783C000F000
0F8783C000F000
0F8783C000F000
0F8783C000F000
00787C3E1F0F80
00787C3E1F0F80
00787C3E1F0F80
00787C3E1F0F80
000003C000F000
000003C000F000
000003C000F000
000003C000F000
000003C000F000
00007C3E1F0F80
00007C3E1F0F80
00007C3E1F0F80
00007C3E1F0F80
000003C000F000
000003C000F000
000003C000F000
000003C000F000
000003C000F000
00007C3E1F0F80
00007C3E1F0F80
00007C3E1F0F80
00007C3E1F0F80
000003C000F000
000003C000F000
000003C000F000
000003C000F000
000003C000F000
00007C3E1F0F80
00007C3E1F0F80
00007C3E1F0F80
00007C3E1F0F80
ENDCHAR
STARTCHAR 00B7
ENCODING 183
SWIDTH 191 0
DWIDTH 17 0
BBX 14 13 2 27
BITMAP
F87C
F87C
F87C
F87C
0780
0780
0780
0780
0780
F87C
F87C
F87C
F87C
ENDCHAR
STARTCHAR 00B8
ENCODING 184
SWIDTH 247 0
DWIDTH 22 0
BBX 22 18 -2 -18
BITMAP
0007C0
0007C0
0007C0
0007C0
F0783C
F0783C
F0783C
F0783C
F0783C
0F87C0
0F87C0
0F87C0
0F87C0
F07800
F07800
F07800
F07800
F07800
ENDCHAR
STARTCHAR 00BB
ENCODING 187
SWIDTH 843 0
DWIDTH 75 0
BBX 62 49 11 9
BITMAP
F878001E0F000000
F878001E0F000000
F878001E0F000000
F878001E0F000000
F878001E0F000000
0787C001F0F80000
0787C001F0F80000
0787C001F0F80000
0787C001F0F80000
00783C000F078000
00783C000F078000
00783C000F078000
00783C000F078000
00783C000F078000
0007C3E000F87800
0007C3E000F87800
0007C3E000F87800
0007C3E000F87800
00003C1E000787C0
00003C1E000787C0
00003C1E000787C0
00003C1E000787C0
000003E1F000783C
000003E1F000783C
000003E1F000783C
000003E1F000783C
000003E1F000783C
00003C1E000787C0
00003C1E000787C0
00003C1E000787C0
00003C1E000787C0
0007C3E000F87800
0007C3E000F87800
0007C3E000F87800
0007C3E000F87800
0007C3E000F87800
00783C000F078000
00783C000F078000
00783C000F078000
00783C000F078000
0787C001F0F80000
0787C001F0F80000
0787C001F0F80000
0787C001F0F80000
0787C001F0F80000
F878001E0F000000
F878001E0F000000
F878001E0F000000
F878001E0F000000
ENDCHAR
STARTCHAR 00BF
ENCODING 191
SWIDTH 697 0
DWIDTH 62 0
BBX 49 67 7 0
BITMAP
00007C3E000000
00007C3E000000
00007C3E000000
00007C3E000000
00007C3E000000
000003C0000000
000003C0000000
000003C0000000
000003C0000000
00007C3E000000
00007C3E000000
00007C3E000000
00007C3E000000
00007C3E000000
00000000000000
00000000000000
00000000000000
00000000000000
00007C3E000000
00007C3E000000
00007C3E000000
00007C3E000000
00007C3E000000
000003C0000000
000003C0000000
000003C0000000
000003C0000000
00787C3E000000
00787C3E000000
00787C3E000000
00787C3E000000
0F8783C0000000
0F8783C0000000
0F8783C0000000
0F8783C0000000
0F8783C0000000
F0787C00000000
F0787C00000000
F0787C00000000
F0787C00000000
0F800000000000
0F800000000000
0F800000000000
0F800000000000
0F800000000000
F07800001F0F80
F07800001F0F80
F07800001F0F80
F07800001F0F80
0F80000000F000
0F80000000F000
0F80000000F000
0F80000000F000
0F80000000F000
F0787C3E1F0F80
F0787C3E1F0F80
F0787C3E1F0F80
F0787C3E1F0F80
0F8783C1E0F000
0F8783C1E0F000
0F8783C1E0F000
0F8783C1E0F000
0F8783C1E0F000
00787C3E1F0000
00787C3E1F0000
00787C3E1F0000
00787C3E1F0000
ENDCHAR
STARTCHAR 00C0
ENCODING 192
SWIDTH 697 0
DWIDTH 62 0
BBX 49 93 7 0
BITMAP
F0780000000000
F0780000000000
F0780000000000
F0780000000000
0F878000000000
0F878000000000
0F878000000000
0F878000000000
0F878000000000
00787C00000000
00787C00000000
00787C00000000
00787C00000000
000783C0000000
000783C0000000
000783C0000000
000783C0000000
00007C3E000000
00007C3E000000
00007C3E000000
00007C3E000000
00007C3E000000
00000000000000
00000000000000
00000000000000
00000000000000
00007C3E000000
00007C3E000000
00007C3E000000
00007C3E000000
00007C3E000000
000783C1E00000
000783C1E00000
000783C1E00000
000783C1E00000
00787C3E1F0000
00787C3E1F0000
00787C3E1F0000
00787C3E1F0000
00787C3E1F0000
0F878001E0F000
0F878001E0F000
0F878001E0F000
0F878001E0F000
F07800001F0F80
F07800001F0F80
F07800001F0F80
F07800001F0F80
F07800001F0F80
0F80000000F000
0F80000000F000
0F80000000F000
0F80000000F000
F07800001F0F80
F07800001F0F80
F07800001F0F80
F07800001F0F80
0F80000000F000
0F80000000F000
0F80000000F000
0F80000000F000
0F80000000F000
F0787C3E1F0F80
F0787C3E1F0F80
F0787C3E1F0F80
F0787C3E1F0F80
0F8783C1E0F000
0F8783C1E0F000
0F8783C1E0F000
0F8783C1E0F000
0F8783C1E0F000
F0787C3E1F0F80
F0787C3E1F0F80
F0787C3E1F0F80
F0787C3E1F0F80
0F80000000F000
0F80000000F000
0F80000000F000
0F80000000F000
0F80000000F000
F07800001F0F80
F07800001F0F80
F07800001F0F80
F07800001F0F80
0F80000000F000
0F80000000F000
0F80000000F000
0F80000000F000
0F80000000F000
F07800001F0F80
F07800001F0F80
F07800001F0F80
F07800001F0F80
ENDCHAR
STARTCHAR 00C1
ENCODING 193
SWIDTH 697 0
DWIDTH 62 0
BBX 49 93 7 0
BITMAP
00000001E0F000
00000001E0F000
00000001E0F000
00000001E0F000
0000003E1F0000
0000003E1F0000
0000003E1F0000
0000003E1F0000
0000003E1F0000
000003C1E00000
000003C1E00000
000003C1E00000
000003C1E00000
00007C3E000000
00007C3E000000
00007C3E000000
00007C3E000000
000783C0000000
000783C0000000
000783C0000000
000783C0000000
000783C0000000
00000000000000
00000000000000
00000000000000
00000000000000
00007C3E000000
00007C3E000000
00007C3E000000
00007C3E000000
00007C3E000000
000783C1E00000
000783C1E00000
000783C1E00000
000783C1E00000
00787C3E1F0000
00787C3E1F0000
00787C3E1F0000
00787C3E1F0000
00787C3E1F0000
0F878001E0F000
0F878001E0F000
0F878001E0F000
0F878001E0F000
F07800001F0F80
F07800001F0F80
F07800001F0F80
F07800001F0F80
F07800001F0F80
0F80000000F000
0F80000000F000
0F80000000F000
0F80000000F000
F07800001F0F80
F07800001F0F80
F07800001F0F80
F07800001F0F80
0F80000000F000
0F80000000F000
0F80000000F000
0F80000000F000
0F80000000F000
F0787C3E1F0F80
F0787C3E1F0F80
F0787C3E1F0F80
F0787C3E1F0F80
0F8783C1E0F000
0F8783C1E0F000
0F8783C1E0F000
0F8783C1E0F000
0F8783C1E0F000
F0787C3E1F0F80
F0787C3E1F0F80
F0787C3E1F0F80
F0787C3E1F0F80
0F80000000F000
0F80000000F000
0F80000000F000
0F80000000F000
0F80000000F000
F07800001F0F80
F07800001F0F80
F07800001F0F80
F07800001F0F80
0F80000000F000
0F80000000F000
0F80000000F000
0F80000000F000
0F80000000F000
F07800001F0F80
F07800001F0F80
F07800001F0F80
F07800001F0F80
ENDCHAR
STARTCHAR 00C2
ENCODING 194
SWIDTH 697 0
DWIDTH 62 0
BBX 49 93 7 0
BITMAP
00007C3E000000
00007C3E000000
00007C3E000000
00007C3E000000
000783C1E00000
000783C1E00000
000783C1E00000
000783C1E00000
000783C1E00000
00787C3E1F0000
00787C3E1F0000
00787C3E1F0000
00787C3E1F0000
00078001E00000
00078001E00000
00078001E00000
00078001E00000
00787C3E1F0000
00787C3E1F0000
00787C3E1F0000
00787C3E1F0000
00787C3E1F0000
00000000000000
00000000000000
00000000000000
00000000000000
00007C3E000000
00007C3E000000
00007C3E000000
00007C3E000000
00007C3E000000
000783C1E00000
000783C1E00000
000783C1E00000
000783C1E00000
00787C3E1F0000
00787C3E1F0000
00787C3E1F0000
00787C3E1F0000
00787C3E1F0000
0F878001E0F000
0F878001E0F000
0F878001E0F000
0F878001E0F000
F07800001F0F80
F07800001F0F80
F07800001F0F80
F07800001F0F80
F07800001F0F80
0F80000000F000
0F80000000F000
0F80000000F000
0F80000000F000
F07800001F0F80
F07800001F0F80
F07800001F0F80
F07800001F0F80
0F80000000F000
0F80000000F000
0F80000000F000
0F80000000F000
0F80000000F000
F0787C3E1F0F80
F0787C3E1F0F80
F0787C3E1F0F80
F0787C3E1F0F80
0F8783C1E0F000
0F8783C1E0F000
0F8783C1E0F000
0F8783C1E0F000
0F8783C1E0F000
F0787C3E1F0F80
F0787C3E1F0F80
F0787C3E1F0F80
F0787C3E1F0F80
0F80000000F000
0F80000000F000
0F80000000F000
0F80000000F000
0F80000000F000
F07800001F0F80
F07800001F0F80
F07800001F0F80
F07800001F0F80
0F80000000F000
0F80000000F000
0F80000000F000
0F80000000F000
0F80000000F000
F07800001F0F80
F07800001F0F80
F07800001F0F80
F07800001F0F80
ENDCHAR
STARTCHAR 00C3
ENCODING 195
SWIDTH 697 0
DWIDTH 62 0
BBX 49 93 7 0
BITMAP
00787C001F0F80
00787C001F0F80
00787C001F0F80
00787C001F0F80
0F8783C000F000
0F8783C000F000
0F8783C000F000
0F8783C000F000
0F8783C000F000
F0787C3E1F0F80
F0787C3E1F0F80
F0787C3E1F0F80
F0787C3E1F0F80
0F8003C1E0F000
0F8003C1E0F000
0F8003C1E0F000
0F8003C1E0F000
F078003E1F0000
F078003E1F0000
F078003E1F0000
F078003E1F0000
F078003E1F0000
00000000000000
00000000000000
00000000000000
00000000000000
00007C3E000000
00007C3E000000
00007C3E000000
00007C3E000000
00007C3E000000
000783C1E00000
000783C1E00000
000783C1E00000
000783C1E00000
00787C3E1F0000
00787C3E1F0000
00787C3E1F0000
00787C3E1F0000
00787C3E1F0000
0F878001E0F000
0F878001E0F000
0F878001E0F000
0F878001E0F000
F07800001F0F80
F07800001F0F80
F07800001F0F80
F07800001F0F80
F07800001F0F80
0F80000000F000
0F80000000F000
0F80000000F000
0F80000000F000
F07800001F0F80
F07800001F0F80
F07800001F0F80
F07800001F0F80
0F80000000F000
0F80000000F000
0F80000000F000
0F80000000F000
0F80000000F000
F0787C3E1F0F80
F0787C3E1F0F80
F0787C3E1F0F80
F0787C3E1F0F80
0F8783C1E0F000
0F8783C1E0F000
0F8783C1E0F000
0F8783C1E0F000
0F8783C1E0F000
F0787C3E1F0F80
F0787C3E1F0F80
F0787C3E1F0F80
F0787C3E1F0F80
0F80000000F000
0F80000000F000
0F80000000F000
0F80000000F000
0F80000000F000
F07800001F0F80
F07800001F0F80
F07800001F0F80
F07800001F0F80
0F80000000F000
0F80000000F000
0F80000000F000
0F80000000F000
0F80000000F000
F07800001F0F80
F07800001F0F80
F07800001F0F80
F07800001F0F80
ENDCHAR
STARTCHAR 00C4
ENCODING 196
SWIDTH 697 0
DWIDTH 62 0
BBX 49 84 7 0
BITMAP
00787C3E1F0000
00787C3E1F0000
00787C3E1F0000
00787C3E1F0000
00078001E00000
00078001E00000
00078001E00000
00078001E00000
00787C3E1F0000
00787C3E1F0000
00787C3E1F0000
00787C3E1F0000
00787C3E1F0000
00000000000000
00000000000000
00000000000000
00000000000000
00007C3E000000
00007C3E000000
00007C3E000000
00007C3E000000
00007C3E000000
000783C1E00000
000783C1E00000
000783C1E00000
000783C1E00000
00787C3E1F0000
00787C3E1F0000
00787C3E1F0000
00787C3E1F0000
00787C3E1F0000
0F878001E0F000
0F878001E0F000
0F878001E0F000
0F878001E0F000
F07800001F0F80
F07800001F0F80
F07800001F0F80
F07800001F0F80
F07800001F0F80
0F80000000F000
0F80000000F000
0F80000000F000
0F80000000F000
F07800001F0F80
F07800001F0F80
F07800001F0F80
F07800001F0F80
0F80000000F000
0F80000000F000
0F80000000F000
0F80000000F000
0F80000000F000
F0787C3E1F0F80
F0787C3E1F0F80
F0787C3E1F0F80
F0787C3E1F0F80
0F8783C1E0F000
0F8783C1E0F000
0F8783C1E0F000
0F8783C1E0F000
0F8783C1E0F000
F0787C3E1F0F80
F0787C3E1F0F80
F0787C3E1F0F80
F0787C3E1F0F80
0F80000000F000
0F80000000F000
0F80000000F000
0F80000000F000
0F80000000F000
F07800001F0F80
F07800001F0F80
F07800001F0F80
F07800001F0F80
0F80000000F000
0F80000000F000
0F80000000F000
0F80000000F000
0F80000000F000
F07800001F0F80
F07800001F0F80
F07800001F0F80
F07800001F0F80
ENDCHAR
STARTCHAR 00C5
ENCODING 197
SWIDTH 697 0
DWIDTH 62 0
BBX 49 111 7 0
BITMAP
000783C1E00000
000783C1E00000
000783C1E00000
000783C1E00000
00787C3E1F0000
00787C3E1F0000
00787C3E1F0000
00787C3E1F0000
00787C3E1F0000
0F8783C1E0F000
0F8783C1E0F000
0F8783C1E0F000
0F8783C1E0F000
007800001F0000
007800001F0000
007800001F0000
007800001F0000
007800001F0000
0F878001E0F000
0F878001E0F000
0F878001E0F000
0F878001E0F000
007800001F0000
007800001F0000
007800001F0000
007800001F0000
007800001F0000
0F8783C1E0F000
0F8783C1E0F000
0F8783C1E0F000
0F8783C1E0F000
00787C3E1F0000
00787C3E1F0000
00787C3E1F0000
00787C3E1F0000
000783C1E00000
000783C1E00000
000783C1E00000
000783C1E00000
000783C1E00000
00000000000000
00000000000000
00000000000000
00000000000000
00007C3E000000
00007C3E000000
00007C3E000000
00007C3E000000
00007C3E000000
000783C1E00000
000783C1E00000
000783C1E00000
000783C1E00000
00787C3E1F0000
00787C3E1F0000
00787C3E1F0000
00787C3E1F0000
00787C3E1F0000
0F878001E0F000
0F878001E0F000
0F878001E0F000
0F878001E0F000
F07800001F0F80
F07800001F0F80
F07800001F0F80
F07800001F0F80
F07800001F0F80
0F80000000F000
0F80000000F000
0F80000000F000
0F80000000F000
F07800001F0F80
F07800001F0F80
F07800001F0F80
F07800001F0F80
0F80000000F000
0F80000000F000
0F80000000F000
0F80000000F000
0F80000000F000
F0787C3E1F0F80
F0787C3E1F0F80
F0787C3E1F0F80
F0787C3E1F0F80
0F8783C1E0F000
0F8783C1E0F000
0F8783C1E0F000
0F8783C1E0F000
0F8783C1E0F000
F0787C3E1F0F80
F0787C3E1F0F80
F0787C3E1F0F80
F0787C3E1F0F80
0F80000000F000
0F80000000F000
0F80000000F000
0F80000000F000
0F80000000F000
F07800001F0F80
F07800001F0F80
F07800001F0F80
F07800001F0F80
0F80000000F000
0F80000000F000
0F80000000F000
0F80000000F000
0F80000000F000
F07800001F0F80
F07800001F0F80
F07800001F0F80
F07800001F0F80
ENDCHAR
STARTCHAR 00C6
ENCODING 198
SWIDTH 1091 0
DWIDTH 97 0
BBX 84 67 7 0
BITMAP
00007C3E1F0F8783C1E0F0
00007C3E1F0F8783C1E0F0
00007C3E1F0F8783C1E0F0
00007C3E1F0F8783C1E0F0
00007C3E1F0F8783C1E0F0
000783C1E0F0787C3E1F00
000783C1E0F0787C3E1F00
000783C1E0F0787C3E1F00
000783C1E0F0787C3E1F00
00787C3E1F0F8783C1E0F0
00787C3E1F0F8783C1E0F0
00787C3E1F0F8783C1E0F0
00787C3E1F0F8783C1E0F0
00787C3E1F0F8783C1E0F0
0F87800000F00000000000
0F87800000F00000000000
0F87800000F00000000000
0F87800000F00000000000
F07800001F0F8000000000
F07800001F0F8000000000
F07800001F0F8000000000
F07800001F0F8000000000
F07800001F0F8000000000
0F80000000F00000000000
0F80000000F00000000000
0F80000000F00000000000
0F80000000F00000000000
F07800001F0F8783C1E000
F07800001F0F8783C1E000
F07800001F0F8783C1E000
F07800001F0F8783C1E000
0F80000000F0787C3E0000
0F80000000F0787C3E0000
0F80000000F0787C3E0000
0F80000000F0787C3E0000
0F80000000F0787C3E0000
F0787C3E1F0F8783C1E000
F0787C3E1F0F8783C1E000
F0787C3E1F0F8783C1E000
F0787C3E1F0F8783C1E000
0F8783C1E0F00000000000
0F8783C1E0F00000000000
0F8783C1E0F00000000000
0F8783C1E0F00000000000
0F8783C1E0F00000000000
F0787C3E1F0F8000000000
F0787C3E1F0F8000000000
F0787C3E1F0F8000000000
F0787C3E1F0F8000000000
0F80000000F00000000000
0F80000000F00000000000
0F80000000F00000000000
0F80000000F00000000000
0F80000000F00000000000
F07800001F0F8783C1E0F0
F07800001F0F8783C1E0F0
F07800001F0F8783C1E0F0
F07800001F0F8783C1E0F0
0F80000000F0787C3E1F00
0F80000000F0787C3E1F00
0F80000000F0787C3E1F00
0F80000000F0787C3E1F00
0F80000000F0787C3E1F00
F0780000000F8783C1E0F0
F0780000000F8783C1E0F0
F0780000000F8783C1E0F0
F0780000000F8783C1E0F0
ENDCHAR
STARTCHAR 00C7
ENCODING 199
SWIDTH 798 0
DWIDTH 71 0
BBX 57 85 7 -18
BITMAP
00007C3E1F000000
00007C3E1F000000
00007C3E1F000000
00007C3E1F000000
00007C3E1F000000
000783C1E0F00000
000783C1E0F00000
000783C1E0F00000
000783C1E0F00000
00787C3E1F0F8000
00787C3E1F0F8000
00787C3E1F0F8000
00787C3E1F0F8000
00787C3E1F0F8000
0F87800000F07800
0F87800000F07800
0F87800000F07800
0F87800000F07800
F0780000000F8780
F0780000000F8780
F0780000000F8780
F0780000000F8780
F0780000000F8780
0F80000000007800
0F80000000007800
0F80000000007800
0F80000000007800
F0780000000F8780
F0780000000F8780
F0780000000F8780
F0780000000F8780
0F80000000000000
0F80000000000000
0F80000000000000
0F80000000000000
0F80000000000000
F078000000000000
F078000000000000
F078000000000000
F078000000000000
0F80000000000000
0F80000000000000
0F80000000000000
0F80000000000000
0F80000000000000
F0780000000F8780
F0780000000F8780
F0780000000F8780
F0780000000F8780
0F87800000F07800
0F87800000F07800
0F87800000F07800
0F87800000F07800
0F87800000F07800
00787C3E1F0F8000
00787C3E1F0F8000
00787C3E1F0F8000
00787C3E1F0F8000
000783C1E0F00000
000783C1E0F00000
000783C1E0F00000
000783C1E0F00000
000783C1E0F00000
00007C3E1F000000
00007C3E1F000000
00007C3E1F000000
00007C3E1F000000
00000001E0000000
00000001E0000000
00000001E0000000
00000001E0000000
00007C3E1F000000
00007C3E1F000000
00007C3E1F000000
00007C3E1F000000
00007C3E1F000000
000003C1E0000000
000003C1E0000000
000003C1E0000000
000003C1E0000000
00007C3E00000000
00007C3E00000000
00007C3E00000000
00007C3E00000000
00007C3E00000000
ENDCHAR
STARTCHAR 00C8
ENCODING 200
SWIDTH 697 0
DWIDTH 62 0
BBX 49 93 7 0
BITMAP
F0780000000000
F0780000000000
F0780000000000
F0780000000000
0F878000000000
0F878000000000
0F878000000000
0F878000000000
0F878000000000
00787C00000000
00787C00000000
00787C00000000
00787C00000000
000783C0000000
000783C0000000
000783C0000000
000783C0000000
00007C3E000000
00007C3E000000
00007C3E000000
00007C3E000000
00007C3E000000
00000000000000
00000000000000
00000000000000
00000000000000
00007C3E1F0F80
00007C3E1F0F80
00007C3E1F0F80
00007C3E1F0F80
00007C3E1F0F80
000783C1E0F000
000783C1E0F000
000783C1E0F000
000783C1E0F000
00787C3E1F0F80
00787C3E1F0F80
00787C3E1F0F80
00787C3E1F0F80
00787C3E1F0F80
0F878000000000
0F878000000000
0F878000000000
0F878000000000
F0780000000000
F0780000000000
F0780000000000
F0780000000000
F0780000000000
0F800000000000
0F800000000000
0F800000000000
0F800000000000
F0787C3E1F0000
F0787C3E1F0000
F0787C3E1F0000
F0787C3E1F0000
0F8783C1E00000
0F8783C1E00000
0F8783C1E00000
0F8783C1E00000
0F8783C1E00000
F0787C3E1F0000
F0787C3E1F0000
F0787C3E1F0000
F0787C3E1F0000
0F800000000000
0F800000000000
0F800000000000
0F800000000000
0F800000000000
F0780000000000
F0780000000000
F0780000000000
F0780000000000
0F878000000000
0F878000000000
0F878000000000
0F878000000000
0F878000000000
00787C3E1F0F80
00787C3E1F0F80
00787C3E1F0F80
00787C3E1F0F80
000783C1E0F000
000783C1E0F000
000783C1E0F000
000783C1E0F000
000783C1E0F000
00007C3E1F0F80
00007C3E1F0F80
00007C3E1F0F80
00007C3E1F0F80
ENDCHAR
STARTCHAR 00C9
ENCODING 201
SWIDTH 697 0
DWIDTH 62 0
BBX 49 93 7 0
BITMAP
00000001E0F000
00000001E0F000
00000001E0F000
00000001E0F000
0000003E1F0000
0000003E1F0000
0000003E1F0000
0000003E1F0000
0000003E1F0000
000003C1E00000
000003C1E00000
000003C1E00000
000003C1E00000
00007C3E000000
00007C3E000000
00007C3E000000
00007C3E000000
000783C0000000
000783C0000000
000783C0000000
000783C0000000
000783C0000000
00000000000000
00000000000000
00000000000000
00000000000000
00007C3E1F0F80
00007C3E1F0F80
00007C3E1F0F80
00007C3E1F0F80
00007C3E1F0F80
000783C1E0F000
000783C1E0F000
000783C1E0F000
000783C1E0F000
00787C3E1F0F80
00787C3E1F0F80
00787C3E1F0F80
00787C3E1F0F80
00787C3E1F0F80
0F878000000000
0F878000000000
0F878000000000
0F878000000000
F0780000000000
F0780000000000
F0780000000000
F0780000000000
F0780000000000
0F800000000000
0F800000000000
0F800000000000
0F800000000000
F0787C3E1F0000
F0787C3E1F0000
F0787C3E1F0000
F0787C3E1F0000
0F8783C1E00000
0F8783C1E00000
0F8783C1E00000
0F8783C1E00000
0F8783C1E00000
F0787C3E1F0000
F0787C3E1F0000
F0787C3E1F0000
F0787C3E1F0000
0F800000000000
0F800000000000
0F800000000000
0F800000000000
0F800000000000
F0780000000000
F0780000000000
F0780000000000
F0780000000000
0F878000000000
0F878000000000
0F878000000000
0F878000000000
0F878000000000
00787C3E1F0F80
00787C3E1F0F80
00787C3E1F0F80
00787C3E1F0F80
000783C1E0F000
000783C1E0F000
000783C1E0F000
000783C1E0F000
000783C1E0F000
00007C3E1F0F80
00007C3E1F0F80
00007C3E1F0F80
00007C3E1F0F80
ENDCHAR
STARTCHAR 00CA
ENCODING 202
SWIDTH 697 0
DWIDTH 62 0
BBX 49 93 7 0
BITMAP
00007C3E000000
00007C3E000000
00007C3E000000
00007C3E000000
000783C1E00000
000783C1E00000
000783C1E00000
000783C1E00000
000783C1E00000
00787C3E1F0000
00787C3E1F0000
00787C3E1F0000
00787C3E1F0000
00078001E00000
00078001E00000
00078001E00000
00078001E00000
00787C3E1F0000
00787C3E1F0000
00787C3E1F0000
00787C3E1F0000
00787C3E1F0000
00000000000000
00000000000000
00000000000000
00000000000000
00007C3E1F0F80
00007C3E1F0F80
00007C3E1F0F80
00007C3E1F0F80
00007C3E1F0F80
000783C1E0F000
000783C1E0F000
000783C1E0F000
000783C1E0F000
00787C3E1F0F80
00787C3E1F0F80
00787C3E1F0F80
00787C3E1F0F80
00787C3E1F0F80
0F878000000000
0F878000000000
0F878000000000
0F878000000000
F0780000000000
F0780000000000
F0780000000000
F0780000000000
F0780000000000
0F800000000000
0F800000000000
0F800000000000
0F800000000000
F0787C3E1F0000
F0787C3E1F0000
F0787C3E1F0000
F0787C3E1F0000
0F8783C1E00000
0F8783C1E00000
0F8783C1E00000
0F8783C1E00000
0F8783C1E00000
F0787C3E1F0000
F0787C3E1F0000
F0787C3E1F0000
F0787C3E1F0000
0F800000000000
0F800000000000
0F800000000000
0F800000000000
0F800000000000
F0780000000000
F0780000000000
F0780000000000
F0780000000000
0F878000000000
0F878000000000
0F878000000000
0F878000000000
0F878000000000
00787C3E1F0F80
00787C3E1F0F80
00787C3E1F0F80
00787C3E1F0F80
000783C1E0F000
000783C1E0F000
000783C1E0F000
000783C1E0F000
000783C1E0F000
00007C3E1F0F80
00007C3E1F0F80
00007C3E1F0F80
00007C3E1F0F80
ENDCHAR
STARTCHAR 00CB
ENCODING 203
SWIDTH 697 0
DWIDTH 62 0
BBX 49 84 7 0
BITMAP
00787C3E1F0000
00787C3E1F0000
00787C3E1F0000
00787C3E1F0000
00078001E00000
00078001E00000
00078001E00000
00078001E00000
00787C3E1F0000
00787C3E1F0000
00787C3E1F0000
00787C3E1F0000
00787C3E1F0000
00000000000000
00000000000000
00000000000000
00000000000000
00007C3E1F0F80
00007C3E1F0F80
00007C3E1F0F80
00007C3E1F0F80
00007C3E1F0F80
000783C1E0F000
000783C1E0F000
000783C1E0F000
000783C1E0F000
00787C3E1F0F80
00787C3E1F0F80
00787C3E1F0F80
00787C3E1F0F80
00787C3E1F0F80
0F878000000000
0F878000000000
0F878000000000
0F878000000000
F0780000000000
F0780000000000
F0780000000000
F0780000000000
F0780000000000
0F800000000000
0F800000000000
0F800000000000
0F800000000000
F0787C3E1F0000
F0787C3E1F0000
F0787C3E1F0000
F0787C3E1F0000
0F8783C1E00000
0F8783C1E00000
0F8783C1E00000
0F8783C1E00000
0F8783C1E00000
F0787C3E1F0000
F0787C3E1F0000
F0787C3E1F0000
F0787C3E1F0000
0F800000000000
0F800000000000
0F800000000000
0F800000000000
0F800000000000
F0780000000000
F0780000000000
F0780000000000
F0780000000000
0F878000000000
0F878000000000
0F878000000000
0F878000000000
0F878000000000
00787C3E1F0F80
00787C3E1F0F80
00787C3E1F0F80
00787C3E1F0F80
000783C1E0F000
000783C1E0F000
000783C1E0F000
000783C1E0F000
000783C1E0F000
00007C3E1F0F80
00007C3E1F0F80
00007C3E1F0F80
00007C3E1F0F80
ENDCHAR
STARTCHAR 00CC
ENCODING 204
SWIDTH 495 0
DWIDTH 44 0
BBX 40 93 -2 0
BITMAP
F078000000
F078000000
F078000000
F078000000
0F87C00000
0F87C00000
0F87C00000
0F87C00000
0F87C00000
00783C0000
00783C0000
00783C0000
00783C0000
0007C3C000
0007C3C000
0007C3C000
0007C3C000
00003C3E00
00003C3E00
00003C3E00
00003C3E00
00003C3E00
0000000000
0000000000
0000000000
0000000000
00783C3E1F
00783C3E1F
00783C3E1F
00783C3E1F
00783C3E1F
0007C3C1E0
0007C3C1E0
0007C3C1E0
0007C3C1E0
00783C3E1F
00783C3E1F
00783C3E1F
00783C3E1F
00783C3E1F
000003C000
000003C000
000003C000
000003C000
00003C3E00
00003C3E00
00003C3E00
00003C3E00
00003C3E00
000003C000
000003C000
000003C000
000003C000
00003C3E00
00003C3E00
00003C3E00
00003C3E00
000003C000
000003C000
000003C000
000003C000
000003C000
00003C3E00
00003C3E00
00003C3E00
00003C3E00
000003C000
000003C000
000003C000
000003C000
000003C000
00003C3E00
00003C3E00
00003C3E00
00003C3E00
000003C000
000003C000
000003C000
000003C000
000003C000
00783C3E1F
00783C3E1F
00783C3E1F
00783C3E1F
0007C3C1E0
0007C3C1E0
0007C3C1E0
0007C3C1E0
0007C3C1E0
00783C3E1F
00783C3E1F
00783C3E1F
00783C3E1F
ENDCHAR
STARTCHAR 00CD
ENCODING 205
SWIDTH 495 0
DWIDTH 44 0
BBX 35 93 7 0
BITMAP
000003C1E0
000003C1E0
000003C1E0
000003C1E0
00007C3E00
00007C3E00
00007C3E00
00007C3E00
00007C3E00
000783C000
000783C000
000783C000
000783C000
00787C0000
00787C0000
00787C0000
00787C0000
0F87800000
0F87800000
0F87800000
0F87800000
0F87800000
0000000000
0000000000
0000000000
0000000000
F0787C3E00
F0787C3E00
F0787C3E00
F0787C3E00
F0787C3E00
0F8783C000
0F8783C000
0F8783C000
0F8783C000
F0787C3E00
F0787C3E00
F0787C3E00
F0787C3E00
F0787C3E00
0007800000
0007800000
0007800000
0007800000
00787C0000
00787C0000
00787C0000
00787C0000
00787C0000
0007800000
0007800000
0007800000
0007800000
00787C0000
00787C0000
00787C0000
00787C0000
0007800000
0007800000
0007800000
0007800000
0007800000
00787C0000
00787C0000
00787C0000
00787C0000
0007800000
0007800000
0007800000
0007800000
0007800000
00787C0000
00787C0000
00787C0000
00787C0000
0007800000
0007800000
0007800000
0007800000
0007800000
F0787C3E00
F0787C3E00
F0787C3E00
F0787C3E00
0F8783C000
0F8783C000
0F8783C000
0F8783C000
0F8783C000
F0787C3E00
F0787C3E00
F0787C3E00
F0787C3E00
ENDCHAR
STARTCHAR 00CE
ENCODING 206
SWIDTH 495 0
DWIDTH 44 0
BBX 31 93 7 0
BITMAP
00787C00
00787C00
00787C00
00787C00
0F8783C0
0F8783C0
0F8783C0
0F8783C0
0F8783C0
F0787C3E
F0787C3E
F0787C3E
F0787C3E
0F8003C0
0F8003C0
0F8003C0
0F8003C0
F0787C3E
F0787C3E
F0787C3E
F0787C3E
F0787C3E
00000000
00000000
00000000
00000000
F0787C3E
F0787C3E
F0787C3E
F0787C3E
F0787C3E
0F8783C0
0F8783C0
0F8783C0
0F8783C0
F0787C3E
F0787C3E
F0787C3E
F0787C3E
F0787C3E
00078000
00078000
00078000
00078000
00787C00
00787C00
00787C00
00787C00
00787C00
00078000
00078000
00078000
00078000
00787C00
00787C00
00787C00
00787C00
00078000
00078000
00078000
00078000
00078000
00787C00
00787C00
00787C00
00787C00
00078000
00078000
00078000
00078000
00078000
00787C00
00787C00
00787C00
00787C00
00078000
00078000
00078000
00078000
00078000
F0787C3E
F0787C3E
F0787C3E
F0787C3E
0F8783C0
0F8783C0
0F8783C0
0F8783C0
0F8783C0
F0787C3E
F0787C3E
F0787C3E
F0787C3E
ENDCHAR
STARTCHAR 00CF
ENCODING 207
SWIDTH 495 0
DWIDTH 44 0
BBX 31 84 7 0
BITMAP
F0787C3E
F0787C3E
F0787C3E
F0787C3E
0F8003C0
0F8003C0
0F8003C0
0F8003C0
F0787C3E
F0787C3E
F0787C3E
F0787C3E
F0787C3E
00000000
00000000
00000000
00000000
F0787C3E
F0787C3E
F0787C3E
F0787C3E
F0787C3E
0F8783C0
0F8783C0
0F8783C0
0F8783C0
F0787C3E
F0787C3E
F0787C3E
F0787C3E
F0787C3E
00078000
00078000
00078000
00078000
00787C00
00787C00
00787C00
00787C00
00787C00
00078000
00078000
00078000
00078000
00787C00
00787C00
00787C00
00787C00
00078000
00078000
00078000
00078000
00078000
00787C00
00787C00
00787C00
00787C00
00078000
00078000
00078000
00078000
00078000
00787C00
00787C00
00787C00
00787C00
00078000
00078000
00078000
00078000
00078000
F0787C3E
F0787C3E
F0787C3E
F0787C3E
0F8783C0
0F8783C0
0F8783C0
0F8783C0
0F8783C0
F0787C3E
F0787C3E
F0787C3E
F0787C3E
ENDCHAR
STARTCHAR 00D0
ENCODING 208
SWIDTH 843 0
DWIDTH 75 0
BBX 67 67 2 0
BITMAP
007C3C1E0F07800000
007C3C1E0F07800000
007C3C1E0F07800000
007C3C1E0F07800000
007C3C1E0F07800000
0003C3E1F0F87C0000
0003C3E1F0F87C0000
0003C3E1F0F87C0000
0003C3E1F0F87C0000
007C3C1E0F0783C000
007C3C1E0F0783C000
007C3C1E0F0783C000
007C3C1E0F0783C000
007C3C1E0F0783C000
0003C00000007C3C00
0003C00000007C3C00
0003C00000007C3C00
0003C00000007C3C00
007C3C00000003C3E0
007C3C00000003C3E0
007C3C00000003C3E0
007C3C00000003C3E0
007C3C00000003C3E0
0003C0000000003C00
0003C0000000003C00
0003C0000000003C00
0003C0000000003C00
F87C3C1E000003C3E0
F87C3C1E000003C3E0
F87C3C1E000003C3E0
F87C3C1E000003C3E0
0783C3E00000003C00
0783C3E00000003C00
0783C3E00000003C00
0783C3E00000003C00
0783C3E00000003C00
F87C3C1E000003C3E0
F87C3C1E000003C3E0
F87C3C1E000003C3E0
F87C3C1E000003C3E0
0003C0000000003C00
0003C0000000003C00
0003C0000000003C00
0003C0000000003C00
0003C0000000003C00
007C3C00000003C3E0
007C3C00000003C3E0
007C3C00000003C3E0
007C3C00000003C3E0
0003C00000007C3C00
0003C00000007C3C00
0003C00000007C3C00
0003C00000007C3C00
0003C00000007C3C00
007C3C1E0F0783C000
007C3C1E0F0783C000
007C3C1E0F0783C000
007C3C1E0F0783C000
0003C3E1F0F87C0000
0003C3E1F0F87C0000
0003C3E1F0F87C0000
0003C3E1F0F87C0000
0003C3E1F0F87C0000
007C3C1E0F07800000
007C3C1E0F07800000
007C3C1E0F07800000
007C3C1E0F07800000
ENDCHAR
STARTCHAR 00D1
ENCODING 209
SWIDTH 798 0
DWIDTH 71 0
BBX 57 93 7 0
BITMAP
000783C000F07800
000783C000F07800
000783C000F07800
000783C000F07800
00787C3E000F8000
00787C3E000F8000
00787C3E000F8000
00787C3E000F8000
00787C3E000F8000
0F8783C1E0F07800
0F8783C1E0F07800
0F8783C1E0F07800
0F8783C1E0F07800
0078003E1F0F8000
0078003E1F0F8000
0078003E1F0F8000
0078003E1F0F8000
0F878001E0F00000
0F878001E0F00000
0F878001E0F00000
0F878001E0F00000
0F878001E0F00000
0000000000000000
0000000000000000
0000000000000000
0000000000000000
F0780000000F8780
F0780000000F8780
F0780000000F8780
F0780000000F8780
F0780000000F8780
0F87800000007800
0F87800000007800
0F87800000007800
0F87800000007800
F0787C00000F8780
F0787C00000F8780
F0787C00000F8780
F0787C00000F8780
F0787C00000F8780
0F8783C000007800
0F8783C000007800
0F8783C000007800
0F8783C000007800
F0787C3E000F8780
F0787C3E000F8780
F0787C3E000F8780
F0787C3E000F8780
F0787C3E000F8780
0F8003C1E0007800
0F8003C1E0007800
0F8003C1E0007800
0F8003C1E0007800
F078003E1F0F8780
F078003E1F0F8780
F078003E1F0F8780
F078003E1F0F8780
0F800001E0F07800
0F800001E0F07800
0F800001E0F07800
0F800001E0F07800
0F800001E0F07800
F07800001F0F8780
F07800001F0F8780
F07800001F0F8780
F07800001F0F8780
0F80000000F07800
0F80000000F07800
0F80000000F07800
0F80000000F07800
0F80000000F07800
F0780000000F8780
F0780000000F8780
F0780000000F8780
F0780000000F8780
0F80000000007800
0F80000000007800
0F80000000007800
0F80000000007800
0F80000000007800
F0780000000F8780
F0780000000F8780
F0780000000F8780
F0780000000F8780
0F80000000007800
0F80000000007800
0F80000000007800
0F80000000007800
0F80000000007800
F0780000000F8780
F0780000000F8780
F0780000000F8780
F0780000000F8780
ENDCHAR
STARTCHAR 00D2
ENCODING 210
SWIDTH 798 0
DWIDTH 71 0
BBX 57 93 7 0
BITMAP
0F87800000000000
0F87800000000000
0F87800000000000
0F87800000000000
00787C0000000000
00787C0000000000
00787C0000000000
00787C0000000000
00787C0000000000
000783C000000000
000783C000000000
000783C000000000
000783C000000000
00007C3E00000000
00007C3E00000000
00007C3E00000000
00007C3E00000000
000003C1E0000000
000003C1E0000000
000003C1E0000000
000003C1E0000000
000003C1E0000000
0000000000000000
0000000000000000
0000000000000000
0000000000000000
00007C3E1F000000
00007C3E1F000000
00007C3E1F000000
00007C3E1F000000
00007C3E1F000000
000783C1E0F00000
000783C1E0F00000
000783C1E0F00000
000783C1E0F00000
00787C3E1F0F8000
00787C3E1F0F8000
00787C3E1F0F8000
00787C3E1F0F8000
00787C3E1F0F8000
0F87800000F07800
0F87800000F07800
0F87800000F07800
0F87800000F07800
F0780000000F8780
F0780000000F8780
F0780000000F8780
F0780000000F8780
F0780000000F8780
0F80000000007800
0F80000000007800
0F80000000007800
0F80000000007800
F0780000000F8780
F0780000000F8780
F0780000000F8780
F0780000000F8780
0F80000000007800
0F80000000007800
0F80000000007800
0F80000000007800
0F80000000007800
F0780000000F8780
F0780000000F8780
F0780000000F8780
F0780000000F8780
0F80000000007800
0F80000000007800
0F80000000007800
0F80000000007800
0F80000000007800
F0780000000F8780
F0780000000F8780
F0780000000F8780
F0780000000F8780
0F87800000F07800
0F87800000F07800
0F87800000F07800
0F87800000F07800
0F87800000F07800
00787C3E1F0F8000
00787C3E1F0F8000
00787C3E1F0F8000
00787C3E1F0F8000
000783C1E0F00000
000783C1E0F00000
000783C1E0F00000
000783C1E0F00000
000783C1E0F00000
00007C3E1F000000
00007C3E1F000000
00007C3E1F000000
00007C3E1F000000
ENDCHAR
STARTCHAR 00D3
ENCODING 211
SWIDTH 798 0
DWIDTH 71 0
BBX 57 93 7 0
BITMAP
000000001F0F8000
000000001F0F8000
000000001F0F8000
000000001F0F8000
00000001E0F00000
00000001E0F00000
00000001E0F00000
00000001E0F00000
00000001E0F00000
0000003E1F000000
0000003E1F000000
0000003E1F000000
0000003E1F000000
000003C1E0000000
000003C1E0000000
000003C1E0000000
000003C1E0000000
00007C3E00000000
00007C3E00000000
00007C3E00000000
00007C3E00000000
00007C3E00000000
0000000000000000
0000000000000000
0000000000000000
0000000000000000
00007C3E1F000000
00007C3E1F000000
00007C3E1F000000
00007C3E1F000000
00007C3E1F000000
000783C1E0F00000
000783C1E0F00000
000783C1E0F00000
000783C1E0F00000
00787C3E1F0F8000
00787C3E1F0F8000
00787C3E1F0F8000
00787C3E1F0F8000
00787C3E1F0F8000
0F87800000F07800
0F87800000F07800
0F87800000F07800
0F87800000F07800
F0780000000F8780
F0780000000F8780
F0780000000F8780
F0780000000F8780
F0780000000F8780
0F80000000007800
0F80000000007800
0F80000000007800
0F80000000007800
F0780000000F8780
F0780000000F8780
F0780000000F8780
F0780000000F8780
0F80000000007800
0F80000000007800
0F80000000007800
0F80000000007800
0F80000000007800
F0780000000F8780
F0780000000F8780
F0780000000F8780
F0780000000F8780
0F80000000007800
0F80000000007800
0F80000000007800
0F80000000007800
0F80000000007800
F0780000000F8780
F0780000000F8780
F0780000000F8780
F0780000000F8780
0F87800000F07800
0F87800000F07800
0F87800000F07800
0F87800000F07800
0F87800000F07800
00787C3E1F0F8000
00787C3E1F0F8000
00787C3E1F0F8000
00787C3E1F0F8000
000783C1E0F00000
000783C1E0F00000
000783C1E0F00000
000783C1E0F00000
000783C1E0F00000
00007C3E1F000000
00007C3E1F000000
00007C3E1F000000
00007C3E1F000000
ENDCHAR
STARTCHAR 00D4
ENCODING 212
SWIDTH 798 0
DWIDTH 71 0
BBX 57 93 7 0
BITMAP
000003C1E0000000
000003C1E0000000
000003C1E0000000
000003C1E0000000
00007C3E1F000000
00007C3E1F000000
00007C3E1F000000
00007C3E1F000000
00007C3E1F000000
000783C1E0F00000
000783C1E0F00000
000783C1E0F00000
000783C1E0F00000
00007C001F000000
00007C001F000000
00007C001F000000
00007C001F000000
000783C1E0F00000
000783C1E0F00000
000783C1E0F00000
000783C1E0F00000
000783C1E0F00000
0000000000000000
0000000000000000
0000000000000000
0000000000000000
00007C3E1F000000
00007C3E1F000000
00007C3E1F000000
00007C3E1F000000
00007C3E1F000000
000783C1E0F00000
000783C1E0F00000
000783C1E0F00000
000783C1E0F00000
00787C3E1F0F8000
00787C3E1F0F8000
00787C3E1F0F8000
00787C3E1F0F8000
00787C3E1F0F8000
0F87800000F07800
0F87800000F07800
0F87800000F07800
0F87800000F07800
F0780000000F8780
F0780000000F8780
F0780000000F8780
F0780000000F8780
F0780000000F8780
0F80000000007800
0F80000000007800
0F80000000007800
0F80000000007800
F0780000000F8780
F0780000000F8780
F0780000000F8780
F0780000000F8780
0F80000000007800
0F80000000007800
0F80000000007800
0F80000000007800
0F80000000007800
F0780000000F8780
F0780000000F8780
F0780000000F8780
F0780000000F8780
0F80000000007800
0F80000000007800
0F80000000007800
0F80000000007800
0F80000000007800
F0780000000F8780
F0780000000F8780
F0780000000F8780
F0780000000F8780
0F87800000F07800
0F87800000F07800
0F87800000F07800
0F87800000F07800
0F87800000F07800
00787C3E1F0F8000
00787C3E1F0F8000
00787C3E1F0F8000
00787C3E1F0F8000
000783C1E0F00000
000783C1E0F00000
000783C1E0F00000
000783C1E0F00000
000783C1E0F00000
00007C3E1F000000
00007C3E1F000000
00007C3E1F000000
00007C3E1F000000
ENDCHAR
STARTCHAR 00D5
ENCODING 213
SWIDTH 798 0
DWIDTH 71 0
BBX 57 93 7 0
BITMAP
000783C000F07800
000783C000F07800
000783C000F07800
000783C000F07800
00787C3E000F8000
00787C3E000F8000
00787C3E000F8000
00787C3E000F8000
00787C3E000F8000
0F8783C1E0F07800
0F8783C1E0F07800
0F8783C1E0F07800
0F8783C1E0F07800
0078003E1F0F8000
0078003E1F0F8000
0078003E1F0F8000
0078003E1F0F8000
0F878001E0F00000
0F878001E0F00000
0F878001E0F00000
0F878001E0F00000
0F878001E0F00000
0000000000000000
0000000000000000
0000000000000000
0000000000000000
00007C3E1F000000
00007C3E1F000000
00007C3E1F000000
00007C3E1F000000
00007C3E1F000000
000783C1E0F00000
000783C1E0F00000
000783C1E0F00000
000783C1E0F00000
00787C3E1F0F8000
00787C3E1F0F8000
00787C3E1F0F8000
00787C3E1F0F8000
00787C3E1F0F8000
0F87800000F07800
0F87800000F07800
0F87800000F07800
0F87800000F07800
F0780000000F8780
F0780000000F8780
F0780000000F8780
F0780000000F8780
F0780000000F8780
0F80000000007800
0F80000000007800
0F80000000007800
0F80000000007800
F0780000000F8780
F0780000000F8780
F0780000000F8780
F0780000000F8780
0F80000000007800
0F80000000007800
0F80000000007800
0F80000000007800
0F80000000007800
F0780000000F8780
F0780000000F8780
F0780000000F8780
F0780000000F8780
0F80000000007800
0F80000000007800
0F80000000007800
0F80000000007800
0F80000000007800
F0780000000F8780
F0780000000F8780
F0780000000F8780
F0780000000F8780
0F87800000F07800
0F87800000F07800
0F87800000F07800
0F87800000F07800
0F87800000F07800
00787C3E1F0F8000
00787C3E1F0F8000
00787C3E1F0F8000
00787C3E1F0F8000
000783C1E0F00000
000783C1E0F00000
000783C1E0F00000
000783C1E0F00000
000783C1E0F00000
00007C3E1F000000
00007C3E1F000000
00007C3E1F000000
00007C3E1F000000
ENDCHAR
STARTCHAR 00D6
ENCODING 214
SWIDTH 798 0
DWIDTH 71 0
BBX 57 84 7 0
BITMAP
000783C1E0F00000
000783C1E0F00000
000783C1E0F00000
000783C1E0F00000
00007C001F000000
00007C001F000000
00007C001F000000
00007C001F000000
000783C1E0F00000
000783C1E0F00000
000783C1E0F00000
000783C1E0F00000
000783C1E0F00000
0000000000000000
0000000000000000
0000000000000000
0000000000000000
00007C3E1F000000
00007C3E1F000000
00007C3E1F000000
00007C3E1F000000
00007C3E1F000000
000783C1E0F00000
000783C1E0F00000
000783C1E0F00000
000783C1E0F00000
00787C3E1F0F8000
00787C3E1F0F8000
00787C3E1F0F8000
00787C3E1F0F8000
00787C3E1F0F8000
0F87800000F07800
0F87800000F07800
0F87800000F07800
0F87800000F07800
F0780000000F8780
F0780000000F8780
F0780000000F8780
F0780000000F8780
F0780000000F8780
0F80000000007800
0F80000000007800
0F80000000007800
0F80000000007800
F0780000000F8780
F0780000000F8780
F0780000000F8780
F0780000000F8780
0F80000000007800
0F80000000007800
0F80000000007800
0F80000000007800
0F80000000007800
F0780000000F8780
F0780000000F8780
F0780000000F8780
F0780000000F8780
0F80000000007800
0F80000000007800
0F80000000007800
0F80000000007800
0F80000000007800
F0780000000F8780
F0780000000F8780
F0780000000F8780
F0780000000F8780
0F87800000F07800
0F87800000F07800
0F87800000F07800
0F87800000F07800
0F87800000F07800
00787C3E1F0F8000
00787C3E1F0F8000
00787C3E1F0F8000
00787C3E1F0F8000
000783C1E0F00000
000783C1E0F00000
000783C1E0F00000
000783C1E0F00000
000783C1E0F00000
00007C3E1F000000
00007C3E1F000000
00007C3E1F000000
00007C3E1F000000
ENDCHAR
STARTCHAR 00D7
ENCODING 215
SWIDTH 697 0
DWIDTH 62 0
BBX 49 53 7 9
BITMAP
0F80000000F000
0F80000000F000
0F80000000F000
0F80000000F000
F07800001F0F80
F07800001F0F80
F07800001F0F80
F07800001F0F80
F07800001F0F80
0F878001E0F000
0F878001E0F000
0F878001E0F000
0F878001E0F000
00787C3E1F0000
00787C3E1F0000
00787C3E1F0000
00787C3E1F0000
00787C3E1F0000
000783C1E00000
000783C1E00000
000783C1E00000
000783C1E00000
00007C3E000000
00007C3E000000
00007C3E000000
00007C3E000000
000783C1E00000
000783C1E00000
000783C1E00000
000783C1E00000
000783C1E00000
00787C3E1F0000
00787C3E1F0000
00787C3E1F0000
00787C3E1F0000
0F878001E0F000
0F878001E0F000
0F878001E0F000
0F878001E0F000
0F878001E0F000
F07800001F0F80
F07800001F0F80
F07800001F0F80
F07800001F0F80
0F80000000F000
0F80000000F000
0F80000000F000
0F80000000F000
0F80000000F000
F07800001F0F80
F07800001F0F80
F07800001F0F80
F07800001F0F80
ENDCHAR
STARTCHAR 00D8
ENCODING 216
SWIDTH 900 0
DWIDTH 80 0
BBX 76 67 2 0
BITMAP
0000001E0F0780000000
0000001E0F0780000000
0000001E0F0780000000
0000001E0F0780000000
0000001E0F0780000000
000003E1F0F87C000000
000003E1F0F87C000000
000003E1F0F87C000000
000003E1F0F87C000000
00003C1E0F0783C00000
00003C1E0F0783C00000
00003C1E0F0783C00000
00003C1E0F0783C00000
00003C1E0F0783C00000
0003C3E000007C3C0000
0003C3E000007C3C0000
0003C3E000007C3C0000
0003C3E000007C3C0000
007C3C00000003C3E000
007C3C00000003C3E000
007C3C00000003C3E000
007C3C00000003C3E000
007C3C00000003C3E000
0003C0000000003C0000
0003C0000000003C0000
0003C0000000003C0000
0003C0000000003C0000
F87C3C1E0F0783C3E1F0
F87C3C1E0F0783C3E1F0
F87C3C1E0F0783C3E1F0
F87C3C1E0F0783C3E1F0
0783C3E1F0F87C3C1E00
0783C3E1F0F87C3C1E00
0783C3E1F0F87C3C1E00
0783C3E1F0F87C3C1E00
0783C3E1F0F87C3C1E00
F87C3C1E0F0783C3E1F0
F87C3C1E0F0783C3E1F0
F87C3C1E0F0783C3E1F0
F87C3C1E0F0783C3E1F0
0003C0000000003C0000
0003C0000000003C0000
0003C0000000003C0000
0003C0000000003C0000
0003C0000000003C0000
007C3C00000003C3E000
007C3C00000003C3E000
007C3C00000003C3E000
007C3C00000003C3E000
0003C3E000007C3C0000
0003C3E000007C3C0000
0003C3E000007C3C0000
0003C3E000007C3C0000
0003C3E000007C3C0000
00003C1E0F0783C00000
00003C1E0F0783C00000
00003C1E0F0783C00000
00003C1E0F0783C00000
000003E1F0F87C000000
000003E1F0F87C000000
000003E1F0F87C000000
000003E1F0F87C000000
000003E1F0F87C000000
0000001E0F0780000000
0000001E0F0780000000
0000001E0F0780000000
0000001E0F0780000000
ENDCHAR
STARTCHAR 00D9
ENCODING 217
SWIDTH 798 0
DWIDTH 71 0
BBX 57 93 7 0
BITMAP
0F87800000000000
0F87800000000000
0F87800000000000
0F87800000000000
00787C0000000000
00787C0000000000
00787C0000000000
00787C0000000000
00787C0000000000
000783C000000000
000783C000000000
000783C000000000
000783C000000000
00007C3E00000000
00007C3E00000000
00007C3E00000000
00007C3E00000000
000003C1E0000000
000003C1E0000000
000003C1E0000000
000003C1E0000000
000003C1E0000000
0000000000000000
0000000000000000
0000000000000000
0000000000000000
F0780000000F8780
F0780000000F8780
F0780000000F8780
F0780000000F8780
F0780000000F8780
0F80000000007800
0F80000000007800
0F80000000007800
0F80000000007800
F0780000000F8780
F0780000000F8780
F0780000000F8780
F0780000000F8780
F0780000000F8780
0F80000000007800
0F80000000007800
0F80000000007800
0F80000000007800
F0780000000F8780
F0780000000F8780
F0780000000F8780
F0780000000F8780
F0780000000F8780
0F80000000007800
0F80000000007800
0F80000000007800
0F80000000007800
F0780000000F8780
F0780000000F8780
F0780000000F8780
F0780000000F8780
0F80000000007800
0F80000000007800
0F80000000007800
0F80000000007800
0F80000000007800
F0780000000F8780
F0780000000F8780
F0780000000F8780
F0780000000F8780
0F80000000007800
0F80000000007800
0F80000000007800
0F80000000007800
0F80000000007800
F0780000000F8780
F0780000000F8780
F0780000000F8780
F0780000000F8780
0F87800000F07800
0F87800000F07800
0F87800000F07800
0F87800000F07800
0F87800000F07800
00787C3E1F0F8000
00787C3E1F0F8000
00787C3E1F0F8000
00787C3E1F0F8000
000783C1E0F00000
000783C1E0F00000
000783C1E0F00000
000783C1E0F00000
000783C1E0F00000
00007C3E1F000000
00007C3E1F000000
00007C3E1F000000
00007C3E1F000000
ENDCHAR
STARTCHAR 00DA
ENCODING 218
SWIDTH 798 0
DWIDTH 71 0
BBX 57 93 7 0
BITMAP
000000001F0F8000
000000001F0F8000
000000001F0F8000
000000001F0F8000
00000001E0F00000
00000001E0F00000
00000001E0F00000
00000001E0F00000
00000001E0F00000
0000003E1F000000
0000003E1F000000
0000003E1F000000
0000003E1F000000
000003C1E0000000
000003C1E0000000
000003C1E0000000
000003C1E0000000
00007C3E00000000
00007C3E00000000
00007C3E00000000
00007C3E00000000
00007C3E00000000
0000000000000000
0000000000000000
0000000000000000
0000000000000000
F0780000000F8780
F0780000000F8780
F0780000000F8780
F0780000000F8780
F0780000000F8780
0F80000000007800
0F80000000007800
0F80000000007800
0F80000000007800
F0780000000F8780
F0780000000F8780
F0780000000F8780
F0780000000F8780
F0780000000F8780
0F80000000007800
0F80000000007800
0F80000000007800
0F80000000007800
F0780000000F8780
F0780000000F8780
F0780000000F8780
F0780000000F8780
F0780000000F8780
0F80000000007800
0F80000000007800
0F80000000007800
0F80000000007800
F0780000000F8780
F0780000000F8780
F0780000000F8780
F0780000000F8780
0F80000000007800
0F80000000007800
0F80000000007800
0F80000000007800
0F80000000007800
F0780000000F8780
F0780000000F8780
F0780000000F8780
F0780000000F8780
0F80000000007800
0F80000000007800
0F80000000007800
0F80000000007800
0F80000000007800
F0780000000F8780
F0780000000F8780
F0780000000F8780
F0780000000F8780
0F87800000F07800
0F87800000F07800
0F87800000F07800
0F87800000F07800
0F87800000F07800
00787C3E1F0F8000
00787C3E1F0F8000
00787C3E1F0F8000
00787C3E1F0F8000
000783C1E0F00000
000783C1E0F00000
000783C1E0F00000
000783C1E0F00000
000783C1E0F00000
00007C3E1F000000
00007C3E1F000000
00007C3E1F000000
00007C3E1F000000
ENDCHAR
STARTCHAR 00DB
ENCODING 219
SWIDTH 798 0
DWIDTH 71 0
BBX 57 93 7 0
BITMAP
000003C1E0000000
000003C1E0000000
000003C1E0000000
000003C1E0000000
00007C3E1F000000
00007C3E1F000000
00007C3E1F000000
00007C3E1F000000
00007C3E1F000000
000783C1E0F00000
000783C1E0F00000
000783C1E0F00000
000783C1E0F00000
00007C001F000000
00007C001F000000
00007C001F000000
00007C001F000000
000783C1E0F00000
000783C1E0F00000
000783C1E0F00000
000783C1E0F00000
000783C1E0F00000
0000000000000000
0000000000000000
0000000000000000
0000000000000000
F0780000000F8780
F0780000000F8780
F0780000000F8780
F0780000000F8780
F0780000000F8780
0F80000000007800
0F80000000007800
0F80000000007800
0F80000000007800
F0780000000F8780
F0780000000F8780
F0780000000F8780
F0780000000F8780
F0780000000F8780
0F80000000007800
0F80000000007800
0F80000000007800
0F80000000007800
F0780000000F8780
F0780000000F8780
F0780000000F8780
F0780000000F8780
F0780000000F8780
0F80000000007800
0F80000000007800
0F80000000007800
0F80000000007800
F0780000000F8780
F0780000000F8780
F0780000000F8780
F0780000000F8780
0F80000000007800
0F80000000007800
0F80000000007800
0F80000000007800
0F80000000007800
F0780000000F8780
F0780000000F8780
F0780000000F8780
F0780000000F8780
0F80000000007800
0F80000000007800
0F80000000007800
0F80000000007800
0F80000000007800
F0780000000F8780
F0780000000F8780
F0780000000F8780
F0780000000F8780
0F87800000F07800
0F87800000F07800
0F87800000F07800
0F87800000F07800
0F87800000F07800
00787C3E1F0F8000
00787C3E1F0F8000
00787C3E1F0F8000
00787C3E1F0F8000
000783C1E0F00000
000783C1E0F00000
000783C1E0F00000
000783C1E0F00000
000783C1E0F00000
00007C3E1F000000
00007C3E1F000000
00007C3E1F000000
00007C3E1F000000
ENDCHAR
STARTCHAR 00DC
ENCODING 220
SWIDTH 798 0
DWIDTH 71 0
BBX 57 84 7 0
BITMAP
000783C1E0F00000
000783C1E0F00000
000783C1E0F00000
000783C1E0F00000
00007C001F000000
00007C001F000000
00007C001F000000
00007C001F000000
000783C1E0F00000
000783C1E0F00000
000783C1E0F00000
000783C1E0F00000
000783C1E0F00000
0000000000000000
0000000000000000
0000000000000000
0000000000000000
F0780000000F8780
F0780000000F8780
F0780000000F8780
F0780000000F8780
F0780000000F8780
0F80000000007800
0F80000000007800
0F80000000007800
0F80000000007800
F0780000000F8780
F0780000000F8780
F0780000000F8780
F0780000000F8780
F0780000000F8780
0F80000000007800
0F80000000007800
0F80000000007800
0F80000000007800
F0780000000F8780
F0780000000F8780
F0780000000F8780
F0780000000F8780
F0780000000F8780
0F80000000007800
0F80000000007800
0F80000000007800
0F80000000007800
F0780000000F8780
F0780000000F8780
F0780000000F8780
F0780000000F8780
0F80000000007800
0F80000000007800
0F80000000007800
0F80000000007800
0F80000000007800
F0780000000F8780
F0780000000F8780
F0780000000F8780
F0780000000F8780
0F80000000007800
0F80000000007800
0F80000000007800
0F80000000007800
0F80000000007800
F0780000000F8780
F0780000000F8780
F0780000000F8780
F0780000000F8780
0F87800000F07800
0F87800000F07800
0F87800000F07800
0F87800000F07800
0F87800000F07800
00787C3E1F0F8000
00787C3E1F0F8000
00787C3E1F0F8000
00787C3E1F0F8000
000783C1E0F00000
000783C1E0F00000
000783C1E0F00000
000783C1E0F00000
000783C1E0F00000
00007C3E1F000000
00007C3E1F000000
00007C3E1F000000
00007C3E1F000000
ENDCHAR
STARTCHAR 00DD
ENCODING 221
SWIDTH 697 0
DWIDTH 62 0
BBX 49 93 7 0
BITMAP
00000001E0F000
00000001E0F000
00000001E0F000
00000001E0F000
0000003E1F0000
0000003E1F0000
0000003E1F0000
0000003E1F0000
0000003E1F0000
000003C1E00000
000003C1E00000
000003C1E00000
000003C1E00000
00007C3E000000
00007C3E000000
00007C3E000000
00007C3E000000
000783C0000000
000783C0000000
000783C0000000
000783C0000000
000783C0000000
00000000000000
00000000000000
00000000000000
00000000000000
F07800001F0F80
F07800001F0F80
F07800001F0F80
F07800001F0F80
F07800001F0F80
0F80000000F000
0F80000000F000
0F80000000F000
0F80000000F000
F07800001F0F80
F07800001F0F80
F07800001F0F80
F07800001F0F80
F07800001F0F80
0F80000000F000
0F80000000F000
0F80000000F000
0F80000000F000
F07800001F0F80
F07800001F0F80
F07800001F0F80
F07800001F0F80
F07800001F0F80
0F80000000F000
0F80000000F000
0F80000000F000
0F80000000F000
F07800001F0F80
F07800001F0F80
F07800001F0F80
F07800001F0F80
0F878001E0F000
0F878001E0F000
0F878001E0F000
0F878001E0F000
0F878001E0F000
00787C3E1F0000
00787C3E1F0000
00787C3E1F0000
00787C3E1F0000
000783C1E00000
000783C1E00000
000783C1E00000
000783C1E00000
000783C1E00000
00007C3E000000
00007C3E000000
00007C3E000000
00007C3E000000
000003C0000000
000003C0000000
000003C0000000
000003C0000000
000003C0000000
00007C3E000000
00007C3E000000
00007C3E000000
00007C3E000000
000003C0000000
000003C0000000
000003C0000000
000003C0000000
000003C0000000
00007C3E000000
00007C3E000000
00007C3E000000
00007C3E000000
ENDCHAR
STARTCHAR 00DE
ENCODING 222
SWIDTH 697 0
DWIDTH 62 0
BBX 49 67 7 0
BITMAP
F0780000000000
F0780000000000
F0780000000000
F0780000000000
F0780000000000
0F800000000000
0F800000000000
0F800000000000
0F800000000000
F0787C3E1F0000
F0787C3E1F0000
F0787C3E1F0000
F0787C3E1F0000
F0787C3E1F0000
0F8783C1E0F000
0F8783C1E0F000
0F8783C1E0F000
0F8783C1E0F000
F0787C3E1F0F80
F0787C3E1F0F80
F0787C3E1F0F80
F0787C3E1F0F80
F0787C3E1F0F80
0F80000000F000
0F80000000F000
0F80000000F000
0F80000000F000
F07800001F0F80
F07800001F0F80
F07800001F0F80
F07800001F0F80
0F80000000F000
0F80000000F000
0F80000000F000
0F80000000F000
0F80000000F000
F07800001F0F80
F07800001F0F80
F07800001F0F80
F07800001F0F80
0F80000000F000
0F80000000F000
0F80000000F000
0F80000000F000
0F80000000F000
F0787C3E1F0F80
F0787C3E1F0F80
F0787C3E1F0F80
F0787C3E1F0F80
0F8783C1E0F000
0F8783C1E0F000
0F8783C1E0F000
0F8783C1E0F000
0F8783C1E0F000
F0787C3E1F0000
F0787C3E1F0000
F0787C3E1F0000
F0787C3E1F0000
0F800000000000
0F800000000000
0F800000000000
0F800000000000
0F800000000000
F0780000000000
F0780000000000
F0780000000000
F0780000000000
ENDCHAR
STARTCHAR 00DF
ENCODING 223
SWIDTH 697 0
DWIDTH 62 0
BBX 49 67 7 0
BITMAP
00787C3E1F0000
00787C3E1F0000
00787C3E1F0000
00787C3E1F0000
00787C3E1F0000
0F8783C1E0F000
0F8783C1E0F000
0F8783C1E0F000
0F8783C1E0F000
F0787C3E1F0F80
F0787C3E1F0F80
F0787C3E1F0F80
F0787C3E1F0F80
F0787C3E1F0F80
0F80000000F000
0F80000000F000
0F80000000F000
0F80000000F000
F07800001F0F80
F07800001F0F80
F07800001F0F80
F07800001F0F80
F07800001F0F80
0F800001E0F000
0F800001E0F000
0F800001E0F000
0F800001E0F000
F0787C3E1F0000
F0787C3E1F0000
F0787C3E1F0000
F0787C3E1F0000
0F8003C1E0F000
0F8003C1E0F000
0F8003C1E0F000
0F8003C1E0F000
0F8003C1E0F000
F0787C3E1F0F80
F0787C3E1F0F80
F0787C3E1F0F80
F0787C3E1F0F80
0F80000000F000
0F80000000F000
0F80000000F000
0F80000000F000
0F80000000F000
F07800001F0F80
F07800001F0F80
F07800001F0F80
F07800001F0F80
0F80000000F000
0F80000000F000
0F80000000F000
0F80000000F000
0F80000000F000
F0787C3E1F0F80
F0787C3E1F0F80
F0787C3E1F0F80
F0787C3E1F0F80
0F8003C1E0F000
0F8003C1E0F000
0F8003C1E0F000
0F8003C1E0F000
0F8003C1E0F000
F0787C3E1F0000
F0787C3E1F0000
F0787C3E1F0000
F0787C3E1F0000
ENDCHAR
STARTCHAR 00E0
ENCODING 224
SWIDTH 697 0
DWIDTH 62 0
BBX 49 93 7 0
BITMAP
F0780000000000
F0780000000000
F0780000000000
F0780000000000
0F878000000000
0F878000000000
0F878000000000
0F878000000000
0F878000000000
00787C00000000
00787C00000000
00787C00000000
00787C00000000
000783C0000000
000783C0000000
000783C0000000
000783C0000000
00007C3E000000
00007C3E000000
00007C3E000000
00007C3E000000
00007C3E000000
00000000000000
00000000000000
00000000000000
00000000000000
00787C3E1F0000
00787C3E1F0000
00787C3E1F0000
00787C3E1F0000
00787C3E1F0000
0F8783C1E0F000
0F8783C1E0F000
0F8783C1E0F000
0F8783C1E0F000
F0787C3E1F0F80
F0787C3E1F0F80
F0787C3E1F0F80
F0787C3E1F0F80
F0787C3E1F0F80
0F80000000F000
0F80000000F000
0F80000000F000
0F80000000F000
F07800001F0F80
F07800001F0F80
F07800001F0F80
F07800001F0F80
F07800001F0F80
0F80000000F000
0F80000000F000
0F80000000F000
0F80000000F000
F07800001F0F80
F07800001F0F80
F07800001F0F80
F07800001F0F80
0F80000000F000
0F80000000F000
0F80000000F000
0F80000000F000
0F80000000F000
F0787C3E1F0F80
F0787C3E1F0F80
F0787C3E1F0F80
F0787C3E1F0F80
0F8783C1E0F000
0F8783C1E0F000
0F8783C1E0F000
0F8783C1E0F000
0F8783C1E0F000
F0787C3E1F0F80
F0787C3E1F0F80
F0787C3E1F0F80
F0787C3E1F0F80
0F80000000F000
0F80000000F000
0F80000000F000
0F80000000F000
0F80000000F000
F07800001F0F80
F07800001F0F80
F07800001F0F80
F07800001F0F80
0F80000000F000
0F80000000F000
0F80000000F000
0F80000000F000
0F80000000F000
F07800001F0F80
F07800001F0F80
F07800001F0F80
F07800001F0F80
ENDCHAR
STARTCHAR 00E1
ENCODING 225
SWIDTH 697 0
DWIDTH 62 0
BBX 49 93 7 0
BITMAP
00000001E0F000
00000001E0F000
00000001E0F000
00000001E0F000
0000003E1F0000
0000003E1F0000
0000003E1F0000
0000003E1F0000
0000003E1F0000
000003C1E00000
000003C1E00000
000003C1E00000
000003C1E00000
00007C3E000000
00007C3E000000
00007C3E000000
00007C3E000000
000783C0000000
000783C0000000
000783C0000000
000783C0000000
000783C0000000
00000000000000
00000000000000
00000000000000
00000000000000
00787C3E1F0000
00787C3E1F0000
00787C3E1F0000
00787C3E1F0000
00787C3E1F0000
0F8783C1E0F000
0F8783C1E0F000
0F8783C1E0F000
0F8783C1E0F000
F0787C3E1F0F80
F0787C3E1F0F80
F0787C3E1F0F80
F0787C3E1F0F80
F0787C3E1F0F80
0F80000000F000
0F80000000F000
0F80000000F000
0F80000000F000
F07800001F0F80
F07800001F0F80
F07800001F0F80
F07800001F0F80
F07800001F0F80
0F80000000F000
0F80000000F000
0F80000000F000
0F80000000F000
F07800001F0F80
F07800001F0F80
F07800001F0F80
F07800001F0F80
0F80000000F000
0F80000000F000
0F80000000F000
0F80000000F000
0F80000000F000
F0787C3E1F0F80
F0787C3E1F0F80
F0787C3E1F0F80
F0787C3E1F0F80
0F8783C1E0F000
0F8783C1E0F000
0F8783C1E0F000
0F8783C1E0F000
0F8783C1E0F000
F0787C3E1F0F80
F0787C3E1F0F80
F0787C3E1F0F80
F0787C3E1F0F80
0F80000000F000
0F80000000F000
0F80000000F000
0F80000000F000
0F80000000F000
F07800001F0F80
F07800001F0F80
F07800001F0F80
F07800001F0F80
0F80000000F000
0F80000000F000
0F80000000F000
0F80000000F000
0F80000000F000
F07800001F0F80
F07800001F0F80
F07800001F0F80
F07800001F0F80
ENDCHAR
STARTCHAR 00E2
ENCODING 226
SWIDTH 697 0
DWIDTH 62 0
BBX 49 93 7 0
BITMAP
00007C3E000000
00007C3E000000
00007C3E000000
00007C3E000000
000783C1E00000
000783C1E00000
000783C1E00000
000783C1E00000
000783C1E00000
00787C3E1F0000
00787C3E1F0000
00787C3E1F0000
00787C3E1F0000
00078001E00000
00078001E00000
00078001E00000
00078001E00000
00787C3E1F0000
00787C3E1F0000
00787C3E1F0000
00787C3E1F0000
00787C3E1F0000
00000000000000
00000000000000
00000000000000
00000000000000
00787C3E1F0000
00787C3E1F0000
00787C3E1F0000
00787C3E1F0000
00787C3E1F0000
0F8783C1E0F000
0F8783C1E0F000
0F8783C1E0F000
0F8783C1E0F000
F0787C3E1F0F80
F0787C3E1F0F80
F0787C3E1F0F80
F0787C3E1F0F80
F0787C3E1F0F80
0F80000000F000
0F80000000F000
0F80000000F000
0F80000000F000
F07800001F0F80
F07800001F0F80
F07800001F0F80
F07800001F0F80
F07800001F0F80
0F80000000F000
0F80000000F000
0F80000000F000
0F80000000F000
F07800001F0F80
F07800001F0F80
F07800001F0F80
F07800001F0F80
0F80000000F000
0F80000000F000
0F80000000F000
0F80000000F000
0F80000000F000
F0787C3E1F0F80
F0787C3E1F0F80
F0787C3E1F0F80
F0787C3E1F0F80
0F8783C1E0F000
0F8783C1E0F000
0F8783C1E0F000
0F8783C1E0F000
0F8783C1E0F000
F0787C3E1F0F80
F0787C3E1F0F80
F0787C3E1F0F80
F0787C3E1F0F80
0F80000000F000
0F80000000F000
0F80000000F000
0F80000000F000
0F80000000F000
F07800001F0F80
F07800001F0F80
F07800001F0F80
F07800001F0F80
0F80000000F000
0F80000000F000
0F80000000F000
0F80000000F000
0F80000000F000
F07800001F0F80
F07800001F0F80
F07800001F0F80
F07800001F0F80
ENDCHAR
STARTCHAR 00E3
ENCODING 227
SWIDTH 697 0
DWIDTH 62 0
BBX 49 93 7 0
BITMAP
00787C001F0F80
00787C001F0F80
00787C001F0F80
00787C001F0F80
0F8783C000F000
0F8783C000F000
0F8783C000F000
0F8783C000F000
0F8783C000F000
F0787C3E1F0F80
F0787C3E1F0F80
F0787C3E1F0F80
F0787C3E1F0F80
0F8003C1E0F000
0F8003C1E0F000
0F8003C1E0F000
0F8003C1E0F000
F078003E1F0000
F078003E1F0000
F078003E1F0000
F078003E1F0000
F078003E1F0000
00000000000000
00000000000000
00000000000000
00000000000000
00787C3E1F0000
00787C3E1F0000
00787C3E1F0000
00787C3E1F0000
00787C3E1F0000
0F8783C1E0F000
0F8783C1E0F000
0F8783C1E0F000
0F8783C1E0F000
F0787C3E1F0F80
F0787C3E1F0F80
F0787C3E1F0F80
F0787C3E1F0F80
F0787C3E1F0F80
0F80000000F000
0F80000000F000
0F80000000F000
0F80000000F000
F07800001F0F80
F07800001F0F80
F07800001F0F80
F07800001F0F80
F07800001F0F80
0F80000000F000
0F80000000F000
0F80000000F000
0F80000000F000
F07800001F0F80
F07800001F0F80
F07800001F0F80
F07800001F0F80
0F80000000F000
0F80000000F000
0F80000000F000
0F80000000F000
0F80000000F000
F0787C3E1F0F80
F0787C3E1F0F80
F0787C3E1F0F80
F0787C3E1F0F80
0F8783C1E0F000
0F8783C1E0F000
0F8783C1E0F000
0F8783C1E0F000
0F8783C1E0F000
F0787C3E1F0F80
F0787C3E1F0F80
F0787C3E1F0F80
F0787C3E1F0F80
0F80000000F000
0F80000000F000
0F80000000F000
0F80000000F000
0F80000000F000
F07800001F0F80
F07800001F0F80
F07800001F0F80
F07800001F0F80
0F80000000F000
0F80000000F000
0F80000000F000
0F80000000F000
0F80000000F000
F07800001F0F80
F07800001F0F80
F07800001F0F80
F07800001F0F80
ENDCHAR
STARTCHAR 00E4
ENCODING 228
SWIDTH 697 0
DWIDTH 62 0
BBX 49 84 7 0
BITMAP
00787C3E1F0000
00787C3E1F0000
00787C3E1F0000
00787C3E1F0000
00078001E00000
00078001E00000
00078001E00000
00078001E00000
00787C3E1F0000
00787C3E1F0000
00787C3E1F0000
00787C3E1F0000
00787C3E1F0000
00000000000000
00000000000000
00000000000000
00000000000000
00787C3E1F0000
00787C3E1F0000
00787C3E1F0000
00787C3E1F0000
00787C3E1F0000
0F8783C1E0F000
0F8783C1E0F000
0F8783C1E0F000
0F8783C1E0F000
F0787C3E1F0F80
F0787C3E1F0F80
F0787C3E1F0F80
F0787C3E1F0F80
F0787C3E1F0F80
0F80000000F000
0F80000000F000
0F80000000F000
0F80000000F000
F07800001F0F80
F07800001F0F80
F07800001F0F80
F07800001F0F80
F07800001F0F80
0F80000000F000
0F80000000F000
0F80000000F000
0F80000000F000
F07800001F0F80
F07800001F0F80
F07800001F0F80
F07800001F0F80
0F80000000F000
0F80000000F000
0F80000000F000
0F80000000F000
0F80000000F000
F0787C3E1F0F80
F0787C3E1F0F80
F0787C3E1F0F80
F0787C3E1F0F80
0F8783C1E0F000
0F8783C1E0F000
0F8783C1E0F000
0F8783C1E0F000
0F8783C1E0F000
F0787C3E1F0F80
F0787C3E1F0F80
F0787C3E1F0F80
F0787C3E1F0F80
0F80000000F000
0F80000000F000
0F80000000F000
0F80000000F000
0F80000000F000
F07800001F0F80
F07800001F0F80
F07800001F0F80
F07800001F0F80
0F80000000F000
0F80000000F000
0F80000000F000
0F80000000F000
0F80000000F000
F07800001F0F80
F07800001F0F80
F07800001F0F80
F07800001F0F80
ENDCHAR
STARTCHAR 00E5
ENCODING 229
SWIDTH 697 0
DWIDTH 62 0
BBX 49 111 7 0
BITMAP
000783C1E00000
000783C1E00000
000783C1E00000
000783C1E00000
00787C3E1F0000
00787C3E1F0000
00787C3E1F0000
00787C3E1F0000
00787C3E1F0000
0F8783C1E0F000
0F8783C1E0F000
0F8783C1E0F000
0F8783C1E0F000
007800001F0000
007800001F0000
007800001F0000
007800001F0000
007800001F0000
0F878001E0F000
0F878001E0F000
0F878001E0F000
0F878001E0F000
007800001F0000
007800001F0000
007800001F0000
007800001F0000
007800001F0000
0F8783C1E0F000
0F8783C1E0F000
0F8783C1E0F000
0F8783C1E0F000
00787C3E1F0000
00787C3E1F0000
00787C3E1F0000
00787C3E1F0000
000783C1E00000
000783C1E00000
000783C1E00000
000783C1E00000
000783C1E00000
00000000000000
00000000000000
00000000000000
00000000000000
00787C3E1F0000
00787C3E1F0000
00787C3E1F0000
00787C3E1F0000
00787C3E1F0000
0F8783C1E0F000
0F8783C1E0F000
0F8783C1E0F000
0F8783C1E0F000
F0787C3E1F0F80
F0787C3E1F0F80
F0787C3E1F0F80
F0787C3E1F0F80
F0787C3E1F0F80
0F80000000F000
0F80000000F000
0F80000000F000
0F80000000F000
F07800001F0F80
F07800001F0F80
F07800001F0F80
F07800001F0F80
F07800001F0F80
0F80000000F000
0F80000000F000
0F80000000F000
0F80000000F000
F07800001F0F80
F07800001F0F80
F07800001F0F80
F07800001F0F80
0F80000000F000
0F80000000F000
0F80000000F000
0F80000000F000
0F80000000F000
F0787C3E1F0F80
F0787C3E1F0F80
F0787C3E1F0F80
F0787C3E1F0F80
0F8783C1E0F000
0F8783C1E0F000
0F8783C1E0F000
0F8783C1E0F000
0F8783C1E0F000
F0787C3E1F0F80
F0787C3E1F0F80
F0787C3E1F0F80
F0787C3E1F0F80
0F80000000F000
0F80000000F000
0F80000000F000
0F80000000F000
0F80000000F000
F07800001F0F80
F07800001F0F80
F07800001F0F80
F07800001F0F80
0F80000000F000
0F80000000F000
0F80000000F000
0F80000000F000
0F80000000F000
F07800001F0F80
F07800001F0F80
F07800001F0F80
F07800001F0F80
ENDCHAR
STARTCHAR 00E6
ENCODING 230
SWIDTH 1091 0
DWIDTH 97 0
BBX 84 67 7 0
BITMAP
00787C3E1F0F8783C1E0F0
00787C3E1F0F8783C1E0F0
00787C3E1F0F8783C1E0F0
00787C3E1F0F8783C1E0F0
00787C3E1F0F8783C1E0F0
0F8783C1E0F0787C3E1F00
0F8783C1E0F0787C3E1F00
0F8783C1E0F0787C3E1F00
0F8783C1E0F0787C3E1F00
F0787C3E1F0F8783C1E0F0
F0787C3E1F0F8783C1E0F0
F0787C3E1F0F8783C1E0F0
F0787C3E1F0F8783C1E0F0
F0787C3E1F0F8783C1E0F0
0F80000000F00000000000
0F80000000F00000000000
0F80000000F00000000000
0F80000000F00000000000
F07800001F0F8000000000
F07800001F0F8000000000
F07800001F0F8000000000
F07800001F0F8000000000
F07800001F0F8000000000
0F80000000F00000000000
0F80000000F00000000000
0F80000000F00000000000
0F80000000F00000000000
F07800001F0F8783C1E000
F07800001F0F8783C1E000
F07800001F0F8783C1E000
F07800001F0F8783C1E000
0F80000000F0787C3E0000
0F80000000F0787C3E0000
0F80000000F0787C3E0000
0F80000000F0787C3E0000
0F80000000F0787C3E0000
F0787C3E1F0F8783C1E000
F0787C3E1F0F8783C1E000
F0787C3E1F0F8783C1E000
F0787C3E1F0F8783C1E000
0F8783C1E0F00000000000
0F8783C1E0F00000000000
0F8783C1E0F00000000000
0F8783C1E0F00000000000
0F8783C1E0F00000000000
F0787C3E1F0F8000000000
F0787C3E1F0F8000000000
F0787C3E1F0F8000000000
F0787C3E1F0F8000000000
0F80000000F00000000000
0F80000000F00000000000
0F80000000F00000000000
0F80000000F00000000000
0F80000000F00000000000
F07800001F0F8783C1E0F0
F07800001F0F8783C1E0F0
F07800001F0F8783C1E0F0
F07800001F0F8783C1E0F0
0F80000000F0787C3E1F00
0F80000000F0787C3E1F00
0F80000000F0787C3E1F00
0F80000000F0787C3E1F00
0F80000000F0787C3E1F00
F0780000000F8783C1E0F0
F0780000000F8783C1E0F0
F0780000000F8783C1E0F0
F0780000000F8783C1E0F0
ENDCHAR
STARTCHAR 00E7
ENCODING 231
SWIDTH 697 0
DWIDTH 62 0
BBX 49 85 7 -18
BITMAP
00787C3E1F0000
00787C3E1F0000
00787C3E1F0000
00787C3E1F0000
00787C3E1F0000
0F8783C1E0F000
0F8783C1E0F000
0F8783C1E0F000
0F8783C1E0F000
F0787C3E1F0F80
F0787C3E1F0F80
F0787C3E1F0F80
F0787C3E1F0F80
F0787C3E1F0F80
0F80000000F000
0F80000000F000
0F80000000F000
0F80000000F000
F07800001F0F80
F07800001F0F80
F07800001F0F80
F07800001F0F80
F07800001F0F80
0F80000000F000
0F80000000F000
0F80000000F000
0F80000000F000
F07800001F0F80
F07800001F0F80
F07800001F0F80
F07800001F0F80
0F800000000000
0F800000000000
0F800000000000
0F800000000000
0F800000000000
F0780000000000
F0780000000000
F0780000000000
F0780000000000
0F800000000000
0F800000000000
0F800000000000
0F800000000000
0F800000000000
F07800001F0F80
F07800001F0F80
F07800001F0F80
F07800001F0F80
0F80000000F000
0F80000000F000
0F80000000F000
0F80000000F000
0F80000000F000
F0787C3E1F0F80
F0787C3E1F0F80
F0787C3E1F0F80
F0787C3E1F0F80
0F8783C1E0F000
0F8783C1E0F000
0F8783C1E0F000
0F8783C1E0F000
0F8783C1E0F000
00787C3E1F0000
00787C3E1F0000
00787C3E1F0000
00787C3E1F0000
000003C0000000
000003C0000000
000003C0000000
000003C0000000
00787C3E000000
00787C3E000000
00787C3E000000
00787C3E000000
00787C3E000000
000783C0000000
000783C0000000
000783C0000000
000783C0000000
00787C00000000
00787C00000000
00787C00000000
00787C00000000
00787C00000000
ENDCHAR
STARTCHAR 00E8
ENCODING 232
SWIDTH 697 0
DWIDTH 62 0
BBX 49 93 7 0
BITMAP
F0780000000000
F0780000000000
F0780000000000
F0780000000000
0F878000000000
0F878000000000
0F878000000000
0F878000000000
0F878000000000
00787C00000000
00787C00000000
00787C00000000
00787C00000000
000783C0000000
000783C0000000
000783C0000000
000783C0000000
00007C3E000000
00007C3E000000
00007C3E000000
00007C3E000000
00007C3E000000
00000000000000
00000000000000
00000000000000
00000000000000
00787C3E1F0F80
00787C3E1F0F80
00787C3E1F0F80
00787C3E1F0F80
00787C3E1F0F80
0F8783C1E0F000
0F8783C1E0F000
0F8783C1E0F000
0F8783C1E0F000
F0787C3E1F0F80
F0787C3E1F0F80
F0787C3E1F0F80
F0787C3E1F0F80
F0787C3E1F0F80
0F800000000000
0F800000000000
0F800000000000
0F800000000000
F0780000000000
F0780000000000
F0780000000000
F0780000000000
F0780000000000
0F800000000000
0F800000000000
0F800000000000
0F800000000000
F0787C3E1F0000
F0787C3E1F0000
F0787C3E1F0000
F0787C3E1F0000
0F8783C1E00000
0F8783C1E00000
0F8783C1E00000
0F8783C1E00000
0F8783C1E00000
F0787C3E1F0000
F0787C3E1F0000
F0787C3E1F0000
F0787C3E1F0000
0F800000000000
0F800000000000
0F800000000000
0F800000000000
0F800000000000
F0780000000000
F0780000000000
F0780000000000
F0780000000000
0F800000000000
0F800000000000
0F800000000000
0F800000000000
0F800000000000
F0787C3E1F0F80
F0787C3E1F0F80
F0787C3E1F0F80
F0787C3E1F0F80
0F8783C1E0F000
0F8783C1E0F000
0F8783C1E0F000
0F8783C1E0F000
0F8783C1E0F000
00787C3E1F0F80
00787C3E1F0F80
00787C3E1F0F80
00787C3E1F0F80
ENDCHAR
STARTCHAR 00E9
ENCODING 233
SWIDTH 697 0
DWIDTH 62 0
BBX 49 93 7 0
BITMAP
00000001E0F000
00000001E0F000
00000001E0F000
00000001E0F000
0000003E1F0000
0000003E1F0000
0000003E1F0000
0000003E1F0000
0000003E1F0000
000003C1E00000
000003C1E00000
000003C1E00000
000003C1E00000
00007C3E000000
00007C3E000000
00007C3E000000
00007C3E000000
000783C0000000
000783C0000000
000783C0000000
000783C0000000
000783C0000000
00000000000000
00000000000000
00000000000000
00000000000000
00787C3E1F0F80
00787C3E1F0F80
00787C3E1F0F80
00787C3E1F0F80
00787C3E1F0F80
0F8783C1E0F000
0F8783C1E0F000
0F8783C1E0F000
0F8783C1E0F000
F0787C3E1F0F80
F0787C3E1F0F80
F0787C3E1F0F80
F0787C3E1F0F80
F0787C3E1F0F80
0F800000000000
0F800000000000
0F800000000000
0F800000000000
F0780000000000
F0780000000000
F0780000000000
F0780000000000
F0780000000000
0F800000000000
0F800000000000
0F800000000000
0F800000000000
F0787C3E1F0000
F0787C3E1F0000
F0787C3E1F0000
F0787C3E1F0000
0F8783C1E00000
0F8783C1E00000
0F8783C1E00000
0F8783C1E00000
0F8783C1E00000
F0787C3E1F0000
F0787C3E1F0000
F0787C3E1F0000
F0787C3E1F0000
0F800000000000
0F800000000000
0F800000000000
0F800000000000
0F800000000000
F0780000000000
F0780000000000
F0780000000000
F0780000000000
0F800000000000
0F800000000000
0F800000000000
0F800000000000
0F800000000000
F0787C3E1F0F80
F0787C3E1F0F80
F0787C3E1F0F80
F0787C3E1F0F80
0F8783C1E0F000
0F8783C1E0F000
0F8783C1E0F000
0F8783C1E0F000
0F8783C1E0F000
00787C3E1F0F80
00787C3E1F0F80
00787C3E1F0F80
00787C3E1F0F80
ENDCHAR
STARTCHAR 00EA
ENCODING 234
SWIDTH 697 0
DWIDTH 62 0
BBX 49 93 7 0
BITMAP
00007C3E000000
00007C3E000000
00007C3E000000
00007C3E000000
000783C1E00000
000783C1E00000
000783C1E00000
000783C1E00000
000783C1E00000
00787C3E1F0000
00787C3E1F0000
00787C3E1F0000
00787C3E1F0000
00078001E00000
00078001E00000
00078001E00000
00078001E00000
00787C3E1F0000
00787C3E1F0000
00787C3E1F0000
00787C3E1F0000
00787C3E1F0000
00000000000000
00000000000000
00000000000000
00000000000000
00787C3E1F0F80
00787C3E1F0F80
00787C3E1F0F80
00787C3E1F0F80
00787C3E1F0F80
0F8783C1E0F000
0F8783C1E0F000
0F8783C1E0F000
0F8783C1E0F000
F0787C3E1F0F80
F0787C3E1F0F80
F0787C3E1F0F80
F0787C3E1F0F80
F0787C3E1F0F80
0F800000000000
0F800000000000
0F800000000000
0F800000000000
F0780000000000
F0780000000000
F0780000000000
F0780000000000
F0780000000000
0F800000000000
0F800000000000
0F800000000000
0F800000000000
F0787C3E1F0000
F0787C3E1F0000
F0787C3E1F0000
F0787C3E1F0000
0F8783C1E00000
0F8783C1E00000
0F8783C1E00000
0F8783C1E00000
0F8783C1E00000
F0787C3E1F0000
F0787C3E1F0000
F0787C3E1F0000
F0787C3E1F0000
0F800000000000
0F800000000000
0F800000000000
0F800000000000
0F800000000000
F0780000000000
F0780000000000
F0780000000000
F0780000000000
0F800000000000
0F800000000000
0F800000000000
0F800000000000
0F800000000000
F0787C3E1F0F80
F0787C3E1F0F80
F0787C3E1F0F80
F0787C3E1F0F80
0F8783C1E0F000
0F8783C1E0F000
0F8783C1E0F000
0F8783C1E0F000
0F8783C1E0F000
00787C3E1F0F80
00787C3E1F0F80
00787C3E1F0F80
00787C3E1F0F80
ENDCHAR
STARTCHAR 00EB
ENCODING 235
SWIDTH 697 0
DWIDTH 62 0
BBX 49 84 7 0
BITMAP
00787C3E1F0000
00787C3E1F0000
00787C3E1F0000
00787C3E1F0000
00078001E00000
00078001E00000
00078001E00000
00078001E00000
00787C3E1F0000
00787C3E1F0000
00787C3E1F0000
00787C3E1F0000
00787C3E1F0000
00000000000000
00000000000000
00000000000000
00000000000000
00787C3E1F0F80
00787C3E1F0F80
00787C3E1F0F80
00787C3E1F0F80
00787C3E1F0F80
0F8783C1E0F000
0F8783C1E0F000
0F8783C1E0F000
0F8783C1E0F000
F0787C3E1F0F80
F0787C3E1F0F80
F0787C3E1F0F80
F0787C3E1F0F80
F0787C3E1F0F80
0F800000000000
0F800000000000
0F800000000000
0F800000000000
F0780000000000
F0780000000000
F0780000000000
F0780000000000
F0780000000000
0F800000000000
0F800000000000
0F800000000000
0F800000000000
F0787C3E1F0000
F0787C3E1F0000
F0787C3E1F0000
F0787C3E1F0000
0F8783C1E00000
0F8783C1E00000
0F8783C1E00000
0F8783C1E00000
0F8783C1E00000
F0787C3E1F0000
F0787C3E1F0000
F0787C3E1F0000
F0787C3E1F0000
0F800000000000
0F800000000000
0F800000000000
0F800000000000
0F800000000000
F0780000000000
F0780000000000
F0780000000000
F0780000000000
0F800000000000
0F800000000000
0F800000000000
0F800000000000
0F800000000000
F0787C3E1F0F80
F0787C3E1F0F80
F0787C3E1F0F80
F0787C3E1F0F80
0F8783C1E0F000
0F8783C1E0F000
0F8783C1E0F000
0F8783C1E0F000
0F8783C1E0F000
00787C3E1F0F80
00787C3E1F0F80
00787C3E1F0F80
00787C3E1F0F80
ENDCHAR
STARTCHAR 00EC
ENCODING 236
SWIDTH 292 0
DWIDTH 26 0
BBX 31 93 -11 0
BITMAP
F0780000
F0780000
F0780000
F0780000
0F87C000
0F87C000
0F87C000
0F87C000
0F87C000
00783C00
00783C00
00783C00
00783C00
0007C3E0
0007C3E0
0007C3E0
0007C3E0
00003C1E
00003C1E
00003C1E
00003C1E
00003C1E
00000000
00000000
00000000
00000000
00003C1E
00003C1E
00003C1E
00003C1E
00003C1E
000003E0
000003E0
000003E0
000003E0
00003C1E
00003C1E
00003C1E
00003C1E
00003C1E
000003E0
000003E0
000003E0
000003E0
00003C1E
00003C1E
00003C1E
00003C1E
00003C1E
000003E0
000003E0
000003E0
000003E0
00003C1E
00003C1E
00003C1E
00003C1E
000003E0
000003E0
000003E0
000003E0
000003E0
00003C1E
00003C1E
00003C1E
00003C1E
000003E0
000003E0
000003E0
000003E0
000003E0
00003C1E
00003C1E
00003C1E
00003C1E
000003E0
000003E0
000003E0
000003E0
000003E0
00003C1E
00003C1E
00003C1E
00003C1E
000003E0
000003E0
000003E0
000003E0
000003E0
00003C1E
00003C1E
00003C1E
00003C1E
ENDCHAR
STARTCHAR 00ED
ENCODING 237
SWIDTH 292 0
DWIDTH 26 0
BBX 31 93 2 0
BITMAP
00003C1E
00003C1E
00003C1E
00003C1E
0003C3E0
0003C3E0
0003C3E0
0003C3E0
0003C3E0
007C3C00
007C3C00
007C3C00
007C3C00
0783C000
0783C000
0783C000
0783C000
F87C0000
F87C0000
F87C0000
F87C0000
F87C0000
00000000
00000000
00000000
00000000
0783C000
0783C000
0783C000
0783C000
0783C000
007C0000
007C0000
007C0000
007C0000
0783C000
0783C000
0783C000
0783C000
0783C000
007C0000
007C0000
007C0000
007C0000
0783C000
0783C000
0783C000
0783C000
0783C000
007C0000
007C0000
007C0000
007C0000
0783C000
0783C000
0783C000
0783C000
007C0000
007C0000
007C0000
007C0000
007C0000
0783C000
0783C000
0783C000
0783C000
007C0000
007C0000
007C0000
007C0000
007C0000
0783C000
0783C000
0783C000
0783C000
007C0000
007C0000
007C0000
007C0000
007C0000
0783C000
0783C000
0783C000
0783C000
007C0000
007C0000
007C0000
007C0000
007C0000
0783C000
0783C000
0783C000
0783C000
ENDCHAR
STARTCHAR 00EE
ENCODING 238
SWIDTH 292 0
DWIDTH 26 0
BBX 31 93 -2 0
BITMAP
00783C00
00783C00
00783C00
00783C00
0F87C3C0
0F87C3C0
0F87C3C0
0F87C3C0
0F87C3C0
F0783C3E
F0783C3E
F0783C3E
F0783C3E
0F8003C0
0F8003C0
0F8003C0
0F8003C0
F0783C3E
F0783C3E
F0783C3E
F0783C3E
F0783C3E
00000000
00000000
00000000
00000000
00783C00
00783C00
00783C00
00783C00
00783C00
0007C000
0007C000
0007C000
0007C000
00783C00
00783C00
00783C00
00783C00
00783C00
0007C000
0007C000
0007C000
0007C000
00783C00
00783C00
00783C00
00783C00
00783C00
0007C000
0007C000
0007C000
0007C000
00783C00
00783C00
00783C00
00783C00
0007C000
0007C000
0007C000
0007C000
0007C000
00783C00
00783C00
00783C00
00783C00
0007C000
0007C000
0007C000
0007C000
0007C000
00783C00
00783C00
00783C00
00783C00
0007C000
0007C000
0007C000
0007C000
0007C000
00783C00
00783C00
00783C00
00783C00
0007C000
0007C000
0007C000
0007C000
0007C000
00783C00
00783C00
00783C00
00783C00
ENDCHAR
STARTCHAR 00EF
ENCODING 239
SWIDTH 292 0
DWIDTH 26 0
BBX 31 84 -2 0
BITMAP
F0783C3E
F0783C3E
F0783C3E
F0783C3E
0F8003C0
0F8003C0
0F8003C0
0F8003C0
F0783C3E
F0783C3E
F0783C3E
F0783C3E
F0783C3E
00000000
00000000
00000000
00000000
00783C00
00783C00
00783C00
00783C00
00783C00
0007C000
0007C000
0007C000
0007C000
00783C00
00783C00
00783C00
00783C00
00783C00
0007C000
0007C000
0007C000
0007C000
00783C00
00783C00
00783C00
00783C00
00783C00
0007C000
0007C000
0007C000
0007C000
00783C00
00783C00
00783C00
00783C00
0007C000
0007C000
0007C000
0007C000
0007C000
00783C00
00783C00
00783C00
00783C00
0007C000
0007C000
0007C000
0007C000
0007C000
00783C00
00783C00
00783C00
00783C00
0007C000
0007C000
0007C000
0007C000
0007C000
00783C00
00783C00
00783C00
00783C00
0007C000
0007C000
0007C000
0007C000
0007C000
00783C00
00783C00
00783C00
00783C00
ENDCHAR
STARTCHAR 00F0
ENCODING 240
SWIDTH 742 0
DWIDTH 66 0
BBX 58 67 2 0
BITMAP
007C3C1E0F078000
007C3C1E0F078000
007C3C1E0F078000
007C3C1E0F078000
007C3C1E0F078000
0003C3E1F0F87C00
0003C3E1F0F87C00
0003C3E1F0F87C00
0003C3E1F0F87C00
007C3C1E0F0783C0
007C3C1E0F0783C0
007C3C1E0F0783C0
007C3C1E0F0783C0
007C3C1E0F0783C0
0003C00000007C00
0003C00000007C00
0003C00000007C00
0003C00000007C00
007C3C00000783C0
007C3C00000783C0
007C3C00000783C0
007C3C00000783C0
007C3C00000783C0
0003C00000007C00
0003C00000007C00
0003C00000007C00
0003C00000007C00
F87C3C1E000783C0
F87C3C1E000783C0
F87C3C1E000783C0
F87C3C1E000783C0
0783C3E000007C00
0783C3E000007C00
0783C3E000007C00
0783C3E000007C00
0783C3E000007C00
F87C3C1E000783C0
F87C3C1E000783C0
F87C3C1E000783C0
F87C3C1E000783C0
0003C00000007C00
0003C00000007C00
0003C00000007C00
0003C00000007C00
0003C00000007C00
007C3C00000783C0
007C3C00000783C0
007C3C00000783C0
007C3C00000783C0
0003C00000007C00
0003C00000007C00
0003C00000007C00
0003C00000007C00
0003C00000007C00
007C3C1E0F0783C0
007C3C1E0F0783C0
007C3C1E0F0783C0
007C3C1E0F0783C0
0003C3E1F0F87C00
0003C3E1F0F87C00
0003C3E1F0F87C00
0003C3E1F0F87C00
0003C3E1F0F87C00
007C3C1E0F078000
007C3C1E0F078000
007C3C1E0F078000
007C3C1E0F078000
ENDCHAR
STARTCHAR 00F1
ENCODING 241
SWIDTH 697 0
DWIDTH 62 0
BBX 49 93 7 0
BITMAP
00787C001F0F80
00787C001F0F80
00787C001F0F80
00787C001F0F80
0F8783C000F000
0F8783C000F000
0F8783C000F000
0F8783C000F000
0F8783C000F000
F0787C3E1F0F80
F0787C3E1F0F80
F0787C3E1F0F80
F0787C3E1F0F80
0F8003C1E0F000
0F8003C1E0F000
0F8003C1E0F000
0F8003C1E0F000
F078003E1F0000
F078003E1F0000
F078003E1F0000
F078003E1F0000
F078003E1F0000
00000000000000
00000000000000
00000000000000
00000000000000
F07800001F0F80
F07800001F0F80
F07800001F0F80
F07800001F0F80
F07800001F0F80
0F87800000F000
0F87800000F000
0F87800000F000
0F87800000F000
F0787C001F0F80
F0787C001F0F80
F0787C001F0F80
F0787C001F0F80
F0787C001F0F80
0F8783C000F000
0F8783C000F000
0F8783C000F000
0F8783C000F000
F0787C3E1F0F80
F0787C3E1F0F80
F0787C3E1F0F80
F0787C3E1F0F80
F0787C3E1F0F80
0F8003C1E0F000
0F8003C1E0F000
0F8003C1E0F000
0F8003C1E0F000
F078003E1F0F80
F078003E1F0F80
F078003E1F0F80
F078003E1F0F80
0F800001E0F000
0F800001E0F000
0F800001E0F000
0F800001E0F000
0F800001E0F000
F07800001F0F80
F07800001F0F80
F07800001F0F80
F07800001F0F80
0F80000000F000
0F80000000F000
0F80000000F000
0F80000000F000
0F80000000F000
F07800001F0F80
F07800001F0F80
F07800001F0F80
F07800001F0F80
0F80000000F000
0F80000000F000
0F80000000F000
0F80000000F000
0F80000000F000
F07800001F0F80
F07800001F0F80
F07800001F0F80
F07800001F0F80
0F80000000F000
0F80000000F000
0F80000000F000
0F80000000F000
0F80000000F000
F07800001F0F80
F07800001F0F80
F07800001F0F80
F07800001F0F80
ENDCHAR
STARTCHAR 00F2
ENCODING 242
SWIDTH 697 0
DWIDTH 62 0
BBX 49 93 7 0
BITMAP
F0780000000000
F0780000000000
F0780000000000
F0780000000000
0F878000000000
0F878000000000
0F878000000000
0F878000000000
0F878000000000
00787C00000000
00787C00000000
00787C00000000
00787C00000000
000783C0000000
000783C0000000
000783C0000000
000783C0000000
00007C3E000000
00007C3E000000
00007C3E000000
00007C3E000000
00007C3E000000
00000000000000
00000000000000
00000000000000
00000000000000
00787C3E1F0000
00787C3E1F0000
00787C3E1F0000
00787C3E1F0000
00787C3E1F0000
0F8783C1E0F000
0F8783C1E0F000
0F8783C1E0F000
0F8783C1E0F000
F0787C3E1F0F80
F0787C3E1F0F80
F0787C3E1F0F80
F0787C3E1F0F80
F0787C3E1F0F80
0F80000000F000
0F80000000F000
0F80000000F000
0F80000000F000
F07800001F0F80
F07800001F0F80
F07800001F0F80
F07800001F0F80
F07800001F0F80
0F80000000F000
0F80000000F000
0F80000000F000
0F80000000F000
F07800001F0F80
F07800001F0F80
F07800001F0F80
F07800001F0F80
0F80000000F000
0F80000000F000
0F80000000F000
0F80000000F000
0F80000000F000
F07800001F0F80
F07800001F0F80
F07800001F0F80
F07800001F0F80
0F80000000F000
0F80000000F000
0F80000000F000
0F80000000F000
0F80000000F000
F07800001F0F80
F07800001F0F80
F07800001F0F80
F07800001F0F80
0F80000000F000
0F80000000F000
0F80000000F000
0F80000000F000
0F80000000F000
F0787C3E1F0F80
F0787C3E1F0F80
F0787C3E1F0F80
F0787C3E1F0F80
0F8783C1E0F000
0F8783C1E0F000
0F8783C1E0F000
0F8783C1E0F000
0F8783C1E0F000
00787C3E1F0000
00787C3E1F0000
00787C3E1F0000
00787C3E1F0000
ENDCHAR
STARTCHAR 00F3
ENCODING 243
SWIDTH 697 0
DWIDTH 62 0
BBX 49 93 7 0
BITMAP
00000001E0F000
00000001E0F000
00000001E0F000
00000001E0F000
0000003E1F0000
0000003E1F0000
0000003E1F0000
0000003E1F0000
0000003E1F0000
000003C1E00000
000003C1E00000
000003C1E00000
000003C1E00000
00007C3E000000
00007C3E000000
00007C3E000000
00007C3E000000
000783C0000000
000783C0000000
000783C0000000
000783C0000000
000783C0000000
00000000000000
00000000000000
00000000000000
00000000000000
00787C3E1F0000
00787C3E1F0000
00787C3E1F0000
00787C3E1F0000
00787C3E1F0000
0F8783C1E0F000
0F8783C1E0F000
0F8783C1E0F000
0F8783C1E0F000
F0787C3E1F0F80
F0787C3E1F0F80
F0787C3E1F0F80
F0787C3E1F0F80
F0787C3E1F0F80
0F80000000F000
0F80000000F000
0F80000000F000
0F80000000F000
F07800001F0F80
F07800001F0F80
F07800001F0F80
F07800001F0F80
F07800001F0F80
0F80000000F000
0F80000000F000
0F80000000F000
0F80000000F000
F07800001F0F80
F07800001F0F80
F07800001F0F80
F07800001F0F80
0F80000000F000
0F80000000F000
0F80000000F000
0F80000000F000
0F80000000F000
F07800001F0F80
F07800001F0F80
F07800001F0F80
F07800001F0F80
0F80000000F000
0F80000000F000
0F80000000F000
0F80000000F000
0F80000000F000
F07800001F0F80
F07800001F0F80
F07800001F0F80
F07800001F0F80
0F80000000F000
0F80000000F000
0F80000000F000
0F80000000F000
0F80000000F000
F0787C3E1F0F80
F0787C3E1F0F80
F0787C3E1F0F80
F0787C3E1F0F80
0F8783C1E0F000
0F8783C1E0F000
0F8783C1E0F000
0F8783C1E0F000
0F8783C1E0F000
00787C3E1F0000
00787C3E1F0000
00787C3E1F0000
00787C3E1F0000
ENDCHAR
STARTCHAR 00F4
ENCODING 244
SWIDTH 697 0
DWIDTH 62 0
BBX 49 93 7 0
BITMAP
00007C3E000000
00007C3E000000
00007C3E000000
00007C3E000000
000783C1E00000
000783C1E00000
000783C1E00000
000783C1E00000
000783C1E00000
00787C3E1F0000
00787C3E1F0000
00787C3E1F0000
00787C3E1F0000
00078001E00000
00078001E00000
00078001E00000
00078001E00000
00787C3E1F0000
00787C3E1F0000
00787C3E1F0000
00787C3E1F0000
00787C3E1F0000
00000000000000
00000000000000
00000000000000
00000000000000
00787C3E1F0000
00787C3E1F0000
00787C3E1F0000
00787C3E1F0000
00787C3E1F0000
0F8783C1E0F000
0F8783C1E0F000
0F8783C1E0F000
0F8783C1E0F000
F0787C3E1F0F80
F0787C3E1F0F80
F0787C3E1F0F80
F0787C3E1F0F80
F0787C3E1F0F80
0F80000000F000
0F80000000F000
0F80000000F000
0F80000000F000
F07800001F0F80
F07800001F0F80
F07800001F0F80
F07800001F0F80
F07800001F0F80
0F80000000F000
0F80000000F000
0F80000000F000
0F80000000F000
F07800001F0F80
F07800001F0F80
F07800001F0F80
F07800001F0F80
0F80000000F000
0F80000000F000
0F80000000F000
0F80000000F000
0F80000000F000
F07800001F0F80
F07800001F0F80
F07800001F0F80
F07800001F0F80
0F80000000F000
0F80000000F000
0F80000000F000
0F80000000F000
0F80000000F000
F07800001F0F80
F07800001F0F80
F07800001F0F80
F07800001F0F80
0F80000000F000
0F80000000F000
0F80000000F000
0F80000000F000
0F80000000F000
F0787C3E1F0F80
F0787C3E1F0F80
F0787C3E1F0F80
F0787C3E1F0F80
0F8783C1E0F000
0F8783C1E0F000
0F8783C1E0F000
0F8783C1E0F000
0F8783C1E0F000
00787C3E1F0000
00787C3E1F0000
00787C3E1F0000
00787C3E1F0000
ENDCHAR
STARTCHAR 00F5
ENCODING 245
SWIDTH 697 0
DWIDTH 62 0
BBX 49 93 7 0
BITMAP
00787C001F0F80
00787C001F0F80
00787C001F0F80
00787C001F0F80
0F8783C000F000
0F8783C000F000
0F8783C000F000
0F8783C000F000
0F8783C000F000
F0787C3E1F0F80
F0787C3E1F0F80
F0787C3E1F0F80
F0787C3E1F0F80
0F8003C1E0F000
0F8003C1E0F000
0F8003C1E0F000
0F8003C1E0F000
F078003E1F0000
F078003E1F0000
F078003E1F0000
F078003E1F0000
F078003E1F0000
00000000000000
00000000000000
00000000000000
00000000000000
00787C3E1F0000
00787C3E1F0000
00787C3E1F0000
00787C3E1F0000
00787C3E1F0000
0F8783C1E0F000
0F8783C1E0F000
0F8783C1E0F000
0F8783C1E0F000
F0787C3E1F0F80
F0787C3E1F0F80
F0787C3E1F0F80
F0787C3E1F0F80
F0787C3E1F0F80
0F80000000F000
0F80000000F000
0F80000000F000
0F80000000F000
F07800001F0F80
F07800001F0F80
F07800001F0F80
F07800001F0F80
F07800001F0F80
0F80000000F000
0F80000000F000
0F80000000F000
0F80000000F000
F07800001F0F80
F07800001F0F80
F07800001F0F80
F07800001F0F80
0F80000000F000
0F80000000F000
0F80000000F000
0F80000000F000
0F80000000F000
F07800001F0F80
F07800001F0F80
F07800001F0F80
F07800001F0F80
0F80000000F000
0F80000000F000
0F80000000F000
0F80000000F000
0F80000000F000
F07800001F0F80
F07800001F0F80
F07800001F0F80
F07800001F0F80
0F80000000F000
0F80000000F000
0F80000000F000
0F80000000F000
0F80000000F000
F0787C3E1F0F80
F0787C3E1F0F80
F0787C3E1F0F80
F0787C3E1F0F80
0F8783C1E0F000
0F8783C1E0F000
0F8783C1E0F000
0F8783C1E0F000
0F8783C1E0F000
00787C3E1F0000
00787C3E1F0000
00787C3E1F0000
00787C3E1F0000
ENDCHAR
STARTCHAR 00F6
ENCODING 246
SWIDTH 697 0
DWIDTH 62 0
BBX 49 84 7 0
BITMAP
00787C3E1F0000
00787C3E1F0000
00787C3E1F0000
00787C3E1F0000
00078001E00000
00078001E00000
00078001E00000
00078001E00000
00787C3E1F0000
00787C3E1F0000
00787C3E1F0000
00787C3E1F0000
00787C3E1F0000
00000000000000
00000000000000
00000000000000
00000000000000
00787C3E1F0000
00787C3E1F0000
00787C3E1F0000
00787C3E1F0000
00787C3E1F0000
0F8783C1E0F000
0F8783C1E0F000
0F8783C1E0F000
0F8783C1E0F000
F0787C3E1F0F80
F0787C3E1F0F80
F0787C3E1F0F80
F0787C3E1F0F80
F0787C3E1F0F80
0F80000000F000
0F80000000F000
0F80000000F000
0F80000000F000
F07800001F0F80
F07800001F0F80
F07800001F0F80
F07800001F0F80
F07800001F0F80
0F80000000F000
0F80000000F000
0F80000000F000
0F80000000F000
F07800001F0F80
F07800001F0F80
F07800001F0F80
F07800001F0F80
0F80000000F000
0F80000000F000
0F80000000F000
0F80000000F000
0F80000000F000
F07800001F0F80
F07800001F0F80
F07800001F0F80
F07800001F0F80
0F80000000F000
0F80000000F000
0F80000000F000
0F80000000F000
0F80000000F000
F07800001F0F80
F07800001F0F80
F07800001F0F80
F07800001F0F80
0F80000000F000
0F80000000F000
0F80000000F000
0F80000000F000
0F80000000F000
F0787C3E1F0F80
F0787C3E1F0F80
F0787C3E1F0F80
F0787C3E1F0F80
0F8783C1E0F000
0F8783C1E0F000
0F8783C1E0F000
0F8783C1E0F000
0F8783C1E0F000
00787C3E1F0000
00787C3E1F0000
00787C3E1F0000
00787C3E1F0000
ENDCHAR
STARTCHAR 00F7
ENCODING 247
SWIDTH 697 0
DWIDTH 62 0
BBX 49 49 7 9
BITMAP
00007C3E000000
00007C3E000000
00007C3E000000
00007C3E000000
00007C3E000000
000003C0000000
000003C0000000
000003C0000000
000003C0000000
00007C3E000000
00007C3E000000
00007C3E000000
00007C3E000000
00007C3E000000
00000000000000
00000000000000
00000000000000
00000000000000
F0787C3E1F0F80
F0787C3E1F0F80
F0787C3E1F0F80
F0787C3E1F0F80
0F8783C1E0F000
0F8783C1E0F000
0F8783C1E0F000
0F8783C1E0F000
0F8783C1E0F000
F0787C3E1F0F80
F0787C3E1F0F80
F0787C3E1F0F80
F0787C3E1F0F80
00000000000000
00000000000000
00000000000000
00000000000000
00000000000000
00007C3E000000
00007C3E000000
00007C3E000000
00007C3E000000
000003C0000000
000003C0000000
000003C0000000
000003C0000000
000003C0000000
00007C3E000000
00007C3E000000
00007C3E000000
00007C3E000000
ENDCHAR
STARTCHAR 00F8
ENCODING 248
SWIDTH 798 0
DWIDTH 71 0
BBX 67 67 2 0
BITMAP
00003C1E0F07800000
00003C1E0F07800000
00003C1E0F07800000
00003C1E0F07800000
00003C1E0F07800000
0003C3E1F0F87C0000
0003C3E1F0F87C0000
0003C3E1F0F87C0000
0003C3E1F0F87C0000
007C3C1E0F0783C000
007C3C1E0F0783C000
007C3C1E0F0783C000
007C3C1E0F0783C000
007C3C1E0F0783C000
0003C00000007C0000
0003C00000007C0000
0003C00000007C0000
0003C00000007C0000
007C3C00000783C000
007C3C00000783C000
007C3C00000783C000
007C3C00000783C000
007C3C00000783C000
0003C00000007C0000
0003C00000007C0000
0003C00000007C0000
0003C00000007C0000
F87C3C1E0F0783C3E0
F87C3C1E0F0783C3E0
F87C3C1E0F0783C3E0
F87C3C1E0F0783C3E0
0783C3E1F0F87C3C00
0783C3E1F0F87C3C00
0783C3E1F0F87C3C00
0783C3E1F0F87C3C00
0783C3E1F0F87C3C00
F87C3C1E0F0783C3E0
F87C3C1E0F0783C3E0
F87C3C1E0F0783C3E0
F87C3C1E0F0783C3E0
0003C00000007C0000
0003C00000007C0000
0003C00000007C0000
0003C00000007C0000
0003C00000007C0000
007C3C00000783C000
007C3C00000783C000
007C3C00000783C000
007C3C00000783C000
0003C00000007C0000
0003C00000007C0000
0003C00000007C0000
0003C00000007C0000
0003C00000007C0000
007C3C1E0F0783C000
007C3C1E0F0783C000
007C3C1E0F0783C000
007C3C1E0F0783C000
0003C3E1F0F87C0000
0003C3E1F0F87C0000
0003C3E1F0F87C0000
0003C3E1F0F87C0000
0003C3E1F0F87C0000
00003C1E0F07800000
00003C1E0F07800000
00003C1E0F07800000
00003C1E0F07800000
ENDCHAR
STARTCHAR 00F9
ENCODING 249
SWIDTH 697 0
DWIDTH 62 0
BBX 49 93 7 0
BITMAP
F0780000000000
F0780000000000
F0780000000000
F0780000000000
0F878000000000
0F878000000000
0F878000000000
0F878000000000
0F878000000000
00787C00000000
00787C00000000
00787C00000000
00787C00000000
000783C0000000
000783C0000000
000783C0000000
000783C0000000
00007C3E000000
00007C3E000000
00007C3E000000
00007C3E000000
00007C3E000000
00000000000000
00000000000000
00000000000000
00000000000000
F07800001F0F80
F07800001F0F80
F07800001F0F80
F07800001F0F80
F07800001F0F80
0F80000000F000
0F80000000F000
0F80000000F000
0F80000000F000
F07800001F0F80
F07800001F0F80
F07800001F0F80
F07800001F0F80
F07800001F0F80
0F80000000F000
0F80000000F000
0F80000000F000
0F80000000F000
F07800001F0F80
F07800001F0F80
F07800001F0F80
F07800001F0F80
F07800001F0F80
0F80000000F000
0F80000000F000
0F80000000F000
0F80000000F000
F07800001F0F80
F07800001F0F80
F07800001F0F80
F07800001F0F80
0F80000000F000
0F80000000F000
0F80000000F000
0F80000000F000
0F80000000F000
F07800001F0F80
F07800001F0F80
F07800001F0F80
F07800001F0F80
0F80000000F000
0F80000000F000
0F80000000F000
0F80000000F000
0F80000000F000
F07800001F0F80
F07800001F0F80
F07800001F0F80
F07800001F0F80
0F80000000F000
0F80000000F000
0F80000000F000
0F80000000F000
0F80000000F000
F0787C3E1F0F80
F0787C3E1F0F80
F0787C3E1F0F80
F0787C3E1F0F80
0F8783C1E0F000
0F8783C1E0F000
0F8783C1E0F000
0F8783C1E0F000
0F8783C1E0F000
00787C3E1F0000
00787C3E1F0000
00787C3E1F0000
00787C3E1F0000
ENDCHAR
STARTCHAR 00FA
ENCODING 250
SWIDTH 697 0
DWIDTH 62 0
BBX 49 93 7 0
BITMAP
00000001E0F000
00000001E0F000
00000001E0F000
00000001E0F000
0000003E1F0000
0000003E1F0000
0000003E1F0000
0000003E1F0000
0000003E1F0000
000003C1E00000
000003C1E00000
000003C1E00000
000003C1E00000
00007C3E000000
00007C3E000000
00007C3E000000
00007C3E000000
000783C0000000
000783C0000000
000783C0000000
000783C0000000
000783C0000000
00000000000000
00000000000000
00000000000000
00000000000000
F07800001F0F80
F07800001F0F80
F07800001F0F80
F07800001F0F80
F07800001F0F80
0F80000000F000
0F80000000F000
0F80000000F000
0F80000000F000
F07800001F0F80
F07800001F0F80
F07800001F0F80
F07800001F0F80
F07800001F0F80
0F80000000F000
0F80000000F000
0F80000000F000
0F80000000F000
F07800001F0F80
F07800001F0F80
F07800001F0F80
F07800001F0F80
F07800001F0F80
0F80000000F000
0F80000000F000
0F80000000F000
0F80000000F000
F07800001F0F80
F07800001F0F80
F07800001F0F80
F07800001F0F80
0F80000000F000
0F80000000F000
0F80000000F000
0F80000000F000
0F80000000F000
F07800001F0F80
F07800001F0F80
F07800001F0F80
F07800001F0F80
0F80000000F000
0F80000000F000
0F80000000F000
0F80000000F000
0F80000000F000
F07800001F0F80
F07800001F0F80
F07800001F0F80
F07800001F0F80
0F80000000F000
0F80000000F000
0F80000000F000
0F80000000F000
0F80000000F000
F0787C3E1F0F80
F0787C3E1F0F80
F0787C3E1F0F80
F0787C3E1F0F80
0F8783C1E0F000
0F8783C1E0F000
0F8783C1E0F000
0F8783C1E0F000
0F8783C1E0F000
00787C3E1F0000
00787C3E1F0000
00787C3E1F0000
00787C3E1F0000
ENDCHAR
STARTCHAR 00FB
ENCODING 251
SWIDTH 697 0
DWIDTH 62 0
BBX 49 93 7 0
BITMAP
00007C3E000000
00007C3E000000
00007C3E000000
00007C3E000000
000783C1E00000
000783C1E00000
000783C1E00000
000783C1E00000
000783C1E00000
00787C3E1F0000
00787C3E1F0000
00787C3E1F0000
00787C3E1F0000
00078001E00000
00078001E00000
00078001E00000
00078001E00000
00787C3E1F0000
00787C3E1F0000
00787C3E1F0000
00787C3E1F0000
00787C3E1F0000
00000000000000
00000000000000
00000000000000
00000000000000
F07800001F0F80
F07800001F0F80
F07800001F0F80
F07800001F0F80
F07800001F0F80
0F80000000F000
0F80000000F000
0F80000000F000
0F80000000F000
F07800001F0F80
F07800001F0F80
F07800001F0F80
F07800001F0F80
F07800001F0F80
0F80000000F000
0F80000000F000
0F80000000F000
0F80000000F000
F07800001F0F80
F07800001F0F80
F07800001F0F80
F07800001F0F80
F07800001F0F80
0F80000000F000
0F80000000F000
0F80000000F000
0F80000000F000
F07800001F0F80
F07800001F0F80
F07800001F0F80
F07800001F0F80
0F80000000F000
0F80000000F000
0F80000000F000
0F80000000F000
0F80000000F000
F07800001F0F80
F07800001F0F80
F07800001F0F80
F07800001F0F80
0F80000000F000
0F80000000F000
0F80000000F000
0F80000000F000
0F80000000F000
F07800001F0F80
F07800001F0F80
F07800001F0F80
F07800001F0F80
0F80000000F000
0F80000000F000
0F80000000F000
0F80000000F000
0F80000000F000
F0787C3E1F0F80
F0787C3E1F0F80
F0787C3E1F0F80
F0787C3E1F0F80
0F8783C1E0F000
0F8783C1E0F000
0F8783C1E0F000
0F8783C1E0F000
0F8783C1E0F000
00787C3E1F0000
00787C3E1F0000
00787C3E1F0000
00787C3E1F0000
ENDCHAR
STARTCHAR 00FC
ENCODING 252
SWIDTH 697 0
DWIDTH 62 0
BBX 49 84 7 0
BITMAP
00787C3E1F0000
00787C3E1F0000
00787C3E1F0000
00787C3E1F0000
00078001E00000
00078001E00000
00078001E00000
00078001E00000
00787C3E1F0000
00787C3E1F0000
00787C3E1F0000
00787C3E1F0000
00787C3E1F0000
00000000000000
00000000000000
00000000000000
00000000000000
F07800001F0F80
F07800001F0F80
F07800001F0F80
F07800001F0F80
F07800001F0F80
0F80000000F000
0F80000000F000
0F80000000F000
0F80000000F000
F07800001F0F80
F07800001F0F80
F07800001F0F80
F07800001F0F80
F07800001F0F80
0F80000000F000
0F80000000F000
0F80000000F000
0F80000000F000
F07800001F0F80
F07800001F0F80
F07800001F0F80
F07800001F0F80
F07800001F0F80
0F80000000F000
0F80000000F000
0F80000000F000
0F80000000F000
F07800001F0F80
F07800001F0F80
F07800001F0F80
F07800001F0F80
0F80000000F000
0F80000000F000
0F80000000F000
0F80000000F000
0F80000000F000
F07800001F0F80
F07800001F0F80
F07800001F0F80
F07800001F0F80
0F80000000F000
0F80000000F000
0F80000000F000
0F80000000F000
0F80000000F000
F07800001F0F80
F07800001F0F80
F07800001F0F80
F07800001F0F80
0F80000000F000
0F80000000F000
0F80000000F000
0F80000000F000
0F80000000F000
F0787C3E1F0F80
F0787C3E1F0F80
F0787C3E1F0F80
F0787C3E1F0F80
0F8783C1E0F000
0F8783C1E0F000
0F8783C1E0F000
0F8783C1E0F000
0F8783C1E0F000
00787C3E1F0000
00787C3E1F0000
00787C3E1F0000
00787C3E1F0000
ENDCHAR
STARTCHAR 00FD
ENCODING 253
SWIDTH 697 0
DWIDTH 62 0
BBX 49 93 7 0
BITMAP
00000001E0F000
00000001E0F000
00000001E0F000
00000001E0F000
0000003E1F0000
0000003E1F0000
0000003E1F0000
0000003E1F0000
0000003E1F0000
000003C1E00000
000003C1E00000
000003C1E00000
000003C1E00000
00007C3E000000
00007C3E000000
00007C3E000000
00007C3E000000
000783C0000000
000783C0000000
000783C0000000
000783C0000000
000783C0000000
00000000000000
00000000000000
00000000000000
00000000000000
F07800001F0F80
F07800001F0F80
F07800001F0F80
F07800001F0F80
F07800001F0F80
0F80000000F000
0F80000000F000
0F80000000F000
0F80000000F000
F07800001F0F80
F07800001F0F80
F07800001F0F80
F07800001F0F80
F07800001F0F80
0F80000000F000
0F80000000F000
0F80000000F000
0F80000000F000
F07800001F0F80
F07800001F0F80
F07800001F0F80
F07800001F0F80
F07800001F0F80
0F80000000F000
0F80000000F000
0F80000000F000
0F80000000F000
F07800001F0F80
F07800001F0F80
F07800001F0F80
F07800001F0F80
0F80000000F000
0F80000000F000
0F80000000F000
0F80000000F000
0F80000000F000
F0787C3E1F0F80
F0787C3E1F0F80
F0787C3E1F0F80
F0787C3E1F0F80
0F8783C1E0F000
0F8783C1E0F000
0F8783C1E0F000
0F8783C1E0F000
0F8783C1E0F000
00787C3E1F0000
00787C3E1F0000
00787C3E1F0000
00787C3E1F0000
000003C0000000
000003C0000000
000003C0000000
000003C0000000
000003C0000000
00007C3E000000
00007C3E000000
00007C3E000000
00007C3E000000
000003C0000000
000003C0000000
000003C0000000
000003C0000000
000003C0000000
00007C3E000000
00007C3E000000
00007C3E000000
00007C3E000000
ENDCHAR
STARTCHAR 00FE
ENCODING 254
SWIDTH 697 0
DWIDTH 62 0
BBX 49 67 7 0
BITMAP
F0780000000000
F0780000000000
F0780000000000
F0780000000000
F0780000000000
0F800000000000
0F800000000000
0F800000000000
0F800000000000
F0787C3E1F0000
F0787C3E1F0000
F0787C3E1F0000
F0787C3E1F0000
F0787C3E1F0000
0F8783C1E0F000
0F8783C1E0F000
0F8783C1E0F000
0F8783C1E0F000
F0787C3E1F0F80
F0787C3E1F0F80
F0787C3E1F0F80
F0787C3E1F0F80
F0787C3E1F0F80
0F80000000F000
0F80000000F000
0F80000000F000
0F80000000F000
F07800001F0F80
F07800001F0F80
F07800001F0F80
F07800001F0F80
0F80000000F000
0F80000000F000
0F80000000F000
0F80000000F000
0F80000000F000
F07800001F0F80
F07800001F0F80
F07800001F0F80
F07800001F0F80
0F80000000F000
0F80000000F000
0F80000000F000
0F80000000F000
0F80000000F000
F0787C3E1F0F80
F0787C3E1F0F80
F0787C3E1F0F80
F0787C3E1F0F80
0F8783C1E0F000
0F8783C1E0F000
0F8783C1E0F000
0F8783C1E0F000
0F8783C1E0F000
F0787C3E1F0000
F0787C3E1F0000
F0787C3E1F0000
F0787C3E1F0000
0F800000000000
0F800000000000
0F800000000000
0F800000000000
0F800000000000
F0780000000000
F0780000000000
F0780000000000
F0780000000000
ENDCHAR
STARTCHAR 00FF
ENCODING 255
SWIDTH 697 0
DWIDTH 62 0
BBX 49 84 7 0
BITMAP
00787C3E1F0000
00787C3E1F0000
00787C3E1F0000
00787C3E1F0000
00078001E00000
00078001E00000
00078001E00000
00078001E00000
00787C3E1F0000
00787C3E1F0000
00787C3E1F0000
00787C3E1F0000
00787C3E1F0000
00000000000000
00000000000000
00000000000000
00000000000000
F07800001F0F80
F07800001F0F80
F07800001F0F80
F07800001F0F80
F07800001F0F80
0F80000000F000
0F80000000F000
0F80000000F000
0F80000000F000
F07800001F0F80
F07800001F0F80
F07800001F0F80
F07800001F0F80
F07800001F0F80
0F80000000F000
0F80000000F000
0F80000000F000
0F80000000F000
F07800001F0F80
F07800001F0F80
F07800001F0F80
F07800001F0F80
F07800001F0F80
0F80000000F000
0F80000000F000
0F80000000F000
0F80000000F000
F07800001F0F80
F07800001F0F80
F07800001F0F80
F07800001F0F80
0F80000000F000
0F80000000F000
0F80000000F000
0F80000000F000
0F80000000F000
F0787C3E1F0F80
F0787C3E1F0F80
F0787C3E1F0F80
F0787C3E1F0F80
0F8783C1E0F000
0F8783C1E0F000
0F8783C1E0F000
0F8783C1E0F000
0F8783C1E0F000
00787C3E1F0000
00787C3E1F0000
00787C3E1F0000
00787C3E1F0000
000003C0000000
000003C0000000
000003C0000000
000003C0000000
000003C0000000
00007C3E000000
00007C3E000000
00007C3E000000
00007C3E000000
000003C0000000
000003C0000000
000003C0000000
000003C0000000
000003C0000000
00007C3E000000
00007C3E000000
00007C3E000000
00007C3E000000
ENDCHAR
STARTCHAR 0100
ENCODING 256
SWIDTH 697 0
DWIDTH 62 0
BBX 49 84 7 0
BITMAP
00787C3E1F0000
00787C3E1F0000
00787C3E1F0000
00787C3E1F0000
000783C1E00000
000783C1E00000
000783C1E00000
000783C1E00000
00787C3E1F0000
00787C3E1F0000
00787C3E1F0000
00787C3E1F0000
00787C3E1F0000
00000000000000
00000000000000
00000000000000
00000000000000
00007C3E000000
00007C3E000000
00007C3E000000
00007C3E000000
00007C3E000000
000783C1E00000
000783C1E00000
000783C1E00000
000783C1E00000
00787C3E1F0000
00787C3E1F0000
00787C3E1F0000
00787C3E1F0000
00787C3E1F0000
0F878001E0F000
0F878001E0F000
0F878001E0F000
0F878001E0F000
F07800001F0F80
F07800001F0F80
F07800001F0F80
F07800001F0F80
F07800001F0F80
0F80000000F000
0F80000000F000
0F80000000F000
0F80000000F000
F07800001F0F80
F07800001F0F80
F07800001F0F80
F07800001F0F80
0F80000000F000
0F80000000F000
0F80000000F000
0F80000000F000
0F80000000F000
F0787C3E1F0F80
F0787C3E1F0F80
F0787C3E1F0F80
F0787C3E1F0F80
0F8783C1E0F000
0F8783C1E0F000
0F8783C1E0F000
0F8783C1E0F000
0F8783C1E0F000
F0787C3E1F0F80
F0787C3E1F0F80
F0787C3E1F0F80
F0787C3E1F0F80
0F80000000F000
0F80000000F000
0F80000000F000
0F80000000F000
0F80000000F000
F07800001F0F80
F07800001F0F80
F07800001F0F80
F07800001F0F80
0F80000000F000
0F80000000F000
0F80000000F000
0F80000000F000
0F80000000F000
F07800001F0F80
F07800001F0F80
F07800001F0F80
F07800001F0F80
ENDCHAR
STARTCHAR 0101
ENCODING 257
SWIDTH 697 0
DWIDTH 62 0
BBX 49 84 7 0
BITMAP
00787C3E1F0000
00787C3E1F0000
00787C3E1F0000
00787C3E1F0000
000783C1E00000
000783C1E00000
000783C1E00000
000783C1E00000
00787C3E1F0000
00787C3E1F0000
00787C3E1F0000
00787C3E1F0000
00787C3E1F0000
00000000000000
00000000000000
00000000000000
00000000000000
00787C3E1F0000
00787C3E1F0000
00787C3E1F0000
00787C3E1F0000
00787C3E1F0000
0F8783C1E0F000
0F8783C1E0F000
0F8783C1E0F000
0F8783C1E0F000
F0787C3E1F0F80
F0787C3E1F0F80
F0787C3E1F0F80
F0787C3E1F0F80
F0787C3E1F0F80
0F80000000F000
0F80000000F000
0F80000000F000
0F80000000F000
F07800001F0F80
F07800001F0F80
F07800001F0F80
F07800001F0F80
F07800001F0F80
0F80000000F000
0F80000000F000
0F80000000F000
0F80000000F000
F07800001F0F80
F07800001F0F80
F07800001F0F80
F07800001F0F80
0F80000000F000
0F80000000F000
0F80000000F000
0F80000000F000
0F80000000F000
F0787C3E1F0F80
F0787C3E1F0F80
F0787C3E1F0F80
F0787C3E1F0F80
0F8783C1E0F000
0F8783C1E0F000
0F8783C1E0F000
0F8783C1E0F000
0F8783C1E0F000
F0787C3E1F0F80
F0787C3E1F0F80
F0787C3E1F0F80
F0787C3E1F0F80
0F80000000F000
0F80000000F000
0F80000000F000
0F80000000F000
0F80000000F000
F07800001F0F80
F07800001F0F80
F07800001F0F80
F07800001F0F80
0F80000000F000
0F80000000F000
0F80000000F000
0F80000000F000
0F80000000F000
F07800001F0F80
F07800001F0F80
F07800001F0F80
F07800001F0F80
ENDCHAR
STARTCHAR 0102
ENCODING 258
SWIDTH 697 0
DWIDTH 62 0
BBX 49 93 7 0
BITMAP
0F878001E0F000
0F878001E0F000
0F878001E0F000
0F878001E0F000
007800001F0000
007800001F0000
007800001F0000
007800001F0000
007800001F0000
0F8783C1E0F000
0F8783C1E0F000
0F8783C1E0F000
0F8783C1E0F000
00787C3E1F0000
00787C3E1F0000
00787C3E1F0000
00787C3E1F0000
000783C1E00000
000783C1E00000
000783C1E00000
000783C1E00000
000783C1E00000
00000000000000
00000000000000
00000000000000
00000000000000
00007C3E000000
00007C3E000000
00007C3E000000
00007C3E000000
00007C3E000000
000783C1E00000
000783C1E00000
000783C1E00000
000783C1E00000
00787C3E1F0000
00787C3E1F0000
00787C3E1F0000
00787C3E1F0000
00787C3E1F0000
0F878001E0F000
0F878001E0F000
0F878001E0F000
0F878001E0F000
F07800001F0F80
F07800001F0F80
F07800001F0F80
F07800001F0F80
F07800001F0F80
0F80000000F000
0F80000000F000
0F80000000F000
0F80000000F000
F07800001F0F80
F07800001F0F80
F07800001F0F80
F07800001F0F80
0F80000000F000
0F80000000F000
0F80000000F000
0F80000000F000
0F80000000F000
F0787C3E1F0F80
F0787C3E1F0F80
F0787C3E1F0F80
F0787C3E1F0F80
0F8783C1E0F000
0F8783C1E0F000
0F8783C1E0F000
0F8783C1E0F000
0F8783C1E0F000
F0787C3E1F0F80
F0787C3E1F0F80
F0787C3E1F0F80
F0787C3E1F0F80
0F80000000F000
0F80000000F000
0F80000000F000
0F80000000F000
0F80000000F000
F07800001F0F80
F07800001F0F80
F07800001F0F80
F07800001F0F80
0F80000000F000
0F80000000F000
0F80000000F000
0F80000000F000
0F80000000F000
F07800001F0F80
F07800001F0F80
F07800001F0F80
F07800001F0F80
ENDCHAR
ENDFONT
